<svg xmlns="http://www.w3.org/2000/svg" xmlns:xlink="http://www.w3.org/1999/xlink" width="471" height="97" viewBox="0 0 471 97">
  <defs>
    <linearGradient id="linear-gradient" x1="0.457" x2="0.543" y2="1" gradientUnits="objectBoundingBox">
      <stop offset="0" stop-color="#6662ff"/>
      <stop offset="0.172" stop-color="#6273ff"/>
      <stop offset="1" stop-color="#849cfe"/>
    </linearGradient>
  </defs>
  <g id="Claim_button" data-name="Claim button" transform="translate(-763.066 -854.437)">
    <g id="Vector_Smart_Object" data-name="Vector Smart Object" transform="translate(766.001 857)">
      <g id="Group_6" data-name="Group 6">
        <g id="Group_5" data-name="Group 5">
          <path id="Path_13" data-name="Path 13" d="M1831.528,602.47H1470.377c-28.714,0-51.988-20.344-51.988-45.437h0c0-25.093,23.275-45.437,51.988-45.437h361.151c28.713,0,51.992,20.344,51.992,45.437h0C1883.52,582.126,1860.241,602.47,1831.528,602.47Z" transform="translate(-1418.388 -511.595)" fill="#009671"/>
        </g>
      </g>
    </g>
    <g id="Gradient_Overlay" data-name="Gradient Overlay" transform="translate(766.066 857.437)" fill="url(#linear-gradient)">
      <path d="M 413.0229797363281 92.5 L 51.97367477416992 92.5 C 44.7786750793457 92.5 37.79673385620117 91.26552581787109 31.22179222106934 88.83082580566406 C 24.86079216003418 86.47541046142578 19.14532279968262 83.10099792480469 14.23420524597168 78.80141448974609 C 9.308733940124512 74.48917388916016 5.439322471618652 69.46299743652344 2.733498811721802 63.86241149902344 C -0.07567757368087769 58.04782485961914 -1.500030517578125 51.86964797973633 -1.500030517578125 45.49953079223633 C -1.500030517578125 39.12964630126953 -0.07567757368087769 32.95170593261719 2.733498811721802 27.13723564147949 C 5.439322471618652 21.53676414489746 9.308733940124512 16.51070594787598 14.23420524597168 12.19858837127686 C 19.14538192749023 7.89900016784668 24.86079216003418 4.524588108062744 31.22179222106934 2.169176578521729 C 37.79673385620117 -0.2655294239521027 44.7786750793457 -1.5 51.97367477416992 -1.5 L 413.0229797363281 -1.5 C 420.2177429199219 -1.5 427.1996765136719 -0.2655294239521027 433.77490234375 2.169176578521729 C 440.1361999511719 4.524647235870361 445.8520202636719 7.89900016784668 450.7636108398438 12.19852924346924 C 455.6896667480469 16.51070594787598 459.5595703125 21.53676414489746 462.2657470703125 27.13717651367188 C 465.075439453125 32.95170593261719 466.5000305175781 39.12970733642578 466.5000305175781 45.49953079223633 C 466.5000305175781 51.86958694458008 465.075439453125 58.04782485961914 462.2657470703125 63.86246871948242 C 459.5595703125 69.46299743652344 455.6897277832031 74.48917388916016 450.7636108398438 78.80141448974609 C 445.8520202636719 83.10099792480469 440.1361999511719 86.47541046142578 433.77490234375 88.83082580566406 C 427.1996765136719 91.26552581787109 420.2177429199219 92.5 413.0229797363281 92.5 Z" stroke="none"/>
      <path d="M 413.0229797363281 91 C 441.727294921875 91 465.0000305175781 70.6275634765625 465.0000305175781 45.4995002746582 C 465.0000305175781 20.37256240844727 441.727294921875 0 413.0229797363281 0 L 51.97372055053711 0 C 23.26821899414062 0 -3.0517578125e-05 20.37256240844727 -3.0517578125e-05 45.4995002746582 C -3.0517578125e-05 70.6275634765625 23.26821899414062 91 51.97372055053711 91 L 413.0229797363281 91 M 413.0229797363281 94 L 51.97372055053711 94 C 44.60034561157227 94 37.44315719604492 92.73412322998047 30.70090675354004 90.23750305175781 C 24.16790771484375 87.81837463378906 18.2952823638916 84.35037231445312 13.24615669250488 79.92993927001953 C 8.168219566345215 75.48431396484375 4.176844596862793 70.29793548583984 1.382907032966614 64.51493835449219 C -1.525405526161194 58.49518585205078 -3.000030517578125 52.09743881225586 -3.000030517578125 45.4995002746582 C -3.000030517578125 38.90181350708008 -1.525405526161194 32.50431060791016 1.382907032966614 26.48468780517578 C 4.176844596862793 20.70181274414062 8.168219566345215 15.51550006866455 13.24615669250488 11.06993770599365 C 18.29534530639648 6.649562358856201 24.16796875 3.181624889373779 30.70090675354004 0.762499988079071 C 37.44315719604492 -1.734125018119812 44.60034561157227 -3 51.97372055053711 -3 L 413.0229797363281 -3 C 420.3960266113281 -3 427.5532836914062 -1.734125018119812 434.2957153320312 0.762499988079071 C 440.8289794921875 3.181624889373779 446.7020263671875 6.649499893188477 451.7515869140625 11.0698127746582 C 456.8301696777344 15.51543712615967 460.8219604492188 20.70168685913086 463.6163330078125 26.48456192016602 C 466.525146484375 32.50424957275391 468.0000305175781 38.90181350708008 468.0000305175781 45.4995002746582 C 468.0000305175781 52.09743881225586 466.525146484375 58.49518585205078 463.6163330078125 64.51506042480469 C 460.822021484375 70.29799652099609 456.8301696777344 75.484375 451.7516479492188 79.93006134033203 C 446.7020263671875 84.35044097900391 440.8290405273438 87.81837463378906 434.2957153320312 90.23750305175781 C 427.5532836914062 92.73412322998047 420.3960876464844 94 413.0229797363281 94 Z" stroke="none" fill="#6662ff"/>
    </g>
  </g>
</svg>
