<svg xmlns="http://www.w3.org/2000/svg" width="149.575" height="117.708" viewBox="0 0 149.575 117.708">
  <g id="Footer_logo" data-name="Footer logo" transform="translate(-1272.344 -432.661)">
    <path id="Path_1" data-name="Path 1" d="M1365.194,506.672a5.134,5.134,0,0,0-3.945,2.613l-.009-.006.015-2.6a5.059,5.059,0,0,1,.534-1.938q.872-1.455.581-2.181a.769.769,0,0,0-1.066-.485,18.919,18.919,0,0,1-2.011.485,9.063,9.063,0,0,1-2.084.146,6.6,6.6,0,0,1-2.059-.436,5.565,5.565,0,0,1-1.939-1.308.4.4,0,0,0-.291-.1c-.129,0-.194.033-.194.1v3.575s-.008.005-.008.011v22.979a3.1,3.1,0,0,1-.32,1.627,2,2,0,0,1-.863.741.74.74,0,0,0-.443.419,1.859,1.859,0,0,0-.173.641,1.378,1.378,0,0,0,.074.592q.1.271.3.271h11.391a.316.316,0,0,0,.32-.271,1.737,1.737,0,0,0,.049-.592,1.855,1.855,0,0,0-.172-.641.739.739,0,0,0-.444-.419,1.991,1.991,0,0,1-.863-.741,3.1,3.1,0,0,1-.32-1.627V515.351a8.061,8.061,0,0,1,.641-3.4,2.333,2.333,0,0,1,2.318-1.381q2.218,0,2.515,3.551v12.131a6.022,6.022,0,0,0,.616,2.934,4.332,4.332,0,0,0,1.652,1.7,6.335,6.335,0,0,0,2.342.764,20.037,20.037,0,0,0,2.639.173,12.5,12.5,0,0,0,2.588-.2,2.563,2.563,0,0,0,1.258-.591.931.931,0,0,0,.272-.74.53.53,0,0,0-.419-.542q-.346-.1-.74-.247a2.07,2.07,0,0,1-.739-.492,2.579,2.579,0,0,1-.567-.937,4.418,4.418,0,0,1-.222-1.529V515.3a9.7,9.7,0,0,0-.765-3.921,7.838,7.838,0,0,0-2.145-2.91,8.275,8.275,0,0,0-3.255-1.652A9.754,9.754,0,0,0,1365.194,506.672Z" transform="translate(-24.83 -21.556)" fill="#fff"/>
    <path id="Path_2" data-name="Path 2" d="M1420.912,544.854a9.787,9.787,0,0,0,3.254-1.332,4.34,4.34,0,0,0,1.43-1.406,4.812,4.812,0,0,0,.641-1.626,3.94,3.94,0,0,0-.025-1.578,3.108,3.108,0,0,0-.616-1.307,3.843,3.843,0,0,0-1.849-1.184,4.74,4.74,0,0,0-2.441-.148,4.356,4.356,0,0,0-2.244,1.257,4.9,4.9,0,0,0-1.257,2.934q-.3,2.121-.912,2.318t-1.232-.937a13.363,13.363,0,0,1-1.11-3.353,22.511,22.511,0,0,1-.494-4.882V518.965a8.589,8.589,0,0,0-2.983-6.977q-2.984-2.49-8.359-2.49a14.193,14.193,0,0,0-4.511.715,10.045,10.045,0,0,0-3.575,2,6.336,6.336,0,0,0-1.332,1.6,5.274,5.274,0,0,0-.641,1.7,3.5,3.5,0,0,0,.074,1.6,2.387,2.387,0,0,0,.863,1.257,3.528,3.528,0,0,0,1.43.616,4.939,4.939,0,0,0,1.627.075,3.366,3.366,0,0,0,1.381-.469,1.438,1.438,0,0,0,.69-1.06q.148-.937.3-1.948a6.506,6.506,0,0,1,.542-1.849,3.568,3.568,0,0,1,1.134-1.38,3.35,3.35,0,0,1,2.021-.542,2.232,2.232,0,0,1,2,1.159,6.151,6.151,0,0,1,.715,3.23v2.564a33.855,33.855,0,0,0-4.734.641,16.038,16.038,0,0,0-3.55,1.184,10.4,10.4,0,0,0-2.687,1.849,13.09,13.09,0,0,0-2.1,2.638,5.755,5.755,0,0,0-.814,2.244,7.276,7.276,0,0,0,.049,2.391,6.435,6.435,0,0,0,.863,2.219,5.266,5.266,0,0,0,1.627,1.676,6.23,6.23,0,0,0,1.627.813,9.583,9.583,0,0,0,1.973.445,9.754,9.754,0,0,0,2.071.025,6.165,6.165,0,0,0,1.923-.494,5.429,5.429,0,0,0,2.465-2.219,8.431,8.431,0,0,0,1.283-3.3v4.191a13.075,13.075,0,0,0,1.011,5.4,10.62,10.62,0,0,0,6.312,5.868,15.222,15.222,0,0,0,4.142.838A14.126,14.126,0,0,0,1420.912,544.854Zm-15.484-19.577a6.773,6.773,0,0,1-1.06,2.983,4.542,4.542,0,0,1-2.1,1.8q-1.332.494-1.9-.247a2.83,2.83,0,0,1-.567-1.775,7.335,7.335,0,0,1,.469-2.589,7.694,7.694,0,0,1,1.257-2.219,6.681,6.681,0,0,1,1.8-1.553,4.089,4.089,0,0,1,2.1-.592Z" transform="translate(-37.648 -24.283)" fill="#fff"/>
    <path id="Path_3" data-name="Path 3" d="M1429.251,528.148a1.992,1.992,0,0,1-.863.741.738.738,0,0,0-.444.419,1.858,1.858,0,0,0-.172.641,1.381,1.381,0,0,0,.074.592c.065.181.164.271.3.271h11.391a.316.316,0,0,0,.321-.271,1.731,1.731,0,0,0,.049-.592,1.89,1.89,0,0,0-.172-.641.743.743,0,0,0-.444-.419,1.986,1.986,0,0,1-.863-.741,3.093,3.093,0,0,1-.32-1.627V497.674l-.691.2q-.888.247-2.022.493t-2.366.419q-1.233.173-2.441.3a21.637,21.637,0,0,1-2.194.124.516.516,0,0,0-.419.222.817.817,0,0,0-.172.518,1.519,1.519,0,0,0,.123.592.671.671,0,0,0,.469.395,1.6,1.6,0,0,1,.863,1.011,4.36,4.36,0,0,1,.321,1.6v22.979A3.1,3.1,0,0,1,1429.251,528.148Z" transform="translate(-49.119 -20.546)" fill="#fff"/>
    <path id="Path_4" data-name="Path 4" d="M1462.213,534.65a12.74,12.74,0,0,0,2.736-.912,13.155,13.155,0,0,0,2.54-1.553,9.968,9.968,0,0,0,2.1-2.219.9.9,0,0,0,.222-.715.891.891,0,0,0-.37-.715,1.129,1.129,0,0,0-.641-.246,1.4,1.4,0,0,0-.838.345,6.922,6.922,0,0,1-4.537,1.381,13.645,13.645,0,0,1-1.406-.074,10.692,10.692,0,0,1-1.5-.271,4.6,4.6,0,0,1-1.825-.936,6.551,6.551,0,0,1-1.455-1.726,8.974,8.974,0,0,1-.961-2.367,10.943,10.943,0,0,1-.345-2.762v-2.022l12.229-.1a1.755,1.755,0,0,0,1.233-.37,1.919,1.919,0,0,0,.542-.863,3.314,3.314,0,0,0,.148-.962v-.616a6.751,6.751,0,0,0-1.011-3.008,8.511,8.511,0,0,0-2.317-2.417,11.346,11.346,0,0,0-3.353-1.6,14.175,14.175,0,0,0-4.069-.567,11.31,11.31,0,0,0-4.635.962,12.322,12.322,0,0,0-3.821,2.638,13.13,13.13,0,0,0-2.663,3.969,14.131,14.131,0,0,0-1.159,4.956,13.314,13.314,0,0,0,.715,5.252,11.5,11.5,0,0,0,2.515,4.117,11.692,11.692,0,0,0,4.019,2.713,13.459,13.459,0,0,0,5.227.986A13.022,13.022,0,0,0,1462.213,534.65Zm-5.128-21.228a2.4,2.4,0,0,1,2.243-1.258,1.812,1.812,0,0,1,1.529.814,3.475,3.475,0,0,1,.592,2.1,1.475,1.475,0,0,1-.863,1.479,5.668,5.668,0,0,1-1.7.493l-2.761.049A9.577,9.577,0,0,1,1457.084,513.422Z" transform="translate(-55.206 -24.237)" fill="#fff"/>
    <path id="Path_5" data-name="Path 5" d="M1309.667,528.073a10.523,10.523,0,0,0,.444,1.06,4.807,4.807,0,0,0,.666,1.036,1.145,1.145,0,0,0,.888.469h1.233l.247-.69,8.974-22.338a12.918,12.918,0,0,1,1.036-1.948q.591-.912,1.109-1.726a13.814,13.814,0,0,0,.863-1.553,2.4,2.4,0,0,0,.247-1.381,3.589,3.589,0,0,0-1.479-3.033,5.912,5.912,0,0,0-3.945-.814,4.467,4.467,0,0,0-3.156,1.43,4.08,4.08,0,0,0-.789,3.255,4.3,4.3,0,0,0,.666,1.972q.518.74.962,1.43a4.472,4.472,0,0,1,.616,1.553,4.58,4.58,0,0,1-.37,2.342l-2.515,7-4.536-14.5a.791.791,0,0,1,.394-.665,3.651,3.651,0,0,1,.912-.444,8.165,8.165,0,0,1,1.036-.272,4.627,4.627,0,0,1,.765-.1.462.462,0,0,0,.468-.32,1.551,1.551,0,0,0,.1-.666,1.708,1.708,0,0,0-.173-.641.445.445,0,0,0-.394-.3H1297.71q-.345,0-.493.592-.148-.592-.542-.592H1280.9a18.184,18.184,0,0,0-1.948.1,10.715,10.715,0,0,0-1.775.345,8.353,8.353,0,0,0-1.751.74,6.106,6.106,0,0,0-2.589,2.613,4.777,4.777,0,0,0-.271,3.551,3.673,3.673,0,0,0,1.824,2.367,4.962,4.962,0,0,0,2.688.592,3.894,3.894,0,0,0,2.293-.887,1.966,1.966,0,0,0,.69-2.022,4.3,4.3,0,0,1,.074-2.392,3.163,3.163,0,0,1,1.036-1.5,1.942,1.942,0,0,1,1.381-.419,1.515,1.515,0,0,1,1.159.814l9.073,25.346a4.289,4.289,0,0,0,.172.542q.172.493.419,1.085a4.027,4.027,0,0,0,.641,1.06,1.107,1.107,0,0,0,.839.469h1.677l7.347-19.773,5.622,16.667A4.325,4.325,0,0,0,1309.667,528.073Zm-10.528-12.279-5.178-13.61a.994.994,0,0,1,.3-.814,3.324,3.324,0,0,1,.838-.641,5.1,5.1,0,0,1,.986-.419,2.831,2.831,0,0,1,.74-.148.419.419,0,0,0,.443-.3.58.58,0,0,0,.493.3,10.541,10.541,0,0,1,1.381.272,2.8,2.8,0,0,1,1.479.912l1.874,5.425Z" transform="translate(0 -20.372)" fill="#fff"/>
    <path id="Path_6" data-name="Path 6" d="M1277.275,461.606a16.047,16.047,0,0,0,5.5,3.5,18.881,18.881,0,0,0,6.879,1.233,14.937,14.937,0,0,0,7.175-1.873,17.459,17.459,0,0,0,6.04-5.572.8.8,0,0,0,.222-.739.972.972,0,0,0-.468-.691,1.29,1.29,0,0,0-.765-.247.844.844,0,0,0-.616.2,5.656,5.656,0,0,1-1.258,1.085,10.737,10.737,0,0,1-1.9.986,13.747,13.747,0,0,1-2.367.715,12.338,12.338,0,0,1-2.564.272,8.783,8.783,0,0,1-4.537-1.159,11.57,11.57,0,0,1-3.378-3.008,15.183,15.183,0,0,1-2.219-4.142,18.4,18.4,0,0,1-1.011-4.611,17.368,17.368,0,0,1,.222-5.03,12.388,12.388,0,0,1,1.5-4.018,7.968,7.968,0,0,1,2.564-2.663,6.341,6.341,0,0,1,3.452-.962,6.738,6.738,0,0,1,2.811.469,3.051,3.051,0,0,1,1.405,1.209,2.966,2.966,0,0,1,.37,1.652,10.558,10.558,0,0,1-.271,1.849q-.222.937-.493,1.775a6.533,6.533,0,0,0-.32,1.43,4.358,4.358,0,0,0,.222,1.923,3.872,3.872,0,0,0,.962,1.5,4.8,4.8,0,0,0,1.553.986,5.26,5.26,0,0,0,2,.37,6.114,6.114,0,0,0,1.578-.2,4.7,4.7,0,0,0,1.825-.986,5.752,5.752,0,0,0,1.282-1.6,5.439,5.439,0,0,0,.616-1.973,4.548,4.548,0,0,0-.222-2.046,12.906,12.906,0,0,0-1.652-2.959,13.173,13.173,0,0,0-2.786-2.786,14.582,14.582,0,0,0-3.9-2.046,14.8,14.8,0,0,0-4.981-.789,18.365,18.365,0,0,0-6.928,1.282,17.1,17.1,0,0,0-5.5,3.5,16.342,16.342,0,0,0-3.649,5.2,15.49,15.49,0,0,0-1.332,6.386,18.64,18.64,0,0,0,1.307,7.1A15.978,15.978,0,0,0,1277.275,461.606Z" transform="translate(0 0)" fill="#fff"/>
    <path id="Path_7" data-name="Path 7" d="M1321.513,464.084a1.987,1.987,0,0,1-.863.739.743.743,0,0,0-.443.419,1.862,1.862,0,0,0-.173.641,1.387,1.387,0,0,0,.074.592c.066.181.165.272.3.272h11.489a.316.316,0,0,0,.321-.272,1.731,1.731,0,0,0,.049-.592,1.886,1.886,0,0,0-.172-.641.746.746,0,0,0-.444-.419,1.979,1.979,0,0,1-.863-.739,3.1,3.1,0,0,1-.321-1.628v-8.53a17.528,17.528,0,0,1,1.208-5.572,12.33,12.33,0,0,1,2.44-3.944,6.355,6.355,0,0,1,3.082-1.874,3.738,3.738,0,0,1,3.131.641,4.866,4.866,0,0,0,3.4.937,3.843,3.843,0,0,0,2.81-1.627,3.956,3.956,0,0,0,.715-1.8,4.132,4.132,0,0,0-.172-1.849,4.54,4.54,0,0,0-.937-1.6,3.48,3.48,0,0,0-1.627-1.011,8.448,8.448,0,0,0-4.364-.222,10.475,10.475,0,0,0-3.921,1.8,15.033,15.033,0,0,0-3.3,3.377,21.432,21.432,0,0,0-2.466,4.463V441.45q-.838.3-2.046.592t-2.54.567q-1.332.272-2.687.444a19.449,19.449,0,0,1-2.441.172.516.516,0,0,0-.419.222.816.816,0,0,0-.172.518,1.517,1.517,0,0,0,.123.592.673.673,0,0,0,.469.395,1.42,1.42,0,0,1,.69.641,3.072,3.072,0,0,1,.395,1.085v15.779A3.105,3.105,0,0,1,1321.513,464.084Z" transform="translate(-15.07 -0.996)" fill="#fff"/>
    <path id="Path_8" data-name="Path 8" d="M1355.183,464.009l.046-12.444v-4.586c0-.065-.066-.1-.2-.1a.4.4,0,0,0-.3.1,5.658,5.658,0,0,1-1.973,1.332,6.707,6.707,0,0,1-2.1.444,9.224,9.224,0,0,1-2.12-.148,19.56,19.56,0,0,1-2.046-.493.782.782,0,0,0-1.085.493q-.3.739.592,2.219a5.138,5.138,0,0,1,.542,1.973v11.009a7.96,7.96,0,0,0,.888,3.7,8.741,8.741,0,0,0,2.391,2.91,10.1,10.1,0,0,0,3.427,1.75,9.321,9.321,0,0,0,3.994.272,4.7,4.7,0,0,0,3.4-2.071v1.627a32.91,32.91,0,0,1-.444,6.46q-.443,1.971-1.43,1.972a1.071,1.071,0,0,1-.863-.32,2.23,2.23,0,0,1-.419-.839q-.148-.518-.3-1.159a6.6,6.6,0,0,0-.443-1.282,3.629,3.629,0,0,0-1.529-1.676,4.055,4.055,0,0,0-1.973-.543,4.139,4.139,0,0,0-1.676.345,3.112,3.112,0,0,0-1.282,1.012,3.341,3.341,0,0,0-.616,1.578,4.078,4.078,0,0,0,.37,2.1,4.282,4.282,0,0,0,2.761,2.391,15.79,15.79,0,0,0,5.769.518,13.189,13.189,0,0,0,3.254-.591,10.015,10.015,0,0,0,3.5-1.924,10.766,10.766,0,0,0,2.811-3.771,14.655,14.655,0,0,0,1.134-6.238l.049-25.607-1.578.444q-.888.2-1.973.394t-2.194.345q-1.11.148-2.145.246c-.691.067-1.332.1-1.923.1a.516.516,0,0,0-.419.222.815.815,0,0,0-.172.518,1.527,1.527,0,0,0,.123.592.672.672,0,0,0,.469.395,1.537,1.537,0,0,1,.839,1.011,4.679,4.679,0,0,1,.3,1.6V464.99a8.148,8.148,0,0,1-.814,3.033,2.635,2.635,0,0,1-2.1,1.5,1.756,1.756,0,0,1-1.5-.32,2.762,2.762,0,0,1-.765-1.282,7.08,7.08,0,0,1-.271-1.9C1355.19,465.369,1355.184,464.694,1355.183,464.009Z" transform="translate(-23.07 -3.714)" fill="#fff"/>
    <path id="Path_9" data-name="Path 9" d="M1385.105,475.414q-.3.148-.74.394a.92.92,0,0,0-.493.469,1.857,1.857,0,0,0-.172.642,1.054,1.054,0,0,0,.1.567.366.366,0,0,0,.321.246h11.44a.35.35,0,0,0,.345-.246,1.269,1.269,0,0,0,.075-.567,1.889,1.889,0,0,0-.173-.642.923.923,0,0,0-.493-.469,4.47,4.47,0,0,1-.863-.492q-.322-.247-.321-1.381v-7.742a4.9,4.9,0,0,0,4.832,3.5,10.351,10.351,0,0,0,8.136-3.254q2.909-3.255,3.057-9.221v-.592q-.148-5.966-3.057-9.27a10.274,10.274,0,0,0-8.136-3.3,4.638,4.638,0,0,0-3.254,1.085,5.422,5.422,0,0,0-1.578,3.008v-4.093q-.691.2-1.9.493t-2.563.592q-1.357.3-2.762.493a18.065,18.065,0,0,1-2.49.2.514.514,0,0,0-.419.222.817.817,0,0,0-.173.518,1.53,1.53,0,0,0,.123.592.673.673,0,0,0,.469.395,1.422,1.422,0,0,1,.691.641,3.073,3.073,0,0,1,.394,1.085v25.4A.94.94,0,0,1,1385.105,475.414Zm9.024-23.669q1.084-3.8,3.846-3.8,1.627,0,2.565,2.367a19.191,19.191,0,0,1,.986,6.608,18.784,18.784,0,0,1-.986,6.534q-.938,2.342-2.565,2.342a3.17,3.17,0,0,1-2.663-1.208,7.426,7.426,0,0,1-1.183-3.821Z" transform="translate(-35.191 -3.6)" fill="#fff"/>
    <path id="Path_10" data-name="Path 10" d="M1443.721,457.086a13.177,13.177,0,0,0,.961,5.055,12.486,12.486,0,0,0,2.663,4.068,12.115,12.115,0,0,0,3.994,2.687,13.375,13.375,0,0,0,9.96,0,11.854,11.854,0,0,0,3.97-2.687,12.682,12.682,0,0,0,2.638-4.068,13.166,13.166,0,0,0,.962-5.055,12.99,12.99,0,0,0-.962-5.03,12.464,12.464,0,0,0-2.638-4.018,12.059,12.059,0,0,0-3.97-2.663,13.384,13.384,0,0,0-9.96,0,12.187,12.187,0,0,0-6.658,6.682A13,13,0,0,0,1443.721,457.086Zm8.457-6.533q.418-3.082,2.1-3.378,1.823-.345,3.328,1.849a17.663,17.663,0,0,1,2.343,6.484,25.135,25.135,0,0,1,.716,8.284q-.421,3.058-2.244,3.353-1.974.346-3.477-1.849a17.048,17.048,0,0,1-2.293-6.435A28.877,28.877,0,0,1,1452.178,450.552Z" transform="translate(-54.161 -3.714)" fill="#fff"/>
    <path id="Path_11" data-name="Path 11" d="M1421.2,444.7h3.107v15.631a6.489,6.489,0,0,0,2.022,5.078q2.021,1.825,6.115,1.825a8.048,8.048,0,0,0,1.9-.247,11.946,11.946,0,0,0,1.923-.641,5.837,5.837,0,0,0,1.577-.986,2.416,2.416,0,0,0,.814-1.233q.148-.74-.395-.986-.592-.246-1.183.444a2.372,2.372,0,0,1-2.515.592,2.324,2.324,0,0,1-1.134-.665,2.114,2.114,0,0,1-.444-1.036,7.754,7.754,0,0,1-.074-1.455q.025-.838.025-1.874V444.7h3.7a.666.666,0,0,0,.641-.4,1.982,1.982,0,0,0,0-1.726.667.667,0,0,0-.641-.395h-3.7v-5.276a.633.633,0,0,0-.395-.592,1.882,1.882,0,0,0-1.676,0,.632.632,0,0,0-.395.592,4.4,4.4,0,0,1-2.1,3.9q-2.1,1.381-6.583,1.38h-.592a.668.668,0,0,0-.641.395,1.989,1.989,0,0,0,0,1.726A.666.666,0,0,0,1421.2,444.7Z" transform="translate(-46.779 -1.094)" fill="#fff"/>
    <path id="Path_12" data-name="Path 12" d="M1301.413,561.137a13.19,13.19,0,0,0-2.786-2.786,14.581,14.581,0,0,0-3.9-2.046,14.8,14.8,0,0,0-4.981-.789,18.367,18.367,0,0,0-6.928,1.282,17.1,17.1,0,0,0-5.5,3.5,16.344,16.344,0,0,0-3.649,5.2,15.487,15.487,0,0,0-1.332,6.385,18.635,18.635,0,0,0,1.307,7.1,15.732,15.732,0,0,0,9.122,8.975,18.9,18.9,0,0,0,6.879,1.233,14.937,14.937,0,0,0,7.175-1.873,17.455,17.455,0,0,0,6.04-5.573.8.8,0,0,0,.222-.739.971.971,0,0,0-.468-.69,1.29,1.29,0,0,0-.765-.247.844.844,0,0,0-.616.2,5.658,5.658,0,0,1-1.258,1.085,10.739,10.739,0,0,1-1.9.986,13.677,13.677,0,0,1-2.367.715,12.336,12.336,0,0,1-2.564.271,8.783,8.783,0,0,1-4.537-1.159,11.566,11.566,0,0,1-3.378-3.007,15.187,15.187,0,0,1-2.219-4.143,18.392,18.392,0,0,1-1.011-4.61,17.366,17.366,0,0,1,.222-5.03,12.389,12.389,0,0,1,1.5-4.018,7.976,7.976,0,0,1,2.564-2.663,6.346,6.346,0,0,1,3.452-.962,6.739,6.739,0,0,1,2.811.468,3.043,3.043,0,0,1,1.405,1.209,2.966,2.966,0,0,1,.37,1.652,10.541,10.541,0,0,1-.271,1.849q-.222.938-.493,1.776a6.516,6.516,0,0,0-.32,1.43,4.359,4.359,0,0,0,.222,1.923,3.872,3.872,0,0,0,.962,1.5,4.808,4.808,0,0,0,1.553.986,5.272,5.272,0,0,0,2,.37,6.112,6.112,0,0,0,1.578-.2,4.693,4.693,0,0,0,1.825-.987,5.758,5.758,0,0,0,1.282-1.6,5.439,5.439,0,0,0,.616-1.973,4.547,4.547,0,0,0-.222-2.046A12.91,12.91,0,0,0,1301.413,561.137Z" transform="translate(0 -38.826)" fill="#fff"/>
    <path id="Path_13" data-name="Path 13" d="M1330.826,586.657a1.986,1.986,0,0,1-.863-.739,3.1,3.1,0,0,1-.321-1.628V555.443l-.69.2q-.887.248-2.022.493t-2.366.419q-1.233.173-2.441.3a21.842,21.842,0,0,1-2.195.123.515.515,0,0,0-.418.222.817.817,0,0,0-.172.518,1.514,1.514,0,0,0,.123.592.672.672,0,0,0,.468.395,1.6,1.6,0,0,1,.863,1.011,4.36,4.36,0,0,1,.321,1.6V584.29a3.105,3.105,0,0,1-.321,1.628,1.992,1.992,0,0,1-.863.739.743.743,0,0,0-.443.419,1.857,1.857,0,0,0-.173.641,1.4,1.4,0,0,0,.074.592c.066.181.165.272.3.272h11.391a.316.316,0,0,0,.321-.272,1.751,1.751,0,0,0,.049-.592,1.87,1.87,0,0,0-.173-.641A.742.742,0,0,0,1330.826,586.657Z" transform="translate(-14.842 -38.803)" fill="#fff"/>
    <path id="Path_14" data-name="Path 14" d="M1364.6,590.247c-.231-.065-.477-.148-.739-.247a2.067,2.067,0,0,1-.74-.493,2.587,2.587,0,0,1-.567-.936,4.427,4.427,0,0,1-.222-1.529v.1l-.05-2.12V567.268h-.049a18.341,18.341,0,0,1-2.047.567q-1.208.271-2.564.492t-2.712.345q-1.356.123-2.44.123a.513.513,0,0,0-.419.222.815.815,0,0,0-.172.518,1.518,1.518,0,0,0,.123.592.67.67,0,0,0,.468.394,1.609,1.609,0,0,1,.863,1.012,4.357,4.357,0,0,1,.321,1.6v11a9.22,9.22,0,0,1-.172,1.8,5.776,5.776,0,0,1-.519,1.528,3.25,3.25,0,0,1-.838,1.061,1.764,1.764,0,0,1-1.134.394,2.423,2.423,0,0,1-2.047-1.159,6.276,6.276,0,0,1-.814-3.575l.049-16.913-1.183.345q-.888.247-2,.469t-2.243.37q-1.135.148-2.244.246t-2.046.1a.513.513,0,0,0-.419.222.816.816,0,0,0-.173.518,1.521,1.521,0,0,0,.124.592.67.67,0,0,0,.469.394,1.03,1.03,0,0,1,.641.542,4.465,4.465,0,0,1,.395.987v12.13a9.224,9.224,0,0,0,.789,3.921,7.684,7.684,0,0,0,2.169,2.81,8.081,8.081,0,0,0,3.329,1.553,11.921,11.921,0,0,0,4.216.148,4.931,4.931,0,0,0,4.093-3.353,3.849,3.849,0,0,0,1.109,1.578,5.663,5.663,0,0,0,1.627.937,7.474,7.474,0,0,0,1.948.444q1.035.1,2.12.1a12.562,12.562,0,0,0,2.589-.2,2.558,2.558,0,0,0,1.257-.592.928.928,0,0,0,.272-.739A.531.531,0,0,0,1364.6,590.247Z" transform="translate(-20.711 -42.54)" fill="#fff"/>
    <path id="Path_15" data-name="Path 15" d="M1388.2,563.4a5.7,5.7,0,0,0-3.205.765,4.722,4.722,0,0,0-1.726,2.243V555.363a7.572,7.572,0,0,1-1.726,1.109,11.952,11.952,0,0,1-2.12.764,17.814,17.814,0,0,1-2.367.444,20.3,20.3,0,0,1-2.416.148,11.444,11.444,0,0,1-3.23-.518q-1.749-.518-3.575-1.036a32.408,32.408,0,0,0-3.649-.813,8.083,8.083,0,0,0-3.451.148,4.975,4.975,0,0,0-1.627.739,4.288,4.288,0,0,0-1.086,1.085,3.392,3.392,0,0,0-.518,1.209,2.331,2.331,0,0,0,.075,1.208,2.537,2.537,0,0,0,.69,1.109,3.31,3.31,0,0,0,1.183.715,4.147,4.147,0,0,0,1.529.222,4.575,4.575,0,0,0,1.726-.419,23.021,23.021,0,0,1,4.438-1.529,16.467,16.467,0,0,1,3.822-.468,5.232,5.232,0,0,1,2.663.641,2.028,2.028,0,0,1,1.011,1.849v19.281l-.05,2.12v-.1a4.432,4.432,0,0,1-.222,1.529,2.6,2.6,0,0,1-.567.936,2.082,2.082,0,0,1-.74.493c-.264.1-.51.182-.74.247a.53.53,0,0,0-.419.542.923.923,0,0,0,.272.739,2.552,2.552,0,0,0,1.257.592,12.549,12.549,0,0,0,2.589.2,20.034,20.034,0,0,0,2.638-.172,6.342,6.342,0,0,0,2.343-.765,4.342,4.342,0,0,0,1.652-1.7,6.034,6.034,0,0,0,.616-2.934v1.43a13.91,13.91,0,0,0,.395,1.948,3.727,3.727,0,0,0,.765,1.455,3.324,3.324,0,0,0,1.4.912,7.171,7.171,0,0,0,2.367.32,10.271,10.271,0,0,0,8.136-3.3q2.91-3.3,3.058-9.27v-.592q-.149-5.965-3.058-9.221A10.348,10.348,0,0,0,1388.2,563.4Zm1.578,19.626q-.938,2.122-2.564,2.12a3.368,3.368,0,0,1-2.244-.863,6.757,6.757,0,0,1-1.7-3.279v-6.459q0-3.9,1.036-5.572a3.248,3.248,0,0,1,2.91-1.678q1.627,0,2.564,2.121a18.389,18.389,0,0,1,.986,6.755A18.743,18.743,0,0,1,1389.776,583.026Z" transform="translate(-26.898 -38.772)" fill="#fff"/>
    <path id="Path_16" data-name="Path 16" d="M1433.59,596.282a.4.4,0,0,0-.118.016.114.114,0,0,0-.075.069,2.294,2.294,0,0,1-.139.278,2.6,2.6,0,0,1-.315.443,2.53,2.53,0,0,1-.464.417,1,1,0,0,1-.588.187h-1.026v-2.672h.1a1.118,1.118,0,0,1,.577.133,1.232,1.232,0,0,1,.358.31,1.325,1.325,0,0,1,.192.336.8.8,0,0,1,.059.224.122.122,0,0,0,.07.1.319.319,0,0,0,.133.027.369.369,0,0,0,.123-.021c.039-.014.059-.032.059-.053a1.808,1.808,0,0,0,.006-.257c0-.121-.008-.252-.011-.391s-.009-.272-.016-.4-.011-.224-.011-.289,0-.146.005-.267.009-.249.016-.385.011-.265.011-.39,0-.219-.011-.283c0-.021-.018-.04-.053-.053a.342.342,0,0,0-.128-.021.283.283,0,0,0-.123.027.122.122,0,0,0-.07.1.79.79,0,0,1-.059.224,1.313,1.313,0,0,1-.192.337,1.233,1.233,0,0,1-.358.31,1.125,1.125,0,0,1-.577.133h-.1v-2.715h.706a1.072,1.072,0,0,1,.6.187,2.9,2.9,0,0,1,.5.417,2.839,2.839,0,0,1,.352.443,1.775,1.775,0,0,1,.155.278.113.113,0,0,0,.075.069.4.4,0,0,0,.118.016.417.417,0,0,0,.144-.022c.039-.014.055-.035.048-.064-.007-.051-.014-.155-.021-.315s-.016-.337-.027-.529-.021-.382-.032-.572-.02-.336-.026-.443c0-.043-.025-.064-.075-.064a1.32,1.32,0,0,0-.22.027,2.415,2.415,0,0,1-.422.027h-4.488c-.029,0-.052.021-.07.064a.356.356,0,0,0-.027.139.3.3,0,0,0,.038.144.121.121,0,0,0,.112.07.351.351,0,0,1,.144.037.573.573,0,0,1,.15.1.669.669,0,0,1,.123.155.422.422,0,0,1,.053.22v5.161a.422.422,0,0,1-.053.22.67.67,0,0,1-.123.155.572.572,0,0,1-.15.1.351.351,0,0,1-.144.037.121.121,0,0,0-.112.07.3.3,0,0,0-.038.144.356.356,0,0,0,.027.139c.018.043.041.064.07.064h4.7a2.5,2.5,0,0,1,.422.027,1.32,1.32,0,0,0,.219.027c.05,0,.075-.021.075-.064q.01-.16.027-.443c.01-.189.021-.38.032-.572s.019-.369.027-.529.014-.265.021-.315q.01-.043-.048-.064A.425.425,0,0,0,1433.59,596.282Z" transform="translate(-49.243 -50.092)" fill="#fff"/>
    <path id="Path_17" data-name="Path 17" d="M1441.849,594.716a3.013,3.013,0,0,0-.834-.609,4.391,4.391,0,0,0-1.165-.385,2.583,2.583,0,0,1-.973-.374.991.991,0,0,1-.449-.609,1.145,1.145,0,0,1,.01-.471.859.859,0,0,1,.192-.369.978.978,0,0,1,.358-.246,1.251,1.251,0,0,1,.486-.091.747.747,0,0,1,.635.31,2.208,2.208,0,0,1,.348.866.567.567,0,0,0,.347.384,1.264,1.264,0,0,0,.689.1.9.9,0,0,0,.5-.214.418.418,0,0,0,.155-.384,1.494,1.494,0,0,0-.294-.652,2.159,2.159,0,0,0-.582-.518,3.111,3.111,0,0,0-.812-.347,3.638,3.638,0,0,0-.983-.128,3.5,3.5,0,0,0-1.01.139,2.6,2.6,0,0,0-.812.4,1.985,1.985,0,0,0-.55.609,1.693,1.693,0,0,0-.224.77,2.461,2.461,0,0,0,.684,1.892,3.9,3.9,0,0,0,2.073,1.026,2.586,2.586,0,0,1,.925.374.669.669,0,0,1,.326.545.764.764,0,0,1-.1.369,1.063,1.063,0,0,1-.257.31,1.4,1.4,0,0,1-.369.219,1.137,1.137,0,0,1-.433.086,1.262,1.262,0,0,1-.406-.069,1,1,0,0,1-.363-.22,1.239,1.239,0,0,1-.273-.39,1.8,1.8,0,0,1-.144-.593.518.518,0,0,0-.358-.443,1.213,1.213,0,0,0-.775-.016.634.634,0,0,0-.406.3.619.619,0,0,0-.053.491,1.915,1.915,0,0,0,.962,1.16,3.854,3.854,0,0,0,1.817.379,3.4,3.4,0,0,0,1-.144,2.986,2.986,0,0,0,.833-.4,2.175,2.175,0,0,0,.588-.593,1.665,1.665,0,0,0,.267-.748,2.083,2.083,0,0,0-.1-.919A2.184,2.184,0,0,0,1441.849,594.716Z" transform="translate(-51.997 -50.033)" fill="#fff"/>
    <path id="Path_18" data-name="Path 18" d="M1451.339,592.229c-.011-.193-.021-.383-.032-.572s-.02-.337-.026-.444c0-.036-.012-.055-.038-.059a.468.468,0,0,0-.118.005l-.214.027a2.954,2.954,0,0,1-.347.016h-4.628a2.992,2.992,0,0,1-.342-.016c-.092-.01-.166-.019-.219-.027a.468.468,0,0,0-.118-.005c-.025,0-.037.023-.037.059-.008.107-.014.254-.022.444s-.016.379-.027.572-.021.369-.032.529-.019.265-.027.315c0,.021.016.041.049.059a.236.236,0,0,0,.117.027.443.443,0,0,0,.134-.021.139.139,0,0,0,.085-.064c.014-.043.053-.135.118-.278a2.553,2.553,0,0,1,.261-.444,2.206,2.206,0,0,1,.4-.417.8.8,0,0,1,.518-.187h.5v5.665a.453.453,0,0,1-.2.293.62.62,0,0,1-.262.112.122.122,0,0,0-.112.07.3.3,0,0,0-.037.144.356.356,0,0,0,.027.139c.018.043.041.064.07.064h3.131c.036,0,.06-.021.075-.064a.434.434,0,0,0,.022-.139.3.3,0,0,0-.038-.144.122.122,0,0,0-.112-.07.348.348,0,0,1-.144-.037.573.573,0,0,1-.15-.1.673.673,0,0,1-.123-.155.428.428,0,0,1-.053-.22v-5.557h.321a.8.8,0,0,1,.519.187,2.229,2.229,0,0,1,.4.417,2.552,2.552,0,0,1,.262.444c.064.142.1.234.118.278a.137.137,0,0,0,.086.064.433.433,0,0,0,.133.021.239.239,0,0,0,.118-.027c.032-.018.048-.038.048-.059-.007-.05-.014-.155-.021-.315S1451.35,592.421,1451.339,592.229Z" transform="translate(-54.601 -50.088)" fill="#fff"/>
    <path id="Path_19" data-name="Path 19" d="M1455.758,599.913a.8.8,0,0,0-.524.176.562.562,0,0,0-.213.454.571.571,0,0,0,.213.443.766.766,0,0,0,.524.188.812.812,0,0,0,.534-.176.59.59,0,0,0,0-.908A.813.813,0,0,0,1455.758,599.913Z" transform="translate(-57.732 -52.857)" fill="#fff"/>
    <path id="Path_20" data-name="Path 20" d="M1467.118,591.865a2.416,2.416,0,0,0-.871-.614,3.024,3.024,0,0,0-1.3-.214,3.937,3.937,0,0,0-1.127.192,1.776,1.776,0,0,0-.8.5,1.64,1.64,0,0,0-.358.572,1.083,1.083,0,0,0-.059.54.721.721,0,0,0,.23.417.968.968,0,0,0,.508.224.937.937,0,0,0,.716-.155.979.979,0,0,0,.4-.625,1.463,1.463,0,0,0,.005-.417,2.432,2.432,0,0,1-.016-.417.524.524,0,0,1,.112-.315.49.49,0,0,1,.39-.123,1.093,1.093,0,0,1,.775.283,1.308,1.308,0,0,1,.4.674,1.4,1.4,0,0,1-.064.812,1.426,1.426,0,0,1-.614.711,13.018,13.018,0,0,0-1.208.845,5.583,5.583,0,0,0-.887.871,3.406,3.406,0,0,0-.55.967,3.262,3.262,0,0,0-.187,1.122v.481h.118v-.011l4.008.011a3.134,3.134,0,0,1,.347.016l.219.027a.476.476,0,0,0,.118.006c.021,0,.031-.023.031-.059q.021-.973.054-1.448t.053-.625a.077.077,0,0,0-.032-.059.122.122,0,0,0-.08-.027.317.317,0,0,0-.1.016.114.114,0,0,0-.07.07q-.022.064-.064.176a1.14,1.14,0,0,1-.118.224.785.785,0,0,1-.192.2.462.462,0,0,1-.278.086h-3.217q.01-.257.359-.438a5.414,5.414,0,0,1,.828-.336q.48-.155.983-.3a3.631,3.631,0,0,0,.823-.342,2.574,2.574,0,0,0,.8-.754,2.449,2.449,0,0,0,.39-.93,2.262,2.262,0,0,0-.027-.967A2.014,2.014,0,0,0,1467.118,591.865Z" transform="translate(-60.126 -50.051)" fill="#fff"/>
    <path id="Path_21" data-name="Path 21" d="M1475.277,592.005a2.585,2.585,0,0,0-.925-.722,2.71,2.71,0,0,0-1.144-.245,2.745,2.745,0,0,0-1.149.245,2.614,2.614,0,0,0-.935.722,3.6,3.6,0,0,0-.626,1.154,5.317,5.317,0,0,0,0,3.088,3.527,3.527,0,0,0,.626,1.149,2.637,2.637,0,0,0,.935.716,2.745,2.745,0,0,0,1.149.246,2.71,2.71,0,0,0,1.144-.246,2.608,2.608,0,0,0,.925-.716,3.582,3.582,0,0,0,.62-1.149,5.3,5.3,0,0,0,0-3.088A3.654,3.654,0,0,0,1475.277,592.005Zm-.893,4.894q-.16.894-.684.946a.8.8,0,0,1-.54-.16,1.674,1.674,0,0,1-.46-.556,4.32,4.32,0,0,1-.363-.919,9.232,9.232,0,0,1-.251-1.24,11.866,11.866,0,0,1-.118-1.4,5.555,5.555,0,0,1,.069-1.063,1.76,1.76,0,0,1,.252-.689.6.6,0,0,1,.427-.278c.356-.035.673.2.951.711a6.927,6.927,0,0,1,.642,2.174A8.073,8.073,0,0,1,1474.385,596.9Z" transform="translate(-62.551 -50.052)" fill="#fff"/>
    <path id="Path_22" data-name="Path 22" d="M1483.993,591.865a2.415,2.415,0,0,0-.871-.614,3.024,3.024,0,0,0-1.3-.214,3.938,3.938,0,0,0-1.127.192,1.777,1.777,0,0,0-.8.5,1.642,1.642,0,0,0-.358.572,1.086,1.086,0,0,0-.059.54.721.721,0,0,0,.23.417.968.968,0,0,0,.508.224.937.937,0,0,0,.716-.155.979.979,0,0,0,.4-.625,1.463,1.463,0,0,0,.005-.417,2.433,2.433,0,0,1-.016-.417.524.524,0,0,1,.112-.315.49.49,0,0,1,.39-.123,1.093,1.093,0,0,1,.775.283,1.307,1.307,0,0,1,.4.674,1.4,1.4,0,0,1-.064.812,1.425,1.425,0,0,1-.614.711,12.988,12.988,0,0,0-1.208.845,5.583,5.583,0,0,0-.887.871,3.406,3.406,0,0,0-.55.967,3.264,3.264,0,0,0-.187,1.122v.481h.118v-.011l4.008.011a3.134,3.134,0,0,1,.347.016l.219.027a.476.476,0,0,0,.118.006c.021,0,.031-.023.031-.059q.021-.973.054-1.448t.053-.625a.077.077,0,0,0-.032-.059.122.122,0,0,0-.08-.027.316.316,0,0,0-.1.016.114.114,0,0,0-.07.07q-.021.064-.064.176a1.146,1.146,0,0,1-.118.224.787.787,0,0,1-.192.2.462.462,0,0,1-.278.086h-3.217q.01-.257.359-.438a5.414,5.414,0,0,1,.828-.336q.48-.155.983-.3a3.635,3.635,0,0,0,.823-.342,2.576,2.576,0,0,0,.8-.754,2.447,2.447,0,0,0,.39-.93,2.262,2.262,0,0,0-.027-.967A2.015,2.015,0,0,0,1483.993,591.865Z" transform="translate(-65.459 -50.051)" fill="#fff"/>
    <path id="Path_23" data-name="Path 23" d="M1489.768,598.059a.43.43,0,0,1-.187-.16.673.673,0,0,1-.069-.353v-6.306h-.085l-1.806.385a.124.124,0,0,0-.112.144.345.345,0,0,0,.112.23.756.756,0,0,1,.177.272,1.158,1.158,0,0,1,.059.4v4.873a.675.675,0,0,1-.07.353.435.435,0,0,1-.187.16c-.079.036-.123.078-.134.128s.016.075.081.075h2.276c.064,0,.09-.025.08-.075S1489.845,598.095,1489.768,598.059Z" transform="translate(-67.984 -50.116)" fill="#fff"/>
  </g>
</svg>
