<svg xmlns="http://www.w3.org/2000/svg" width="321.715" height="253.174" viewBox="0 0 321.715 253.174">
  <g id="Logo" transform="translate(-1272.344 -432.661)">
    <path id="Path_1" data-name="Path 1" d="M1381.63,513.351a11.044,11.044,0,0,0-8.485,5.621l-.019-.012.033-5.583a10.882,10.882,0,0,1,1.147-4.169q1.876-3.129,1.25-4.691a1.653,1.653,0,0,0-2.293-1.043,40.7,40.7,0,0,1-4.325,1.043,19.489,19.489,0,0,1-4.483.313,14.186,14.186,0,0,1-4.429-.939,11.969,11.969,0,0,1-4.171-2.814.849.849,0,0,0-.625-.209c-.276,0-.416.071-.416.209v7.69c0,.009-.018.012-.018.023v49.424a6.67,6.67,0,0,1-.688,3.5,4.29,4.29,0,0,1-1.856,1.593,1.592,1.592,0,0,0-.953.9,4,4,0,0,0-.372,1.378,2.965,2.965,0,0,0,.159,1.274q.212.583.637.583h24.5a.679.679,0,0,0,.688-.583,3.735,3.735,0,0,0,.106-1.274,3.99,3.99,0,0,0-.371-1.378,1.59,1.59,0,0,0-.955-.9,4.281,4.281,0,0,1-1.856-1.593,6.657,6.657,0,0,1-.688-3.5v-26.2a17.336,17.336,0,0,1,1.379-7.319,5.018,5.018,0,0,1,4.985-2.97q4.771,0,5.409,7.637v26.092a12.954,12.954,0,0,0,1.325,6.311,9.318,9.318,0,0,0,3.553,3.659,13.624,13.624,0,0,0,5.037,1.643,43.092,43.092,0,0,0,5.676.372,26.893,26.893,0,0,0,5.567-.425,5.515,5.515,0,0,0,2.705-1.271,2,2,0,0,0,.584-1.592,1.14,1.14,0,0,0-.9-1.167q-.744-.212-1.592-.531a4.45,4.45,0,0,1-1.59-1.059,5.544,5.544,0,0,1-1.22-2.015,9.5,9.5,0,0,1-.477-3.289V531.913a20.868,20.868,0,0,0-1.645-8.432,16.859,16.859,0,0,0-4.614-6.258,17.8,17.8,0,0,0-7-3.553A20.981,20.981,0,0,0,1381.63,513.351Z" transform="translate(37.016 32.134)" fill="#fff"/>
    <path id="Path_2" data-name="Path 2" d="M1454.794,585.544a21.05,21.05,0,0,0,7-2.864,9.336,9.336,0,0,0,3.076-3.023,10.356,10.356,0,0,0,1.38-3.5,8.484,8.484,0,0,0-.054-3.394,6.685,6.685,0,0,0-1.325-2.811,8.265,8.265,0,0,0-3.978-2.547,10.2,10.2,0,0,0-5.249-.318,9.367,9.367,0,0,0-4.827,2.7,10.533,10.533,0,0,0-2.7,6.311q-.638,4.561-1.962,4.986t-2.651-2.015a28.747,28.747,0,0,1-2.386-7.211,48.405,48.405,0,0,1-1.062-10.5v-31.5q0-9.65-6.416-15.007t-17.979-5.356a30.525,30.525,0,0,0-9.7,1.537,21.6,21.6,0,0,0-7.69,4.3,13.633,13.633,0,0,0-2.864,3.448,11.351,11.351,0,0,0-1.378,3.659,7.527,7.527,0,0,0,.159,3.447,5.135,5.135,0,0,0,1.856,2.7,7.587,7.587,0,0,0,3.076,1.325,10.622,10.622,0,0,0,3.5.16,7.236,7.236,0,0,0,2.97-1.008,3.091,3.091,0,0,0,1.484-2.28q.318-2.015.637-4.19a14.008,14.008,0,0,1,1.167-3.978,7.678,7.678,0,0,1,2.439-2.969,7.205,7.205,0,0,1,4.347-1.167,4.8,4.8,0,0,1,4.3,2.492,13.231,13.231,0,0,1,1.539,6.947v5.515a72.821,72.821,0,0,0-10.181,1.379,34.5,34.5,0,0,0-7.637,2.546,22.351,22.351,0,0,0-5.78,3.976,28.13,28.13,0,0,0-4.508,5.674,12.379,12.379,0,0,0-1.751,4.827,15.666,15.666,0,0,0,.106,5.143,13.841,13.841,0,0,0,1.857,4.774,11.326,11.326,0,0,0,3.5,3.606,13.4,13.4,0,0,0,3.5,1.749,20.608,20.608,0,0,0,4.243.956,20.973,20.973,0,0,0,4.455.053,13.262,13.262,0,0,0,4.137-1.062,11.679,11.679,0,0,0,5.3-4.772,18.131,18.131,0,0,0,2.758-7.106V560.2a28.127,28.127,0,0,0,2.174,11.613,22.843,22.843,0,0,0,13.576,12.622,32.741,32.741,0,0,0,8.909,1.8A30.383,30.383,0,0,0,1454.794,585.544Zm-33.3-42.106a14.568,14.568,0,0,1-2.28,6.416,9.772,9.772,0,0,1-4.508,3.872q-2.864,1.061-4.084-.531a6.087,6.087,0,0,1-1.22-3.818,15.777,15.777,0,0,1,1.008-5.568,16.542,16.542,0,0,1,2.7-4.772,14.362,14.362,0,0,1,3.872-3.341,8.8,8.8,0,0,1,4.507-1.274Z" transform="translate(56.123 36.199)" fill="#fff"/>
    <path id="Path_3" data-name="Path 3" d="M1430.959,563.22a4.285,4.285,0,0,1-1.855,1.593,1.589,1.589,0,0,0-.955.9,4,4,0,0,0-.371,1.379,2.967,2.967,0,0,0,.159,1.274c.14.388.353.583.635.583h24.5a.679.679,0,0,0,.69-.583,3.732,3.732,0,0,0,.106-1.274,4.062,4.062,0,0,0-.371-1.379,1.6,1.6,0,0,0-.955-.9,4.272,4.272,0,0,1-1.856-1.593,6.654,6.654,0,0,1-.688-3.5V497.674l-1.486.425q-1.909.532-4.349,1.061t-5.09.9q-2.652.373-5.25.636a46.545,46.545,0,0,1-4.719.266,1.108,1.108,0,0,0-.9.477,1.757,1.757,0,0,0-.371,1.114,3.267,3.267,0,0,0,.265,1.273,1.443,1.443,0,0,0,1.008.849,3.45,3.45,0,0,1,1.855,2.174,9.377,9.377,0,0,1,.69,3.447V559.72A6.669,6.669,0,0,1,1430.959,563.22Z" transform="translate(73.223 30.629)" fill="#fff"/>
    <path id="Path_4" data-name="Path 4" d="M1479.689,563.763a27.4,27.4,0,0,0,5.886-1.962,28.316,28.316,0,0,0,5.462-3.341,21.446,21.446,0,0,0,4.509-4.772,1.942,1.942,0,0,0,.477-1.539,1.917,1.917,0,0,0-.8-1.537,2.429,2.429,0,0,0-1.38-.53,3.005,3.005,0,0,0-1.8.742q-3.606,2.97-9.758,2.97a29.364,29.364,0,0,1-3.023-.159,22.988,22.988,0,0,1-3.234-.584,9.881,9.881,0,0,1-3.925-2.014,14.093,14.093,0,0,1-3.129-3.713,19.3,19.3,0,0,1-2.067-5.09,23.531,23.531,0,0,1-.743-5.94v-4.349l26.3-.212a3.774,3.774,0,0,0,2.651-.8,4.125,4.125,0,0,0,1.165-1.855,7.135,7.135,0,0,0,.319-2.068v-1.326a14.524,14.524,0,0,0-2.174-6.47,18.311,18.311,0,0,0-4.984-5.2,24.4,24.4,0,0,0-7.212-3.447,30.488,30.488,0,0,0-8.752-1.22,24.325,24.325,0,0,0-9.97,2.068,26.5,26.5,0,0,0-8.219,5.674,28.238,28.238,0,0,0-5.727,8.537,30.39,30.39,0,0,0-2.494,10.66,28.638,28.638,0,0,0,1.539,11.3,24.737,24.737,0,0,0,5.409,8.856,25.149,25.149,0,0,0,8.644,5.834,28.952,28.952,0,0,0,11.242,2.12A28.006,28.006,0,0,0,1479.689,563.763ZM1468.658,518.1a5.158,5.158,0,0,1,4.825-2.705,3.9,3.9,0,0,1,3.288,1.751,7.474,7.474,0,0,1,1.273,4.507,3.174,3.174,0,0,1-1.856,3.182,12.193,12.193,0,0,1-3.659,1.061l-5.939.106A20.6,20.6,0,0,1,1468.658,518.1Z" transform="translate(82.297 36.132)" fill="#fff"/>
    <path id="Path_5" data-name="Path 5" d="M1352.621,563.693a22.63,22.63,0,0,0,.955,2.28,10.347,10.347,0,0,0,1.432,2.227,2.463,2.463,0,0,0,1.909,1.008h2.651l.531-1.484,19.3-48.045a27.749,27.749,0,0,1,2.229-4.19q1.271-1.962,2.386-3.713a29.752,29.752,0,0,0,1.855-3.339,5.162,5.162,0,0,0,.531-2.97,7.72,7.72,0,0,0-3.182-6.523q-3.078-2.174-8.485-1.751-4.561.426-6.788,3.076a8.776,8.776,0,0,0-1.7,7,9.252,9.252,0,0,0,1.433,4.241q1.114,1.591,2.068,3.076a9.621,9.621,0,0,1,1.326,3.341,9.851,9.851,0,0,1-.8,5.037l-5.409,15.061-9.756-31.182a1.7,1.7,0,0,1,.847-1.431,7.853,7.853,0,0,1,1.962-.955,17.567,17.567,0,0,1,2.227-.584,9.955,9.955,0,0,1,1.645-.212,1,1,0,0,0,1.008-.688,3.337,3.337,0,0,0,.212-1.433,3.674,3.674,0,0,0-.372-1.378.957.957,0,0,0-.847-.637h-34.9q-.741,0-1.061,1.274-.318-1.273-1.166-1.274h-33.939a39.089,39.089,0,0,0-4.19.213,23.051,23.051,0,0,0-3.818.741,17.98,17.98,0,0,0-3.766,1.592,13.134,13.134,0,0,0-5.568,5.621,10.274,10.274,0,0,0-.583,7.637,7.9,7.9,0,0,0,3.923,5.09,10.673,10.673,0,0,0,5.782,1.272,8.375,8.375,0,0,0,4.931-1.908,4.228,4.228,0,0,0,1.484-4.349,9.249,9.249,0,0,1,.159-5.145,6.8,6.8,0,0,1,2.227-3.235,4.177,4.177,0,0,1,2.97-.9,3.258,3.258,0,0,1,2.492,1.751L1316.3,562.42a9.2,9.2,0,0,0,.371,1.167q.371,1.061.9,2.333a8.668,8.668,0,0,0,1.378,2.28,2.381,2.381,0,0,0,1.8,1.008h3.606l15.8-42.53,12.091,35.848A9.321,9.321,0,0,0,1352.621,563.693Zm-22.643-26.41-11.136-29.272a2.138,2.138,0,0,1,.637-1.751,7.143,7.143,0,0,1,1.8-1.378,10.97,10.97,0,0,1,2.121-.9,6.093,6.093,0,0,1,1.592-.319.9.9,0,0,0,.953-.636,1.247,1.247,0,0,0,1.061.636,22.689,22.689,0,0,1,2.97.584,6.018,6.018,0,0,1,3.182,1.961l4.031,11.667Z" transform="translate(0 30.37)" fill="#fff"/>
    <path id="Path_6" data-name="Path 6" d="M1282.951,494.919a34.514,34.514,0,0,0,11.825,7.531,40.61,40.61,0,0,0,14.8,2.651A32.128,32.128,0,0,0,1325,501.071,37.553,37.553,0,0,0,1338,489.086a1.714,1.714,0,0,0,.477-1.59,2.09,2.09,0,0,0-1.006-1.486,2.774,2.774,0,0,0-1.645-.531,1.815,1.815,0,0,0-1.325.425,12.173,12.173,0,0,1-2.705,2.333,23.09,23.09,0,0,1-4.082,2.121,29.568,29.568,0,0,1-5.09,1.537,26.54,26.54,0,0,1-5.515.584,18.89,18.89,0,0,1-9.758-2.492,24.882,24.882,0,0,1-7.266-6.47,32.654,32.654,0,0,1-4.772-8.909,39.585,39.585,0,0,1-2.174-9.917,37.36,37.36,0,0,1,.477-10.819,26.647,26.647,0,0,1,3.235-8.643,17.14,17.14,0,0,1,5.515-5.727,13.64,13.64,0,0,1,7.425-2.07,14.491,14.491,0,0,1,6.045,1.008,6.564,6.564,0,0,1,3.023,2.6,6.379,6.379,0,0,1,.8,3.553,22.686,22.686,0,0,1-.584,3.978q-.477,2.015-1.061,3.818a14.062,14.062,0,0,0-.688,3.076,9.376,9.376,0,0,0,.477,4.135,8.329,8.329,0,0,0,2.068,3.235,10.322,10.322,0,0,0,3.341,2.121,11.313,11.313,0,0,0,4.3.8,13.151,13.151,0,0,0,3.394-.424,10.112,10.112,0,0,0,3.925-2.121,12.371,12.371,0,0,0,2.757-3.447,11.7,11.7,0,0,0,1.325-4.243,9.784,9.784,0,0,0-.477-4.4,27.767,27.767,0,0,0-3.554-6.364,28.336,28.336,0,0,0-5.992-5.992,31.365,31.365,0,0,0-8.378-4.4,31.832,31.832,0,0,0-10.713-1.7,39.5,39.5,0,0,0-14.9,2.758,36.775,36.775,0,0,0-11.827,7.529,35.153,35.153,0,0,0-7.848,11.189,33.317,33.317,0,0,0-2.864,13.736,40.088,40.088,0,0,0,2.811,15.273A34.365,34.365,0,0,0,1282.951,494.919Z" fill="#fff"/>
    <path id="Path_7" data-name="Path 7" d="M1323.222,496.621a4.274,4.274,0,0,1-1.857,1.59,1.6,1.6,0,0,0-.953.9,4,4,0,0,0-.372,1.379,2.98,2.98,0,0,0,.159,1.272c.141.39.354.584.637.584h24.712a.68.68,0,0,0,.69-.584,3.727,3.727,0,0,0,.106-1.272,4.057,4.057,0,0,0-.371-1.379,1.6,1.6,0,0,0-.955-.9,4.254,4.254,0,0,1-1.856-1.59,6.662,6.662,0,0,1-.69-3.5V474.772a37.7,37.7,0,0,1,2.6-11.985,26.521,26.521,0,0,1,5.249-8.484,13.671,13.671,0,0,1,6.629-4.031,8.041,8.041,0,0,1,6.735,1.378,10.467,10.467,0,0,0,7.319,2.015,8.265,8.265,0,0,0,6.045-3.5,8.509,8.509,0,0,0,1.539-3.872,8.89,8.89,0,0,0-.371-3.976,9.77,9.77,0,0,0-2.016-3.447,7.485,7.485,0,0,0-3.5-2.174,18.17,18.17,0,0,0-9.387-.477,22.532,22.532,0,0,0-8.433,3.871,32.334,32.334,0,0,0-7.105,7.264,46.091,46.091,0,0,0-5.3,9.6v-9.015q-1.8.638-4.4,1.273t-5.462,1.22q-2.864.585-5.78.955a41.822,41.822,0,0,1-5.25.371,1.109,1.109,0,0,0-.9.478,1.755,1.755,0,0,0-.371,1.114,3.266,3.266,0,0,0,.265,1.273,1.447,1.447,0,0,0,1.008.849,3.055,3.055,0,0,1,1.484,1.378,6.606,6.606,0,0,1,.849,2.333V493.12A6.677,6.677,0,0,1,1323.222,496.621Z" transform="translate(22.465 1.484)" fill="#fff"/>
    <path id="Path_8" data-name="Path 8" d="M1366.509,486.561l.1-26.766v-9.864c0-.14-.143-.212-.424-.212a.87.87,0,0,0-.637.212,12.167,12.167,0,0,1-4.243,2.864,14.421,14.421,0,0,1-4.507.955,19.839,19.839,0,0,1-4.561-.318,42.087,42.087,0,0,1-4.4-1.061,1.682,1.682,0,0,0-2.333,1.061q-.638,1.589,1.273,4.772a11.049,11.049,0,0,1,1.167,4.243v23.391l0,.01v.278a17.122,17.122,0,0,0,1.909,7.954,18.8,18.8,0,0,0,5.143,6.258,21.718,21.718,0,0,0,7.372,3.765,20.046,20.046,0,0,0,8.591.584,10.114,10.114,0,0,0,7.318-4.455v3.5q0,9.65-.955,13.895t-3.075,4.241a2.3,2.3,0,0,1-1.856-.688,4.791,4.791,0,0,1-.9-1.8q-.318-1.114-.637-2.492a14.176,14.176,0,0,0-.953-2.757,7.8,7.8,0,0,0-3.288-3.606,8.721,8.721,0,0,0-4.242-1.168,8.9,8.9,0,0,0-3.606.741,6.692,6.692,0,0,0-2.758,2.176,7.188,7.188,0,0,0-1.325,3.394,8.771,8.771,0,0,0,.8,4.508,9.211,9.211,0,0,0,5.939,5.143q4.455,1.536,12.409,1.114a28.373,28.373,0,0,0,7-1.271,21.54,21.54,0,0,0,7.531-4.138,23.153,23.153,0,0,0,6.046-8.112q2.438-5.146,2.439-13.418l.106-55.077-3.394.955q-1.909.424-4.243.847t-4.719.743q-2.388.318-4.614.53c-1.486.144-2.864.212-4.137.212a1.11,1.11,0,0,0-.9.478,1.754,1.754,0,0,0-.371,1.114,3.284,3.284,0,0,0,.265,1.273,1.446,1.446,0,0,0,1.008.849,3.3,3.3,0,0,1,1.8,2.174,10.059,10.059,0,0,1,.636,3.447v31.638a17.532,17.532,0,0,1-1.751,6.525,5.668,5.668,0,0,1-4.507,3.233,3.778,3.778,0,0,1-3.233-.688,5.94,5.94,0,0,1-1.645-2.758,15.235,15.235,0,0,1-.583-4.082C1366.523,489.487,1366.512,488.035,1366.509,486.561Z" transform="translate(34.391 5.537)" fill="#fff"/>
    <path id="Path_9" data-name="Path 9" d="M1386.728,511.507q-.638.318-1.592.847a1.98,1.98,0,0,0-1.061,1.008,3.989,3.989,0,0,0-.371,1.38,2.266,2.266,0,0,0,.212,1.219.787.787,0,0,0,.69.53h24.606a.752.752,0,0,0,.741-.53,2.728,2.728,0,0,0,.16-1.219,4.059,4.059,0,0,0-.372-1.38,1.985,1.985,0,0,0-1.06-1.008,9.617,9.617,0,0,1-1.855-1.059q-.693-.532-.69-2.97V491.674q2.968,7.531,10.394,7.531,11.241,0,17.5-7t6.576-19.834V471.1q-.318-12.832-6.576-19.94t-17.5-7.107a9.976,9.976,0,0,0-7,2.333,11.662,11.662,0,0,0-3.394,6.47v-8.8q-1.487.426-4.084,1.061t-5.514,1.273q-2.919.638-5.941,1.061a38.862,38.862,0,0,1-5.356.424,1.1,1.1,0,0,0-.9.478,1.756,1.756,0,0,0-.372,1.114,3.287,3.287,0,0,0,.265,1.273,1.447,1.447,0,0,0,1.008.849,3.059,3.059,0,0,1,1.486,1.378,6.613,6.613,0,0,1,.847,2.333v54.621A2.022,2.022,0,0,1,1386.728,511.507Zm19.408-50.91q2.333-8.165,8.272-8.166,3.5,0,5.517,5.09t2.12,14.212q-.106,9.017-2.12,14.054t-5.517,5.037a6.818,6.818,0,0,1-5.727-2.6q-2.015-2.6-2.545-8.219Z" transform="translate(52.46 5.366)" fill="#fff"/>
    <path id="Path_10" data-name="Path 10" d="M1443.721,471.67a28.346,28.346,0,0,0,2.067,10.872,26.858,26.858,0,0,0,5.729,8.75,26.056,26.056,0,0,0,8.591,5.78,27.551,27.551,0,0,0,10.764,2.068,27.276,27.276,0,0,0,10.658-2.068,25.492,25.492,0,0,0,8.538-5.78,27.275,27.275,0,0,0,5.674-8.75,28.32,28.32,0,0,0,2.07-10.872,27.941,27.941,0,0,0-2.07-10.819,26.807,26.807,0,0,0-5.674-8.643,25.935,25.935,0,0,0-8.538-5.729,27.275,27.275,0,0,0-10.658-2.067,27.551,27.551,0,0,0-10.764,2.067,26.212,26.212,0,0,0-14.32,14.371A27.967,27.967,0,0,0,1443.721,471.67Zm18.189-14.052q.9-6.629,4.508-7.266,3.921-.741,7.158,3.978t5.038,13.946q2.439,11.243,1.539,17.818t-4.827,7.211q-4.246.744-7.478-3.976t-4.931-13.84Q1461.009,464.248,1461.91,457.618Z" transform="translate(80.739 5.537)" fill="#fff"/>
    <path id="Path_11" data-name="Path 11" d="M1422.164,454.577h6.682V488.2q0,7,4.349,10.923t13.152,3.925a17.313,17.313,0,0,0,4.084-.531,25.7,25.7,0,0,0,4.137-1.378,12.557,12.557,0,0,0,3.392-2.121,5.2,5.2,0,0,0,1.751-2.651q.318-1.591-.849-2.121-1.273-.53-2.545.955a5.1,5.1,0,0,1-5.409,1.273,5,5,0,0,1-2.439-1.431,4.547,4.547,0,0,1-.955-2.227,16.7,16.7,0,0,1-.159-3.129q.053-1.8.053-4.031V454.577h7.954a1.432,1.432,0,0,0,1.379-.85,4.262,4.262,0,0,0,0-3.712,1.435,1.435,0,0,0-1.379-.849h-7.954V437.818a1.362,1.362,0,0,0-.849-1.273,4.047,4.047,0,0,0-3.606,0,1.36,1.36,0,0,0-.849,1.273,9.472,9.472,0,0,1-4.507,8.379q-4.511,2.97-14.16,2.969h-1.273a1.436,1.436,0,0,0-1.378.849,4.276,4.276,0,0,0,0,3.712A1.433,1.433,0,0,0,1422.164,454.577Z" transform="translate(69.734 1.631)" fill="#fff"/>
    <path id="Path_12" data-name="Path 12" d="M1334.867,567.606a28.37,28.37,0,0,0-5.992-5.992,31.363,31.363,0,0,0-8.378-4.4,31.833,31.833,0,0,0-10.713-1.7,39.505,39.505,0,0,0-14.9,2.758,36.774,36.774,0,0,0-11.827,7.529,35.154,35.154,0,0,0-7.848,11.189,33.31,33.31,0,0,0-2.864,13.734A40.077,40.077,0,0,0,1275.155,606a33.836,33.836,0,0,0,19.62,19.3,40.64,40.64,0,0,0,14.8,2.651A32.129,32.129,0,0,0,1325,623.926,37.544,37.544,0,0,0,1338,611.939a1.713,1.713,0,0,0,.477-1.59,2.088,2.088,0,0,0-1.006-1.484,2.773,2.773,0,0,0-1.645-.531,1.815,1.815,0,0,0-1.325.425,12.176,12.176,0,0,1-2.705,2.333,23.089,23.089,0,0,1-4.082,2.12,29.424,29.424,0,0,1-5.09,1.539,26.531,26.531,0,0,1-5.515.584,18.89,18.89,0,0,1-9.758-2.494,24.875,24.875,0,0,1-7.266-6.469,32.663,32.663,0,0,1-4.772-8.911,39.559,39.559,0,0,1-2.174-9.915,37.356,37.356,0,0,1,.477-10.819,26.648,26.648,0,0,1,3.235-8.643,17.16,17.16,0,0,1,5.515-5.728,13.651,13.651,0,0,1,7.425-2.068,14.491,14.491,0,0,1,6.045,1.008,6.547,6.547,0,0,1,3.023,2.6,6.379,6.379,0,0,1,.8,3.553,22.648,22.648,0,0,1-.584,3.977q-.477,2.017-1.061,3.819a14.025,14.025,0,0,0-.688,3.076,9.378,9.378,0,0,0,.477,4.135,8.328,8.328,0,0,0,2.068,3.235,10.345,10.345,0,0,0,3.341,2.121,11.341,11.341,0,0,0,4.3.8,13.148,13.148,0,0,0,3.394-.424,10.1,10.1,0,0,0,3.925-2.123,12.386,12.386,0,0,0,2.757-3.445,11.7,11.7,0,0,0,1.325-4.243,9.782,9.782,0,0,0-.477-4.4A27.774,27.774,0,0,0,1334.867,567.606Z" transform="translate(0 57.879)" fill="#fff"/>
    <path id="Path_13" data-name="Path 13" d="M1344.082,622.581a4.272,4.272,0,0,1-1.855-1.59,6.664,6.664,0,0,1-.69-3.5V555.443l-1.484.425q-1.909.534-4.349,1.061t-5.09.9q-2.653.373-5.251.637a46.974,46.974,0,0,1-4.721.265,1.107,1.107,0,0,0-.9.477,1.757,1.757,0,0,0-.371,1.114,3.255,3.255,0,0,0,.265,1.272,1.444,1.444,0,0,0,1.006.849,3.451,3.451,0,0,1,1.857,2.174,9.38,9.38,0,0,1,.69,3.447v49.424a6.68,6.68,0,0,1-.69,3.5,4.284,4.284,0,0,1-1.857,1.59,1.6,1.6,0,0,0-.953.9,4,4,0,0,0-.372,1.379,3.014,3.014,0,0,0,.159,1.272c.141.39.355.584.637.584h24.5a.68.68,0,0,0,.69-.584,3.767,3.767,0,0,0,.106-1.272,4.027,4.027,0,0,0-.372-1.379A1.6,1.6,0,0,0,1344.082,622.581Z" transform="translate(22.125 57.845)" fill="#fff"/>
    <path id="Path_14" data-name="Path 14" d="M1395.363,616.692c-.5-.14-1.025-.319-1.59-.531a4.447,4.447,0,0,1-1.592-1.061,5.568,5.568,0,0,1-1.219-2.014,9.52,9.52,0,0,1-.477-3.288v.212l-.108-4.56V567.268h-.1a39.425,39.425,0,0,1-4.4,1.22q-2.6.583-5.515,1.059t-5.833.743q-2.917.265-5.249.265a1.1,1.1,0,0,0-.9.478,1.755,1.755,0,0,0-.371,1.114,3.265,3.265,0,0,0,.265,1.273,1.441,1.441,0,0,0,1.008.847,3.461,3.461,0,0,1,1.855,2.176,9.369,9.369,0,0,1,.69,3.447V603.54a19.833,19.833,0,0,1-.371,3.872,12.434,12.434,0,0,1-1.115,3.286,6.988,6.988,0,0,1-1.8,2.282,3.793,3.793,0,0,1-2.439.847,5.211,5.211,0,0,1-4.4-2.492q-1.75-2.489-1.751-7.69l.106-36.378-2.545.741q-1.909.532-4.3,1.008t-4.825.8q-2.44.318-4.827.53t-4.4.212a1.1,1.1,0,0,0-.9.478,1.756,1.756,0,0,0-.372,1.114,3.269,3.269,0,0,0,.266,1.273,1.442,1.442,0,0,0,1.008.847,2.215,2.215,0,0,1,1.378,1.167,9.592,9.592,0,0,1,.849,2.123v26.09a19.842,19.842,0,0,0,1.7,8.432,16.527,16.527,0,0,0,4.666,6.045,17.381,17.381,0,0,0,7.16,3.341,25.637,25.637,0,0,0,9.068.318q6.256-.85,8.8-7.211a8.277,8.277,0,0,0,2.386,3.394,12.175,12.175,0,0,0,3.5,2.015,16.069,16.069,0,0,0,4.19.955q2.226.214,4.56.212a27.022,27.022,0,0,0,5.568-.424,5.5,5.5,0,0,0,2.7-1.274,2,2,0,0,0,.584-1.59A1.142,1.142,0,0,0,1395.363,616.692Z" transform="translate(30.874 63.416)" fill="#fff"/>
    <path id="Path_15" data-name="Path 15" d="M1423.579,572.673a12.262,12.262,0,0,0-6.894,1.645,10.157,10.157,0,0,0-3.713,4.825V555.386a16.285,16.285,0,0,1-3.711,2.386,25.719,25.719,0,0,1-4.561,1.643,38.318,38.318,0,0,1-5.091.955,43.682,43.682,0,0,1-5.2.319,24.614,24.614,0,0,1-6.948-1.114q-3.762-1.114-7.69-2.229a69.7,69.7,0,0,0-7.848-1.749,17.386,17.386,0,0,0-7.423.318,10.7,10.7,0,0,0-3.5,1.59,9.218,9.218,0,0,0-2.335,2.333,7.293,7.293,0,0,0-1.114,2.6,5.015,5.015,0,0,0,.16,2.6,5.454,5.454,0,0,0,1.484,2.386,7.115,7.115,0,0,0,2.545,1.537,8.916,8.916,0,0,0,3.288.478,9.84,9.84,0,0,0,3.712-.9,49.514,49.514,0,0,1,9.546-3.289,35.417,35.417,0,0,1,8.221-1.006,11.252,11.252,0,0,1,5.727,1.378,4.363,4.363,0,0,1,2.174,3.976v41.471l-.107,4.561v-.212a9.529,9.529,0,0,1-.477,3.288,5.575,5.575,0,0,1-1.22,2.014,4.48,4.48,0,0,1-1.59,1.061c-.568.212-1.1.391-1.592.531a1.139,1.139,0,0,0-.9,1.167,1.985,1.985,0,0,0,.584,1.59,5.489,5.489,0,0,0,2.7,1.274,26.993,26.993,0,0,0,5.568.424,43.088,43.088,0,0,0,5.674-.371,13.643,13.643,0,0,0,5.038-1.645,9.338,9.338,0,0,0,3.553-3.659,12.976,12.976,0,0,0,1.325-6.311v3.076a29.952,29.952,0,0,0,.849,4.19,8.021,8.021,0,0,0,1.644,3.129,7.15,7.15,0,0,0,3.022,1.963,15.424,15.424,0,0,0,5.092.688q11.24,0,17.5-7.107t6.577-19.938v-1.274q-.32-12.83-6.577-19.832T1423.579,572.673Zm3.394,42.212q-2.017,4.564-5.515,4.561a7.245,7.245,0,0,1-4.825-1.857q-2.176-1.854-3.66-7.053V596.643q0-8.379,2.227-11.984a6.986,6.986,0,0,1,6.258-3.609q3.5,0,5.515,4.562t2.121,14.53Q1428.989,610.324,1426.973,614.885Z" transform="translate(40.097 57.798)" fill="#fff"/>
    <path id="Path_16" data-name="Path 16" d="M1439.839,602.173a.855.855,0,0,0-.253.035.246.246,0,0,0-.162.149,4.859,4.859,0,0,1-.3.6,5.568,5.568,0,0,1-.678.953,5.447,5.447,0,0,1-1,.9,2.163,2.163,0,0,1-1.265.4h-2.207v-5.746h.208a2.4,2.4,0,0,1,1.241.287,2.644,2.644,0,0,1,.769.666,2.844,2.844,0,0,1,.413.724,1.725,1.725,0,0,1,.127.483.263.263,0,0,0,.15.219.685.685,0,0,0,.287.057.8.8,0,0,0,.265-.046c.084-.031.127-.069.127-.115a3.9,3.9,0,0,0,.012-.552c-.009-.26-.016-.541-.024-.84s-.019-.586-.034-.862-.024-.482-.024-.621c0-.122,0-.313.012-.574s.019-.536.034-.828.023-.569.023-.839-.009-.471-.023-.609c0-.046-.038-.085-.115-.115a.737.737,0,0,0-.275-.046.609.609,0,0,0-.265.057.263.263,0,0,0-.15.218,1.7,1.7,0,0,1-.127.483,2.82,2.82,0,0,1-.413.724,2.646,2.646,0,0,1-.769.668,2.419,2.419,0,0,1-1.241.287h-.208V592.45h1.518a2.307,2.307,0,0,1,1.3.4,6.229,6.229,0,0,1,1.081.9,6.115,6.115,0,0,1,.758.953,3.841,3.841,0,0,1,.334.6.242.242,0,0,0,.16.149.872.872,0,0,0,.253.035.9.9,0,0,0,.31-.047c.084-.029.119-.075.1-.137-.015-.109-.031-.334-.046-.678s-.034-.725-.057-1.139-.046-.822-.069-1.23-.043-.724-.057-.953c0-.093-.053-.138-.16-.138a2.836,2.836,0,0,0-.472.057,5.2,5.2,0,0,1-.907.057h-9.653c-.062,0-.112.046-.15.138a.767.767,0,0,0-.057.3.635.635,0,0,0,.081.31.261.261,0,0,0,.241.15.755.755,0,0,1,.31.079,1.238,1.238,0,0,1,.322.219,1.44,1.44,0,0,1,.263.333.907.907,0,0,1,.115.472v11.1a.907.907,0,0,1-.115.472,1.441,1.441,0,0,1-.263.332,1.238,1.238,0,0,1-.322.219.754.754,0,0,1-.31.079.261.261,0,0,0-.241.15.634.634,0,0,0-.081.31.767.767,0,0,0,.057.3c.038.093.088.138.15.138h10.114a5.361,5.361,0,0,1,.908.057,2.846,2.846,0,0,0,.471.057c.107,0,.162-.046.162-.138q.022-.344.057-.953c.022-.408.046-.816.069-1.23s.041-.793.057-1.139.031-.569.046-.678c.015-.062-.019-.107-.1-.137A.913.913,0,0,0,1439.839,602.173Z" transform="translate(73.408 74.673)" fill="#fff"/>
    <path id="Path_17" data-name="Path 17" d="M1447.571,599.02a6.476,6.476,0,0,0-1.793-1.309,9.44,9.44,0,0,0-2.505-.828,5.558,5.558,0,0,1-2.092-.8,2.132,2.132,0,0,1-.965-1.309,2.466,2.466,0,0,1,.022-1.012,1.848,1.848,0,0,1,.413-.793,2.1,2.1,0,0,1,.771-.528,2.693,2.693,0,0,1,1.046-.2,1.606,1.606,0,0,1,1.367.666,4.749,4.749,0,0,1,.747,1.862,1.22,1.22,0,0,0,.747.827,2.72,2.72,0,0,0,1.483.207,1.927,1.927,0,0,0,1.068-.46.9.9,0,0,0,.334-.827,3.215,3.215,0,0,0-.633-1.4,4.647,4.647,0,0,0-1.251-1.115,6.7,6.7,0,0,0-1.748-.747,7.829,7.829,0,0,0-2.114-.275,7.536,7.536,0,0,0-2.173.3,5.6,5.6,0,0,0-1.746.85,4.271,4.271,0,0,0-1.184,1.309,3.643,3.643,0,0,0-.483,1.655,5.293,5.293,0,0,0,1.471,4.069,8.389,8.389,0,0,0,4.459,2.207,5.567,5.567,0,0,1,1.989.8,1.439,1.439,0,0,1,.7,1.172,1.646,1.646,0,0,1-.206.793,2.29,2.29,0,0,1-.552.666,3.028,3.028,0,0,1-.793.471,2.445,2.445,0,0,1-.931.184,2.715,2.715,0,0,1-.874-.148,2.157,2.157,0,0,1-.781-.472,2.669,2.669,0,0,1-.587-.838,3.88,3.88,0,0,1-.31-1.275,1.114,1.114,0,0,0-.77-.953,2.609,2.609,0,0,0-1.667-.035,1.364,1.364,0,0,0-.874.644,1.331,1.331,0,0,0-.115,1.056,4.12,4.12,0,0,0,2.07,2.5,8.291,8.291,0,0,0,3.907.815,7.313,7.313,0,0,0,2.161-.31,6.422,6.422,0,0,0,1.792-.85,4.675,4.675,0,0,0,1.265-1.275,3.577,3.577,0,0,0,.574-1.609,4.475,4.475,0,0,0-.206-1.976A4.7,4.7,0,0,0,1447.571,599.02Z" transform="translate(77.514 74.585)" fill="#fff"/>
    <path id="Path_18" data-name="Path 18" d="M1458.5,593.467c-.024-.415-.046-.824-.069-1.23s-.042-.725-.057-.955c0-.076-.026-.119-.081-.126a1,1,0,0,0-.253.012q-.172.024-.459.057a6.367,6.367,0,0,1-.747.035h-9.954a6.447,6.447,0,0,1-.736-.035c-.2-.022-.356-.041-.471-.057a1,1,0,0,0-.253-.012c-.053.007-.079.05-.079.126-.016.229-.031.547-.047.955s-.034.815-.057,1.23-.046.793-.069,1.137-.041.571-.057.678c0,.046.035.088.1.127a.509.509,0,0,0,.251.057.951.951,0,0,0,.288-.046.3.3,0,0,0,.184-.138c.031-.093.115-.291.253-.6a5.5,5.5,0,0,1,.562-.955,4.74,4.74,0,0,1,.852-.9,1.712,1.712,0,0,1,1.114-.4h1.081v12.184a.975.975,0,0,1-.425.631,1.334,1.334,0,0,1-.563.241.261.261,0,0,0-.241.15.634.634,0,0,0-.081.31.765.765,0,0,0,.057.3c.038.093.088.138.15.138h6.735c.077,0,.129-.046.16-.138a.932.932,0,0,0,.047-.3.652.652,0,0,0-.081-.31.262.262,0,0,0-.241-.15.748.748,0,0,1-.31-.079,1.237,1.237,0,0,1-.322-.219,1.437,1.437,0,0,1-.265-.332.92.92,0,0,1-.115-.472V592.432h.69a1.717,1.717,0,0,1,1.115.4,4.785,4.785,0,0,1,.85.9,5.505,5.505,0,0,1,.563.955c.138.306.222.5.253.6a.3.3,0,0,0,.184.138.932.932,0,0,0,.287.046.516.516,0,0,0,.253-.057c.069-.038.1-.081.1-.127-.015-.107-.031-.334-.045-.678S1458.526,593.881,1458.5,593.467Z" transform="translate(81.395 74.668)" fill="#fff"/>
    <path id="Path_19" data-name="Path 19" d="M1456.607,599.913a1.712,1.712,0,0,0-1.127.38,1.21,1.21,0,0,0-.459.977,1.228,1.228,0,0,0,.459.953,1.647,1.647,0,0,0,1.127.4,1.747,1.747,0,0,0,1.149-.38,1.269,1.269,0,0,0,0-1.954A1.747,1.747,0,0,0,1456.607,599.913Z" transform="translate(86.063 78.796)" fill="#fff"/>
    <path id="Path_20" data-name="Path 20" d="M1472.323,592.821a5.194,5.194,0,0,0-1.873-1.321,6.5,6.5,0,0,0-2.794-.461,8.474,8.474,0,0,0-2.424.413,3.821,3.821,0,0,0-1.712,1.081,3.528,3.528,0,0,0-.771,1.23,2.334,2.334,0,0,0-.126,1.161,1.551,1.551,0,0,0,.494.9,2.081,2.081,0,0,0,1.092.483,2.016,2.016,0,0,0,1.54-.333,2.106,2.106,0,0,0,.85-1.345,3.145,3.145,0,0,0,.012-.9,5.214,5.214,0,0,1-.034-.9,1.127,1.127,0,0,1,.241-.678,1.054,1.054,0,0,1,.839-.265,2.351,2.351,0,0,1,1.667.609,2.814,2.814,0,0,1,.85,1.449,3.011,3.011,0,0,1-.138,1.746,3.065,3.065,0,0,1-1.321,1.528,28.005,28.005,0,0,0-2.6,1.817,12.021,12.021,0,0,0-1.908,1.873,7.325,7.325,0,0,0-1.183,2.08,7.013,7.013,0,0,0-.4,2.414v1.034h.253v-.023l8.621.023a6.729,6.729,0,0,1,.746.034l.472.057a1.02,1.02,0,0,0,.253.012c.046-.007.068-.05.068-.127q.046-2.092.116-3.114t.115-1.345a.167.167,0,0,0-.069-.127.261.261,0,0,0-.172-.057.682.682,0,0,0-.208.034.245.245,0,0,0-.15.15q-.046.137-.137.38a2.451,2.451,0,0,1-.253.483,1.69,1.69,0,0,1-.413.425,1,1,0,0,1-.6.184h-6.919q.022-.552.771-.943a11.673,11.673,0,0,1,1.781-.724q1.033-.333,2.114-.655a7.814,7.814,0,0,0,1.77-.736,5.535,5.535,0,0,0,1.724-1.621,5.263,5.263,0,0,0,.839-2,4.864,4.864,0,0,0-.057-2.08A4.335,4.335,0,0,0,1472.323,592.821Z" transform="translate(89.631 74.613)" fill="#fff"/>
    <path id="Path_21" data-name="Path 21" d="M1481.04,593.118a5.561,5.561,0,0,0-1.989-1.552,5.831,5.831,0,0,0-2.46-.528,5.9,5.9,0,0,0-2.47.528,5.622,5.622,0,0,0-2.011,1.552,7.737,7.737,0,0,0-1.346,2.483,11.434,11.434,0,0,0,0,6.642,7.585,7.585,0,0,0,1.346,2.471,5.674,5.674,0,0,0,2.011,1.54,5.9,5.9,0,0,0,2.47.528,5.831,5.831,0,0,0,2.46-.528,5.612,5.612,0,0,0,1.989-1.54,7.7,7.7,0,0,0,1.333-2.471,11.4,11.4,0,0,0,0-6.642A7.859,7.859,0,0,0,1481.04,593.118Zm-1.92,10.527q-.344,1.922-1.471,2.035a1.715,1.715,0,0,1-1.161-.344,3.6,3.6,0,0,1-.989-1.2,9.3,9.3,0,0,1-.781-1.976,19.852,19.852,0,0,1-.54-2.667,25.569,25.569,0,0,1-.253-3.011,11.953,11.953,0,0,1,.148-2.286,3.786,3.786,0,0,1,.542-1.483,1.3,1.3,0,0,1,.919-.6c.766-.075,1.448.432,2.045,1.53a14.9,14.9,0,0,1,1.38,4.677A17.371,17.371,0,0,1,1479.12,603.645Z" transform="translate(93.248 74.615)" fill="#fff"/>
    <path id="Path_22" data-name="Path 22" d="M1489.2,592.821a5.192,5.192,0,0,0-1.873-1.321,6.5,6.5,0,0,0-2.794-.461,8.475,8.475,0,0,0-2.425.413,3.821,3.821,0,0,0-1.712,1.081,3.528,3.528,0,0,0-.771,1.23,2.334,2.334,0,0,0-.126,1.161,1.552,1.552,0,0,0,.494.9,2.081,2.081,0,0,0,1.092.483,2.016,2.016,0,0,0,1.54-.333,2.107,2.107,0,0,0,.85-1.345,3.141,3.141,0,0,0,.012-.9,5.238,5.238,0,0,1-.034-.9,1.127,1.127,0,0,1,.241-.678,1.054,1.054,0,0,1,.839-.265,2.351,2.351,0,0,1,1.667.609,2.814,2.814,0,0,1,.85,1.449,3.011,3.011,0,0,1-.138,1.746,3.065,3.065,0,0,1-1.321,1.528,27.973,27.973,0,0,0-2.6,1.817,12.011,12.011,0,0,0-1.908,1.873,7.323,7.323,0,0,0-1.183,2.08,7.016,7.016,0,0,0-.4,2.414v1.034h.253v-.023l8.621.023a6.729,6.729,0,0,1,.746.034l.472.057a1.02,1.02,0,0,0,.253.012c.046-.007.068-.05.068-.127q.046-2.092.116-3.114t.115-1.345a.167.167,0,0,0-.069-.127.261.261,0,0,0-.172-.057.68.68,0,0,0-.207.034.245.245,0,0,0-.15.15q-.046.137-.137.38a2.457,2.457,0,0,1-.253.483,1.7,1.7,0,0,1-.413.425,1,1,0,0,1-.6.184h-6.919q.022-.552.771-.943a11.668,11.668,0,0,1,1.781-.724q1.033-.333,2.114-.655a7.82,7.82,0,0,0,1.77-.736,5.535,5.535,0,0,0,1.724-1.621,5.264,5.264,0,0,0,.839-2,4.868,4.868,0,0,0-.057-2.08A4.336,4.336,0,0,0,1489.2,592.821Z" transform="translate(97.582 74.613)" fill="#fff"/>
    <path id="Path_23" data-name="Path 23" d="M1492.421,605.907a.926.926,0,0,1-.4-.344,1.451,1.451,0,0,1-.148-.759V591.241h-.184l-3.885.828a.267.267,0,0,0-.241.31.741.741,0,0,0,.241.494,1.627,1.627,0,0,1,.379.586,2.484,2.484,0,0,1,.126.862V604.8a1.451,1.451,0,0,1-.15.759.933.933,0,0,1-.4.344c-.169.076-.265.168-.288.275s.035.162.174.162h4.9c.137,0,.194-.053.172-.162S1492.589,605.983,1492.421,605.907Z" transform="translate(101.346 74.71)" fill="#fff"/>
  </g>
</svg>
