<svg xmlns="http://www.w3.org/2000/svg" width="213.577" height="168.074" viewBox="0 0 213.577 168.074">
  <g id="Join_section_whale_logo" data-name="Join section whale logo" transform="translate(-1272.344 -432.661)">
    <path id="Path_1" data-name="Path 1" d="M1371.3,509.156a7.331,7.331,0,0,0-5.633,3.732l-.013-.008.022-3.706a7.222,7.222,0,0,1,.762-2.768q1.245-2.077.83-3.114a1.1,1.1,0,0,0-1.522-.692,27.022,27.022,0,0,1-2.871.692,12.941,12.941,0,0,1-2.976.208,9.419,9.419,0,0,1-2.941-.623,7.947,7.947,0,0,1-2.769-1.868.564.564,0,0,0-.415-.139c-.184,0-.276.047-.276.139v5.1c0,.006-.012.008-.012.016v32.811a4.428,4.428,0,0,1-.457,2.323,2.849,2.849,0,0,1-1.232,1.058,1.057,1.057,0,0,0-.633.6,2.656,2.656,0,0,0-.247.915,1.968,1.968,0,0,0,.106.846q.14.387.423.387h16.265a.451.451,0,0,0,.457-.387,2.48,2.48,0,0,0,.07-.846,2.649,2.649,0,0,0-.246-.915,1.056,1.056,0,0,0-.634-.6,2.842,2.842,0,0,1-1.232-1.058,4.42,4.42,0,0,1-.457-2.323V521.548a11.509,11.509,0,0,1,.915-4.859,3.331,3.331,0,0,1,3.31-1.972q3.167,0,3.591,5.07v17.322a8.6,8.6,0,0,0,.88,4.19,6.186,6.186,0,0,0,2.359,2.429,9.046,9.046,0,0,0,3.344,1.091,28.615,28.615,0,0,0,3.768.247,17.849,17.849,0,0,0,3.7-.282,3.66,3.66,0,0,0,1.8-.844,1.33,1.33,0,0,0,.388-1.057.757.757,0,0,0-.6-.774q-.494-.141-1.057-.353a2.955,2.955,0,0,1-1.056-.7,3.68,3.68,0,0,1-.81-1.338,6.306,6.306,0,0,1-.316-2.184V521.478a13.853,13.853,0,0,0-1.092-5.6,11.193,11.193,0,0,0-3.063-4.155,11.816,11.816,0,0,0-4.648-2.359A13.929,13.929,0,0,0,1371.3,509.156Z" transform="translate(-1.836 -1.594)" fill="#004490"/>
    <path id="Path_2" data-name="Path 2" d="M1433.509,559.983a13.974,13.974,0,0,0,4.647-1.9,6.2,6.2,0,0,0,2.042-2.007,6.872,6.872,0,0,0,.916-2.322,5.631,5.631,0,0,0-.036-2.253,4.439,4.439,0,0,0-.88-1.866,5.487,5.487,0,0,0-2.641-1.691,6.768,6.768,0,0,0-3.485-.211,6.219,6.219,0,0,0-3.2,1.8,6.993,6.993,0,0,0-1.8,4.19q-.423,3.028-1.3,3.31t-1.76-1.338a19.078,19.078,0,0,1-1.584-4.787,32.133,32.133,0,0,1-.7-6.971V523.016q0-6.406-4.259-9.963t-11.935-3.556a20.265,20.265,0,0,0-6.442,1.021,14.341,14.341,0,0,0-5.1,2.852,9.051,9.051,0,0,0-1.9,2.289,7.537,7.537,0,0,0-.915,2.429,5,5,0,0,0,.105,2.288,3.409,3.409,0,0,0,1.232,1.795,5.038,5.038,0,0,0,2.042.88,7.051,7.051,0,0,0,2.323.106,4.8,4.8,0,0,0,1.972-.669,2.052,2.052,0,0,0,.985-1.514q.211-1.338.423-2.781a9.3,9.3,0,0,1,.775-2.641,5.1,5.1,0,0,1,1.619-1.971,4.784,4.784,0,0,1,2.886-.774,3.187,3.187,0,0,1,2.852,1.654,8.784,8.784,0,0,1,1.021,4.612v3.661a48.336,48.336,0,0,0-6.759.915,22.9,22.9,0,0,0-5.07,1.69,14.84,14.84,0,0,0-3.837,2.64,18.68,18.68,0,0,0-2.992,3.767,8.218,8.218,0,0,0-1.162,3.2,10.4,10.4,0,0,0,.07,3.414,9.187,9.187,0,0,0,1.233,3.169,7.519,7.519,0,0,0,2.323,2.394,8.9,8.9,0,0,0,2.323,1.161,13.687,13.687,0,0,0,2.817.635,13.927,13.927,0,0,0,2.957.035,8.8,8.8,0,0,0,2.746-.705,7.753,7.753,0,0,0,3.52-3.168,12.036,12.036,0,0,0,1.831-4.717v5.985a18.673,18.673,0,0,0,1.443,7.71,15.165,15.165,0,0,0,9.012,8.379,21.737,21.737,0,0,0,5.914,1.2A20.17,20.17,0,0,0,1433.509,559.983ZM1411.4,532.03a9.671,9.671,0,0,1-1.514,4.259,6.487,6.487,0,0,1-2.993,2.571q-1.9.7-2.711-.353a4.042,4.042,0,0,1-.81-2.534,10.474,10.474,0,0,1,.669-3.7,10.983,10.983,0,0,1,1.8-3.168,9.537,9.537,0,0,1,2.57-2.218,5.839,5.839,0,0,1,2.992-.846Z" transform="translate(-2.784 -1.796)" fill="#004490"/>
    <path id="Path_3" data-name="Path 3" d="M1429.886,541.188a2.844,2.844,0,0,1-1.232,1.058,1.054,1.054,0,0,0-.634.6,2.652,2.652,0,0,0-.246.915,1.97,1.97,0,0,0,.106.846c.093.258.234.387.422.387h16.265a.451.451,0,0,0,.458-.387,2.474,2.474,0,0,0,.07-.846,2.7,2.7,0,0,0-.246-.915,1.061,1.061,0,0,0-.634-.6,2.836,2.836,0,0,1-1.232-1.058,4.418,4.418,0,0,1-.457-2.323v-41.19l-.986.282q-1.267.353-2.887.7t-3.379.6q-1.761.248-3.485.422a30.9,30.9,0,0,1-3.133.177.736.736,0,0,0-.6.316,1.166,1.166,0,0,0-.246.739,2.17,2.17,0,0,0,.176.845.958.958,0,0,0,.669.564,2.29,2.29,0,0,1,1.232,1.443,6.226,6.226,0,0,1,.458,2.288v32.811A4.428,4.428,0,0,1,1429.886,541.188Z" transform="translate(-3.632 -1.519)" fill="#004490"/>
    <path id="Path_4" data-name="Path 4" d="M1468.71,545.475a18.189,18.189,0,0,0,3.907-1.3,18.8,18.8,0,0,0,3.626-2.218,14.237,14.237,0,0,0,2.993-3.168,1.289,1.289,0,0,0,.316-1.022,1.273,1.273,0,0,0-.528-1.021,1.612,1.612,0,0,0-.916-.352,2,2,0,0,0-1.2.492,9.884,9.884,0,0,1-6.478,1.972,19.494,19.494,0,0,1-2.007-.106,15.263,15.263,0,0,1-2.147-.388,6.561,6.561,0,0,1-2.606-1.337,9.357,9.357,0,0,1-2.077-2.465,12.813,12.813,0,0,1-1.372-3.379,15.625,15.625,0,0,1-.493-3.944v-2.887l17.462-.141a2.505,2.505,0,0,0,1.76-.528,2.739,2.739,0,0,0,.773-1.232,4.736,4.736,0,0,0,.212-1.373v-.88a9.64,9.64,0,0,0-1.443-4.3,12.156,12.156,0,0,0-3.309-3.451,16.2,16.2,0,0,0-4.788-2.288,20.24,20.24,0,0,0-5.81-.81,16.149,16.149,0,0,0-6.619,1.373,17.592,17.592,0,0,0-5.457,3.767,18.747,18.747,0,0,0-3.8,5.667,20.177,20.177,0,0,0-1.655,7.077,19.014,19.014,0,0,0,1.021,7.5,16.421,16.421,0,0,0,3.591,5.879,16.7,16.7,0,0,0,5.739,3.873,19.221,19.221,0,0,0,7.464,1.407A18.592,18.592,0,0,0,1468.71,545.475Zm-7.323-30.312a3.424,3.424,0,0,1,3.2-1.8,2.588,2.588,0,0,1,2.183,1.162,4.963,4.963,0,0,1,.845,2.992,2.107,2.107,0,0,1-1.232,2.112,8.093,8.093,0,0,1-2.429.7l-3.943.07A13.679,13.679,0,0,1,1461.387,515.163Z" transform="translate(-4.082 -1.792)" fill="#004490"/>
    <path id="Path_5" data-name="Path 5" d="M1325.638,541.317a15.034,15.034,0,0,0,.634,1.514,6.864,6.864,0,0,0,.95,1.479,1.635,1.635,0,0,0,1.268.669h1.76l.353-.985,12.814-31.9a18.432,18.432,0,0,1,1.479-2.781q.844-1.3,1.584-2.465a19.74,19.74,0,0,0,1.232-2.217,3.426,3.426,0,0,0,.353-1.972,5.125,5.125,0,0,0-2.113-4.33,8.441,8.441,0,0,0-5.633-1.162,6.378,6.378,0,0,0-4.506,2.042,5.826,5.826,0,0,0-1.127,4.648,6.142,6.142,0,0,0,.951,2.816q.74,1.056,1.373,2.042a6.385,6.385,0,0,1,.88,2.218,6.54,6.54,0,0,1-.528,3.344l-3.591,10-6.477-20.7a1.129,1.129,0,0,1,.563-.95,5.214,5.214,0,0,1,1.3-.634,11.665,11.665,0,0,1,1.479-.388,6.609,6.609,0,0,1,1.092-.141.66.66,0,0,0,.669-.457,2.214,2.214,0,0,0,.141-.951,2.44,2.44,0,0,0-.247-.915.636.636,0,0,0-.562-.423h-23.166q-.492,0-.7.846-.211-.845-.774-.846h-22.531a25.958,25.958,0,0,0-2.781.142,15.3,15.3,0,0,0-2.534.492,11.931,11.931,0,0,0-2.5,1.057,8.719,8.719,0,0,0-3.7,3.732,6.821,6.821,0,0,0-.387,5.07,5.244,5.244,0,0,0,2.6,3.379,7.085,7.085,0,0,0,3.838.845,5.561,5.561,0,0,0,3.274-1.267,2.807,2.807,0,0,0,.985-2.887,6.139,6.139,0,0,1,.106-3.415,4.517,4.517,0,0,1,1.479-2.148,2.773,2.773,0,0,1,1.972-.6,2.163,2.163,0,0,1,1.655,1.162l12.956,36.191a6.112,6.112,0,0,0,.246.774q.246.7.6,1.549a5.75,5.75,0,0,0,.915,1.514,1.58,1.58,0,0,0,1.2.669h2.394l10.491-28.234,8.027,23.8A6.2,6.2,0,0,0,1325.638,541.317Zm-15.032-17.533-7.393-19.433a1.42,1.42,0,0,1,.423-1.162,4.745,4.745,0,0,1,1.2-.915,7.281,7.281,0,0,1,1.408-.6,4.043,4.043,0,0,1,1.057-.212.6.6,0,0,0,.633-.422.828.828,0,0,0,.7.422,15.056,15.056,0,0,1,1.972.388,4,4,0,0,1,2.112,1.3l2.676,7.746Z" transform="translate(0 -1.506)" fill="#004490"/>
    <path id="Path_6" data-name="Path 6" d="M1279.385,473.992a22.914,22.914,0,0,0,7.85,5,26.961,26.961,0,0,0,9.823,1.76,21.329,21.329,0,0,0,10.245-2.675,24.929,24.929,0,0,0,8.625-7.957,1.138,1.138,0,0,0,.317-1.056,1.387,1.387,0,0,0-.668-.986,1.841,1.841,0,0,0-1.092-.353,1.205,1.205,0,0,0-.88.282,8.081,8.081,0,0,1-1.8,1.549,15.33,15.33,0,0,1-2.71,1.408,19.627,19.627,0,0,1-3.379,1.021,17.619,17.619,0,0,1-3.661.388,12.54,12.54,0,0,1-6.478-1.654,16.52,16.52,0,0,1-4.824-4.3,21.679,21.679,0,0,1-3.168-5.914,26.283,26.283,0,0,1-1.443-6.583,24.805,24.805,0,0,1,.316-7.182,17.689,17.689,0,0,1,2.148-5.738,11.378,11.378,0,0,1,3.661-3.8,9.054,9.054,0,0,1,4.929-1.374,9.621,9.621,0,0,1,4.013.669,4.357,4.357,0,0,1,2.007,1.726,4.235,4.235,0,0,1,.529,2.359,15.072,15.072,0,0,1-.388,2.641q-.317,1.337-.7,2.534a9.331,9.331,0,0,0-.457,2.042,6.223,6.223,0,0,0,.317,2.745,5.528,5.528,0,0,0,1.373,2.148,6.852,6.852,0,0,0,2.218,1.408,7.511,7.511,0,0,0,2.852.528,8.729,8.729,0,0,0,2.253-.281,6.712,6.712,0,0,0,2.606-1.408,8.213,8.213,0,0,0,1.83-2.288,7.767,7.767,0,0,0,.88-2.817,6.5,6.5,0,0,0-.316-2.922,18.433,18.433,0,0,0-2.36-4.225,18.808,18.808,0,0,0-3.978-3.978,20.821,20.821,0,0,0-5.562-2.922,21.131,21.131,0,0,0-7.112-1.127,26.225,26.225,0,0,0-9.892,1.831,24.413,24.413,0,0,0-7.851,5,23.338,23.338,0,0,0-5.21,7.428,22.118,22.118,0,0,0-1.9,9.119,26.615,26.615,0,0,0,1.866,10.139A22.815,22.815,0,0,0,1279.385,473.992Z" fill="#004490"/>
    <path id="Path_7" data-name="Path 7" d="M1322.148,476.181a2.837,2.837,0,0,1-1.232,1.056,1.061,1.061,0,0,0-.633.6,2.657,2.657,0,0,0-.247.915,1.979,1.979,0,0,0,.106.845c.094.259.235.388.423.388h16.405a.452.452,0,0,0,.458-.388,2.476,2.476,0,0,0,.07-.845,2.694,2.694,0,0,0-.246-.915,1.065,1.065,0,0,0-.634-.6,2.825,2.825,0,0,1-1.232-1.056,4.423,4.423,0,0,1-.458-2.324V461.676a25.029,25.029,0,0,1,1.726-7.957,17.605,17.605,0,0,1,3.485-5.632,9.075,9.075,0,0,1,4.4-2.676,5.338,5.338,0,0,1,4.471.915,6.948,6.948,0,0,0,4.859,1.338,5.487,5.487,0,0,0,4.013-2.323,5.649,5.649,0,0,0,1.022-2.57,5.9,5.9,0,0,0-.246-2.64,6.486,6.486,0,0,0-1.338-2.288A4.97,4.97,0,0,0,1355,436.4a12.063,12.063,0,0,0-6.232-.316,14.96,14.96,0,0,0-5.6,2.57,21.467,21.467,0,0,0-4.717,4.823,30.6,30.6,0,0,0-3.521,6.373v-5.985q-1.2.423-2.921.845t-3.626.81q-1.9.388-3.837.634a27.76,27.76,0,0,1-3.485.246.736.736,0,0,0-.6.317,1.165,1.165,0,0,0-.246.739,2.168,2.168,0,0,0,.176.845.96.96,0,0,0,.669.564,2.028,2.028,0,0,1,.985.915,4.385,4.385,0,0,1,.564,1.549v22.531A4.433,4.433,0,0,1,1322.148,476.181Z" transform="translate(-1.114 -0.074)" fill="#004490"/>
    <path id="Path_8" data-name="Path 8" d="M1359.394,472.393l.065-17.769v-6.548c0-.093-.095-.141-.281-.141a.578.578,0,0,0-.423.141,8.08,8.08,0,0,1-2.817,1.9,9.575,9.575,0,0,1-2.992.634,13.169,13.169,0,0,1-3.028-.211,27.932,27.932,0,0,1-2.922-.7,1.116,1.116,0,0,0-1.549.7q-.423,1.055.845,3.168a7.336,7.336,0,0,1,.774,2.817v15.528l0,.007v.185a11.367,11.367,0,0,0,1.267,5.281,12.481,12.481,0,0,0,3.415,4.155,14.417,14.417,0,0,0,4.894,2.5,13.308,13.308,0,0,0,5.7.388,6.714,6.714,0,0,0,4.858-2.957v2.323a46.987,46.987,0,0,1-.634,9.224q-.633,2.814-2.041,2.816a1.529,1.529,0,0,1-1.233-.457,3.181,3.181,0,0,1-.6-1.2q-.211-.74-.423-1.654a9.422,9.422,0,0,0-.633-1.83,5.181,5.181,0,0,0-2.183-2.394,5.789,5.789,0,0,0-2.816-.775,5.911,5.911,0,0,0-2.394.492,4.443,4.443,0,0,0-1.831,1.444,4.772,4.772,0,0,0-.88,2.253,5.825,5.825,0,0,0,.529,2.992,6.115,6.115,0,0,0,3.943,3.414,22.548,22.548,0,0,0,8.238.739,18.834,18.834,0,0,0,4.647-.844,14.3,14.3,0,0,0,5-2.747,15.373,15.373,0,0,0,4.014-5.385,20.925,20.925,0,0,0,1.619-8.908l.071-36.564-2.253.634q-1.267.281-2.817.563t-3.133.493q-1.585.211-3.063.352c-.986.1-1.9.141-2.746.141a.736.736,0,0,0-.6.317,1.165,1.165,0,0,0-.246.739,2.18,2.18,0,0,0,.176.845.96.96,0,0,0,.669.564,2.194,2.194,0,0,1,1.2,1.443,6.678,6.678,0,0,1,.422,2.288v21a11.635,11.635,0,0,1-1.162,4.331,3.763,3.763,0,0,1-2.992,2.147,2.508,2.508,0,0,1-2.147-.457,3.944,3.944,0,0,1-1.092-1.831,10.114,10.114,0,0,1-.387-2.71C1359.4,474.336,1359.4,473.372,1359.394,472.393Z" transform="translate(-1.706 -0.275)" fill="#004490"/>
    <path id="Path_9" data-name="Path 9" d="M1385.709,488.833q-.423.211-1.057.563a1.314,1.314,0,0,0-.7.669,2.651,2.651,0,0,0-.246.916,1.505,1.505,0,0,0,.141.81.522.522,0,0,0,.458.352h16.335a.5.5,0,0,0,.492-.352,1.811,1.811,0,0,0,.107-.81,2.7,2.7,0,0,0-.247-.916,1.318,1.318,0,0,0-.7-.669,6.382,6.382,0,0,1-1.232-.7q-.46-.353-.458-1.972V475.667q1.971,5,6.9,5,7.462,0,11.618-4.647t4.366-13.167v-.845q-.211-8.519-4.366-13.237t-11.618-4.718a6.623,6.623,0,0,0-4.647,1.549,7.742,7.742,0,0,0-2.253,4.3v-5.844q-.987.283-2.711.7t-3.66.845q-1.938.423-3.944.7a25.8,25.8,0,0,1-3.556.281.733.733,0,0,0-.6.317,1.165,1.165,0,0,0-.247.739,2.182,2.182,0,0,0,.176.845.96.96,0,0,0,.669.564,2.03,2.03,0,0,1,.986.915,4.39,4.39,0,0,1,.563,1.549v36.261A1.342,1.342,0,0,1,1385.709,488.833Zm12.885-33.8q1.549-5.42,5.492-5.421,2.323,0,3.662,3.379a27.4,27.4,0,0,1,1.407,9.435,26.818,26.818,0,0,1-1.407,9.33q-1.339,3.344-3.662,3.344a4.526,4.526,0,0,1-3.8-1.725,10.6,10.6,0,0,1-1.69-5.456Z" transform="translate(-2.602 -0.266)" fill="#004490"/>
    <path id="Path_10" data-name="Path 10" d="M1443.721,462.508a18.817,18.817,0,0,0,1.372,7.217,17.83,17.83,0,0,0,3.8,5.809,17.3,17.3,0,0,0,5.7,3.837,18.29,18.29,0,0,0,7.146,1.373,18.107,18.107,0,0,0,7.076-1.373,16.924,16.924,0,0,0,5.668-3.837,18.106,18.106,0,0,0,3.767-5.809,18.8,18.8,0,0,0,1.374-7.217,18.548,18.548,0,0,0-1.374-7.182,17.8,17.8,0,0,0-3.767-5.738,17.217,17.217,0,0,0-5.668-3.8,18.107,18.107,0,0,0-7.076-1.372,18.289,18.289,0,0,0-7.146,1.372,17.4,17.4,0,0,0-9.507,9.541A18.565,18.565,0,0,0,1443.721,462.508Zm12.075-9.329q.6-4.4,2.992-4.824,2.6-.492,4.752,2.641a25.219,25.219,0,0,1,3.345,9.258q1.619,7.464,1.022,11.829t-3.2,4.787q-2.819.494-4.964-2.64a24.34,24.34,0,0,1-3.274-9.188A41.234,41.234,0,0,1,1455.8,453.179Z" transform="translate(-4.005 -0.275)" fill="#004490"/>
    <path id="Path_11" data-name="Path 11" d="M1421.558,448.374h4.436v22.32a9.266,9.266,0,0,0,2.887,7.252q2.886,2.606,8.731,2.606a11.491,11.491,0,0,0,2.711-.353,17.055,17.055,0,0,0,2.746-.915,8.334,8.334,0,0,0,2.252-1.408,3.449,3.449,0,0,0,1.162-1.76q.211-1.056-.563-1.408-.845-.352-1.69.634a3.387,3.387,0,0,1-3.591.845,3.319,3.319,0,0,1-1.619-.95,3.018,3.018,0,0,1-.634-1.479,11.09,11.09,0,0,1-.106-2.077q.035-1.2.035-2.676V448.374h5.281a.95.95,0,0,0,.915-.564,2.829,2.829,0,0,0,0-2.464.953.953,0,0,0-.915-.564h-5.281v-7.534a.9.9,0,0,0-.563-.845,2.687,2.687,0,0,0-2.394,0,.9.9,0,0,0-.563.845,6.288,6.288,0,0,1-2.992,5.563q-2.995,1.972-9.4,1.971h-.845a.953.953,0,0,0-.915.564,2.839,2.839,0,0,0,0,2.464A.951.951,0,0,0,1421.558,448.374Z" transform="translate(-3.459 -0.081)" fill="#004490"/>
    <path id="Path_12" data-name="Path 12" d="M1313.851,563.542a18.831,18.831,0,0,0-3.978-3.978,20.822,20.822,0,0,0-5.562-2.921,21.134,21.134,0,0,0-7.112-1.127,26.227,26.227,0,0,0-9.892,1.831,24.413,24.413,0,0,0-7.851,5,23.338,23.338,0,0,0-5.21,7.428,22.114,22.114,0,0,0-1.9,9.118,26.608,26.608,0,0,0,1.866,10.139,22.463,22.463,0,0,0,13.025,12.815,26.981,26.981,0,0,0,9.823,1.76,21.329,21.329,0,0,0,10.245-2.675,24.923,24.923,0,0,0,8.625-7.958,1.137,1.137,0,0,0,.317-1.056,1.385,1.385,0,0,0-.668-.985,1.841,1.841,0,0,0-1.092-.353,1.2,1.2,0,0,0-.88.282,8.081,8.081,0,0,1-1.8,1.549,15.332,15.332,0,0,1-2.71,1.407,19.533,19.533,0,0,1-3.379,1.022,17.615,17.615,0,0,1-3.661.388,12.541,12.541,0,0,1-6.478-1.655,16.515,16.515,0,0,1-4.824-4.294,21.684,21.684,0,0,1-3.168-5.915,26.266,26.266,0,0,1-1.443-6.583,24.8,24.8,0,0,1,.316-7.182,17.69,17.69,0,0,1,2.148-5.738,11.391,11.391,0,0,1,3.661-3.8,9.062,9.062,0,0,1,4.929-1.373,9.622,9.622,0,0,1,4.013.669,4.346,4.346,0,0,1,2.007,1.726,4.235,4.235,0,0,1,.529,2.359,15.046,15.046,0,0,1-.388,2.64q-.317,1.339-.7,2.535a9.306,9.306,0,0,0-.457,2.042,6.224,6.224,0,0,0,.317,2.745,5.527,5.527,0,0,0,1.373,2.148,6.866,6.866,0,0,0,2.218,1.408,7.529,7.529,0,0,0,2.852.528,8.728,8.728,0,0,0,2.253-.281,6.7,6.7,0,0,0,2.606-1.409,8.222,8.222,0,0,0,1.83-2.287,7.767,7.767,0,0,0,.88-2.817,6.494,6.494,0,0,0-.316-2.922A18.437,18.437,0,0,0,1313.851,563.542Z" transform="translate(0 -2.871)" fill="#004490"/>
    <path id="Path_13" data-name="Path 13" d="M1335.754,600.014a2.836,2.836,0,0,1-1.232-1.056,4.424,4.424,0,0,1-.458-2.324v-41.19l-.985.282q-1.267.354-2.887.7t-3.379.6q-1.761.248-3.486.423a31.189,31.189,0,0,1-3.134.176.735.735,0,0,0-.6.316,1.167,1.167,0,0,0-.246.739,2.162,2.162,0,0,0,.176.845.959.959,0,0,0,.668.564,2.291,2.291,0,0,1,1.233,1.443,6.228,6.228,0,0,1,.458,2.288v32.811a4.435,4.435,0,0,1-.458,2.324,2.844,2.844,0,0,1-1.233,1.056,1.061,1.061,0,0,0-.633.6,2.651,2.651,0,0,0-.247.915,2,2,0,0,0,.105.845c.094.259.235.388.423.388h16.265a.452.452,0,0,0,.458-.388,2.5,2.5,0,0,0,.07-.845,2.671,2.671,0,0,0-.247-.915A1.059,1.059,0,0,0,1335.754,600.014Z" transform="translate(-1.097 -2.869)" fill="#004490"/>
    <path id="Path_14" data-name="Path 14" d="M1376.041,600.079c-.329-.093-.681-.212-1.056-.353a2.952,2.952,0,0,1-1.057-.7,3.7,3.7,0,0,1-.81-1.337,6.321,6.321,0,0,1-.317-2.183v.141l-.071-3.028V567.268h-.069a26.2,26.2,0,0,1-2.923.81q-1.726.387-3.661.7t-3.872.493q-1.937.176-3.485.176a.732.732,0,0,0-.6.317,1.164,1.164,0,0,0-.246.739,2.168,2.168,0,0,0,.176.845.957.957,0,0,0,.669.563,2.3,2.3,0,0,1,1.231,1.444,6.219,6.219,0,0,1,.458,2.288v15.7a13.17,13.17,0,0,1-.246,2.571,8.256,8.256,0,0,1-.74,2.182,4.638,4.638,0,0,1-1.2,1.515,2.518,2.518,0,0,1-1.619.563,3.46,3.46,0,0,1-2.922-1.654,8.962,8.962,0,0,1-1.162-5.1l.07-24.15-1.69.492q-1.267.353-2.852.669t-3.2.528q-1.62.211-3.2.352t-2.921.141a.732.732,0,0,0-.6.317,1.166,1.166,0,0,0-.247.739,2.172,2.172,0,0,0,.177.845.957.957,0,0,0,.669.563,1.47,1.47,0,0,1,.915.774,6.359,6.359,0,0,1,.564,1.409v17.321a13.173,13.173,0,0,0,1.126,5.6,10.973,10.973,0,0,0,3.1,4.013,11.539,11.539,0,0,0,4.753,2.218,17.02,17.02,0,0,0,6.02.211,7.042,7.042,0,0,0,5.844-4.787,5.5,5.5,0,0,0,1.584,2.253,8.085,8.085,0,0,0,2.323,1.338,10.668,10.668,0,0,0,2.782.634q1.478.142,3.028.141a17.941,17.941,0,0,0,3.7-.281,3.654,3.654,0,0,0,1.8-.846,1.325,1.325,0,0,0,.388-1.056A.758.758,0,0,0,1376.041,600.079Z" transform="translate(-1.531 -3.146)" fill="#004490"/>
    <path id="Path_15" data-name="Path 15" d="M1401.353,566.848a8.141,8.141,0,0,0-4.577,1.092,6.743,6.743,0,0,0-2.465,3.2V555.371a10.813,10.813,0,0,1-2.464,1.584,17.074,17.074,0,0,1-3.028,1.091,25.431,25.431,0,0,1-3.38.634,28.993,28.993,0,0,1-3.449.212,16.339,16.339,0,0,1-4.613-.739q-2.5-.74-5.1-1.479a46.262,46.262,0,0,0-5.21-1.161,11.542,11.542,0,0,0-4.928.211,7.106,7.106,0,0,0-2.323,1.056,6.118,6.118,0,0,0-1.55,1.549,4.843,4.843,0,0,0-.74,1.726,3.33,3.33,0,0,0,.107,1.726,3.622,3.622,0,0,0,.985,1.584,4.724,4.724,0,0,0,1.69,1.021,5.921,5.921,0,0,0,2.183.317,6.533,6.533,0,0,0,2.464-.6,32.868,32.868,0,0,1,6.337-2.184,23.511,23.511,0,0,1,5.458-.668,7.469,7.469,0,0,1,3.8.915,2.9,2.9,0,0,1,1.443,2.64v27.531l-.071,3.028v-.141a6.327,6.327,0,0,1-.316,2.183,3.7,3.7,0,0,1-.81,1.337,2.975,2.975,0,0,1-1.056.7c-.377.141-.729.26-1.057.353a.756.756,0,0,0-.6.774,1.318,1.318,0,0,0,.388,1.056,3.644,3.644,0,0,0,1.8.846,17.92,17.92,0,0,0,3.7.281,28.611,28.611,0,0,0,3.767-.246,9.056,9.056,0,0,0,3.345-1.092,6.2,6.2,0,0,0,2.359-2.429,8.615,8.615,0,0,0,.88-4.19v2.042a19.877,19.877,0,0,0,.564,2.781,5.323,5.323,0,0,0,1.092,2.077,4.746,4.746,0,0,0,2.006,1.3,10.238,10.238,0,0,0,3.38.457q7.462,0,11.617-4.718t4.366-13.236v-.846q-.212-8.517-4.366-13.166T1401.353,566.848Zm2.253,28.023q-1.339,3.03-3.661,3.028a4.81,4.81,0,0,1-3.2-1.232q-1.445-1.231-2.43-4.682v-9.223q0-5.562,1.479-7.956a4.638,4.638,0,0,1,4.155-2.4q2.323,0,3.661,3.029t1.408,9.646Q1404.944,591.844,1403.606,594.871Z" transform="translate(-1.989 -2.867)" fill="#004490"/>
    <path id="Path_16" data-name="Path 16" d="M1435.913,598.472a.566.566,0,0,0-.168.024.163.163,0,0,0-.107.1,3.264,3.264,0,0,1-.2.4,3.707,3.707,0,0,1-.45.633,3.618,3.618,0,0,1-.663.6,1.435,1.435,0,0,1-.84.267h-1.465v-3.815h.138a1.6,1.6,0,0,1,.824.19,1.756,1.756,0,0,1,.511.442,1.889,1.889,0,0,1,.274.48,1.144,1.144,0,0,1,.084.32.174.174,0,0,0,.1.146.455.455,0,0,0,.191.038.529.529,0,0,0,.176-.03c.056-.021.084-.046.084-.076a2.575,2.575,0,0,0,.008-.366c-.006-.173-.011-.359-.016-.558s-.013-.389-.022-.572-.016-.32-.016-.412,0-.208.008-.381.013-.355.023-.55.016-.378.016-.557-.006-.312-.016-.4c0-.03-.025-.057-.076-.076a.49.49,0,0,0-.183-.03.4.4,0,0,0-.176.038.174.174,0,0,0-.1.145,1.127,1.127,0,0,1-.084.32,1.873,1.873,0,0,1-.274.481,1.758,1.758,0,0,1-.511.443,1.606,1.606,0,0,1-.824.19h-.138v-3.876h1.008a1.531,1.531,0,0,1,.861.268,4.14,4.14,0,0,1,.718.595,4.061,4.061,0,0,1,.5.633,2.548,2.548,0,0,1,.222.4.16.16,0,0,0,.107.1.578.578,0,0,0,.168.023.6.6,0,0,0,.206-.031c.056-.019.079-.05.068-.091-.01-.072-.021-.222-.03-.45s-.023-.482-.038-.756-.03-.546-.046-.816-.028-.48-.038-.633c0-.062-.035-.092-.107-.092a1.883,1.883,0,0,0-.314.038,3.453,3.453,0,0,1-.6.038H1428.3c-.041,0-.074.03-.1.092a.509.509,0,0,0-.038.2.422.422,0,0,0,.054.206.173.173,0,0,0,.16.1.5.5,0,0,1,.206.053.823.823,0,0,1,.214.146.959.959,0,0,1,.175.221.6.6,0,0,1,.076.313v7.37a.6.6,0,0,1-.076.314.959.959,0,0,1-.175.221.821.821,0,0,1-.214.146.5.5,0,0,1-.206.053.173.173,0,0,0-.16.1.421.421,0,0,0-.054.206.509.509,0,0,0,.038.2c.025.061.059.092.1.092h6.714a3.561,3.561,0,0,1,.6.038,1.891,1.891,0,0,0,.313.038c.071,0,.108-.03.108-.092q.014-.229.038-.633c.015-.271.03-.542.046-.816s.027-.526.038-.756.021-.378.03-.45q.015-.062-.068-.091A.608.608,0,0,0,1435.913,598.472Z" transform="translate(-3.641 -3.704)" fill="#004490"/>
    <path id="Path_17" data-name="Path 17" d="M1443.976,596.316a4.3,4.3,0,0,0-1.19-.869,6.271,6.271,0,0,0-1.663-.55,3.689,3.689,0,0,1-1.389-.534,1.415,1.415,0,0,1-.641-.869,1.637,1.637,0,0,1,.015-.672,1.228,1.228,0,0,1,.274-.526,1.4,1.4,0,0,1,.512-.351,1.788,1.788,0,0,1,.694-.13,1.066,1.066,0,0,1,.907.442,3.154,3.154,0,0,1,.5,1.236.81.81,0,0,0,.5.549,1.805,1.805,0,0,0,.984.138,1.279,1.279,0,0,0,.709-.306.6.6,0,0,0,.222-.549,2.133,2.133,0,0,0-.42-.931,3.084,3.084,0,0,0-.831-.74,4.442,4.442,0,0,0-1.16-.5,5.2,5.2,0,0,0-1.4-.183,5,5,0,0,0-1.443.2,3.721,3.721,0,0,0-1.159.565,2.836,2.836,0,0,0-.786.869,2.417,2.417,0,0,0-.32,1.1,3.513,3.513,0,0,0,.977,2.7,5.569,5.569,0,0,0,2.96,1.465,3.694,3.694,0,0,1,1.32.534.955.955,0,0,1,.465.778,1.092,1.092,0,0,1-.137.526,1.52,1.52,0,0,1-.366.442,2.009,2.009,0,0,1-.526.313,1.623,1.623,0,0,1-.618.122,1.8,1.8,0,0,1-.58-.1,1.432,1.432,0,0,1-.519-.314,1.773,1.773,0,0,1-.39-.557,2.578,2.578,0,0,1-.206-.847.74.74,0,0,0-.511-.633,1.732,1.732,0,0,0-1.106-.023.905.905,0,0,0-.58.428.884.884,0,0,0-.076.7,2.735,2.735,0,0,0,1.374,1.656,5.5,5.5,0,0,0,2.594.541,4.856,4.856,0,0,0,1.435-.206,4.264,4.264,0,0,0,1.189-.564,3.1,3.1,0,0,0,.84-.847,2.375,2.375,0,0,0,.381-1.068,2.971,2.971,0,0,0-.137-1.312A3.117,3.117,0,0,0,1443.976,596.316Z" transform="translate(-3.845 -3.7)" fill="#004490"/>
    <path id="Path_18" data-name="Path 18" d="M1454,592.689c-.016-.275-.03-.547-.046-.816s-.028-.482-.038-.634c0-.051-.017-.079-.054-.084a.666.666,0,0,0-.168.008q-.114.016-.3.038a4.231,4.231,0,0,1-.5.023h-6.608a4.287,4.287,0,0,1-.488-.023c-.132-.015-.236-.027-.312-.038a.666.666,0,0,0-.168-.008c-.035,0-.053.033-.053.084-.011.152-.021.363-.031.634s-.022.541-.038.816-.03.526-.046.755-.027.379-.038.45c0,.03.023.059.069.084a.338.338,0,0,0,.167.038.632.632,0,0,0,.191-.03.2.2,0,0,0,.122-.092c.021-.062.076-.193.168-.4a3.649,3.649,0,0,1,.373-.634,3.149,3.149,0,0,1,.566-.595,1.137,1.137,0,0,1,.739-.268h.718v8.088a.647.647,0,0,1-.282.419.886.886,0,0,1-.374.16.173.173,0,0,0-.16.1.421.421,0,0,0-.053.206.506.506,0,0,0,.038.2c.025.062.059.092.1.092h4.471c.051,0,.086-.03.107-.092a.619.619,0,0,0,.031-.2.434.434,0,0,0-.054-.206.174.174,0,0,0-.16-.1.5.5,0,0,1-.206-.053.822.822,0,0,1-.214-.146.958.958,0,0,1-.176-.221.611.611,0,0,1-.076-.313V592h.458a1.14,1.14,0,0,1,.74.268,3.178,3.178,0,0,1,.564.595,3.644,3.644,0,0,1,.374.634c.092.2.148.335.168.4a.2.2,0,0,0,.122.092.618.618,0,0,0,.19.03.342.342,0,0,0,.168-.038c.046-.025.068-.054.068-.084-.01-.071-.02-.222-.03-.45S1454.018,592.964,1454,592.689Z" transform="translate(-4.037 -3.704)" fill="#004490"/>
    <path id="Path_19" data-name="Path 19" d="M1456.074,599.913a1.137,1.137,0,0,0-.748.252.8.8,0,0,0-.3.648.815.815,0,0,0,.3.633,1.093,1.093,0,0,0,.748.268,1.16,1.16,0,0,0,.763-.252.842.842,0,0,0,0-1.3A1.16,1.16,0,0,0,1456.074,599.913Z" transform="translate(-4.269 -3.909)" fill="#004490"/>
    <path id="Path_20" data-name="Path 20" d="M1469.053,592.221a3.448,3.448,0,0,0-1.243-.877,4.317,4.317,0,0,0-1.855-.306,5.625,5.625,0,0,0-1.609.274,2.537,2.537,0,0,0-1.137.718,2.342,2.342,0,0,0-.512.816,1.548,1.548,0,0,0-.084.771,1.029,1.029,0,0,0,.328.595,1.382,1.382,0,0,0,.725.32,1.338,1.338,0,0,0,1.023-.221,1.4,1.4,0,0,0,.564-.893,2.087,2.087,0,0,0,.008-.6,3.467,3.467,0,0,1-.022-.595.749.749,0,0,1,.16-.45.7.7,0,0,1,.557-.176,1.56,1.56,0,0,1,1.106.4,1.867,1.867,0,0,1,.564.962,2,2,0,0,1-.092,1.159,2.036,2.036,0,0,1-.877,1.015,18.59,18.59,0,0,0-1.725,1.206,7.977,7.977,0,0,0-1.267,1.243,4.863,4.863,0,0,0-.785,1.381,4.657,4.657,0,0,0-.268,1.6v.687h.168v-.016l5.723.016a4.453,4.453,0,0,1,.5.023l.313.038a.678.678,0,0,0,.168.008c.03,0,.045-.033.045-.084q.031-1.389.077-2.068t.076-.893a.111.111,0,0,0-.046-.084.173.173,0,0,0-.114-.038.451.451,0,0,0-.138.022.162.162,0,0,0-.1.1q-.031.091-.091.252a1.63,1.63,0,0,1-.168.32,1.123,1.123,0,0,1-.274.282.66.66,0,0,1-.4.122h-4.593q.015-.366.512-.626a7.75,7.75,0,0,1,1.183-.48q.686-.221,1.4-.435a5.186,5.186,0,0,0,1.175-.488,3.675,3.675,0,0,0,1.145-1.076,3.5,3.5,0,0,0,.557-1.327,3.23,3.23,0,0,0-.038-1.381A2.878,2.878,0,0,0,1469.053,592.221Z" transform="translate(-4.446 -3.701)" fill="#004490"/>
    <path id="Path_21" data-name="Path 21" d="M1477.42,592.419a3.691,3.691,0,0,0-1.32-1.03,3.87,3.87,0,0,0-1.633-.351,3.92,3.92,0,0,0-1.64.351,3.732,3.732,0,0,0-1.335,1.03,5.133,5.133,0,0,0-.894,1.648,7.59,7.59,0,0,0,0,4.409,5.032,5.032,0,0,0,.894,1.641,3.766,3.766,0,0,0,1.335,1.023,3.921,3.921,0,0,0,1.64.351,3.871,3.871,0,0,0,1.633-.351,3.724,3.724,0,0,0,1.32-1.023,5.113,5.113,0,0,0,.885-1.641,7.568,7.568,0,0,0,0-4.409A5.217,5.217,0,0,0,1477.42,592.419Zm-1.274,6.989q-.229,1.276-.977,1.351a1.138,1.138,0,0,1-.771-.229,2.392,2.392,0,0,1-.656-.794,6.174,6.174,0,0,1-.519-1.312,13.182,13.182,0,0,1-.358-1.771,16.968,16.968,0,0,1-.168-2,7.936,7.936,0,0,1,.1-1.518,2.513,2.513,0,0,1,.359-.984.862.862,0,0,1,.61-.4c.509-.05.961.287,1.358,1.016a9.889,9.889,0,0,1,.916,3.1A11.532,11.532,0,0,1,1476.145,599.408Z" transform="translate(-4.625 -3.701)" fill="#004490"/>
    <path id="Path_22" data-name="Path 22" d="M1485.928,592.221a3.447,3.447,0,0,0-1.243-.877,4.317,4.317,0,0,0-1.855-.306,5.625,5.625,0,0,0-1.61.274,2.537,2.537,0,0,0-1.137.718,2.344,2.344,0,0,0-.512.816,1.551,1.551,0,0,0-.084.771,1.03,1.03,0,0,0,.328.595,1.382,1.382,0,0,0,.725.32,1.338,1.338,0,0,0,1.022-.221,1.4,1.4,0,0,0,.564-.893,2.082,2.082,0,0,0,.008-.6,3.479,3.479,0,0,1-.022-.595.748.748,0,0,1,.16-.45.7.7,0,0,1,.557-.176,1.561,1.561,0,0,1,1.106.4,1.867,1.867,0,0,1,.564.962,2,2,0,0,1-.092,1.159,2.035,2.035,0,0,1-.877,1.015,18.56,18.56,0,0,0-1.725,1.206,7.971,7.971,0,0,0-1.267,1.243,4.86,4.86,0,0,0-.785,1.381,4.66,4.66,0,0,0-.268,1.6v.687h.168v-.016l5.723.016a4.455,4.455,0,0,1,.5.023l.313.038a.678.678,0,0,0,.168.008c.03,0,.045-.033.045-.084q.031-1.389.077-2.068t.076-.893a.111.111,0,0,0-.046-.084.173.173,0,0,0-.114-.038.451.451,0,0,0-.138.022.163.163,0,0,0-.1.1q-.031.091-.091.252a1.636,1.636,0,0,1-.168.32,1.125,1.125,0,0,1-.275.282.66.66,0,0,1-.4.122h-4.593q.015-.366.512-.626a7.745,7.745,0,0,1,1.183-.48q.686-.221,1.4-.435a5.192,5.192,0,0,0,1.175-.488,3.676,3.676,0,0,0,1.145-1.076,3.494,3.494,0,0,0,.557-1.327,3.232,3.232,0,0,0-.038-1.381A2.879,2.879,0,0,0,1485.928,592.221Z" transform="translate(-4.84 -3.701)" fill="#004490"/>
    <path id="Path_23" data-name="Path 23" d="M1490.754,600.977a.614.614,0,0,1-.268-.229.962.962,0,0,1-.1-.5v-9h-.122l-2.579.55a.177.177,0,0,0-.16.206.492.492,0,0,0,.16.328,1.078,1.078,0,0,1,.252.389,1.648,1.648,0,0,1,.084.572v6.958a.962.962,0,0,1-.1.5.619.619,0,0,1-.267.229c-.112.051-.176.111-.192.182s.024.108.115.108h3.25c.091,0,.129-.035.114-.108S1490.866,601.028,1490.754,600.977Z" transform="translate(-5.027 -3.706)" fill="#004490"/>
  </g>
</svg>
