<svg xmlns="http://www.w3.org/2000/svg" xmlns:xlink="http://www.w3.org/1999/xlink" width="195" height="108" viewBox="0 0 195 108">
  <defs>
    <linearGradient id="linear-gradient" x1="0.007" y1="0.11" x2="0.007" y2="0.91" gradientUnits="objectBoundingBox">
      <stop offset="0" stop-color="#86d6db"/>
      <stop offset="0.08" stop-color="#60b7bc"/>
      <stop offset="0.15" stop-color="#86dbe0"/>
      <stop offset="0.2" stop-color="#68c1c6"/>
      <stop offset="0.31" stop-color="#83d8dd"/>
      <stop offset="0.34" stop-color="#81d7dc"/>
      <stop offset="0.39" stop-color="#81ccd1"/>
      <stop offset="0.45" stop-color="#7ad3d8"/>
      <stop offset="0.51" stop-color="#7dd4d9"/>
      <stop offset="0.52" stop-color="#81d8dd"/>
      <stop offset="0.56" stop-color="#70d4da"/>
      <stop offset="0.6" stop-color="#65b8bd"/>
      <stop offset="0.63" stop-color="#54acb1"/>
      <stop offset="0.67" stop-color="#4edce4"/>
      <stop offset="0.7" stop-color="#8af1f7"/>
      <stop offset="0.72" stop-color="#9af9ff"/>
      <stop offset="0.76" stop-color="#6ad2d8"/>
      <stop offset="0.86" stop-color="#36c8d1"/>
      <stop offset="0.88" stop-color="#2bc4cd"/>
      <stop offset="0.93" stop-color="#28a3aa"/>
      <stop offset="0.98" stop-color="#8ef6fc"/>
      <stop offset="1" stop-color="#2c9298"/>
    </linearGradient>
    <linearGradient id="linear-gradient-2" x1="0.993" y1="0.11" x2="0.993" y2="0.91" xlink:href="#linear-gradient"/>
    <linearGradient id="linear-gradient-3" x1="0.499" y1="0.067" x2="0.499" y2="1.044" gradientUnits="objectBoundingBox">
      <stop offset="0" stop-color="#fff"/>
      <stop offset="0.02" stop-color="#f4f4f4"/>
      <stop offset="0.09" stop-color="#c8c8c8"/>
      <stop offset="0.13" stop-color="#b7b7b7"/>
      <stop offset="0.25" stop-color="#fff"/>
      <stop offset="0.55" stop-color="#fff"/>
      <stop offset="0.62" stop-color="#d5d5d5"/>
      <stop offset="0.66" stop-color="#c4c4c4"/>
      <stop offset="0.7" stop-color="#adadad"/>
      <stop offset="0.78" stop-color="#818181"/>
      <stop offset="0.83" stop-color="#707070"/>
      <stop offset="0.87" stop-color="#4e4e4e"/>
      <stop offset="0.9" stop-color="#3d3d3d"/>
      <stop offset="1" stop-color="#454545"/>
    </linearGradient>
    <linearGradient id="linear-gradient-4" x1="0.483" y1="0.5" x2="-0.867" y2="0.505" gradientUnits="objectBoundingBox">
      <stop offset="0.07" stop-color="#161617"/>
      <stop offset="0.18" stop-color="#222123"/>
      <stop offset="0.41" stop-color="#313133"/>
      <stop offset="0.66" stop-color="#3b3a3d"/>
      <stop offset="0.98" stop-color="#3e3d40"/>
    </linearGradient>
    <linearGradient id="linear-gradient-5" x1="0.5" y1="0.096" x2="0.5" y2="1.012" xlink:href="#linear-gradient-3"/>
    <linearGradient id="linear-gradient-6" x1="1.965" y1="0.508" x2="0.538" y2="0.5" gradientUnits="objectBoundingBox">
      <stop offset="0.02" stop-color="#3e3d40"/>
      <stop offset="0.34" stop-color="#3b3a3d"/>
      <stop offset="0.59" stop-color="#313133"/>
      <stop offset="0.82" stop-color="#222123"/>
      <stop offset="0.93" stop-color="#161617"/>
    </linearGradient>
    <linearGradient id="linear-gradient-7" x1="0.5" y1="0.058" x2="0.5" y2="1.012" xlink:href="#linear-gradient-3"/>
  </defs>
  <g id="ADA" transform="translate(13 14.333)">
    <g id="_2348906-01" data-name="2348906-01" transform="translate(-147.6 -294.399)">
      <g id="Objects" transform="translate(147.6 294.1)">
        <g id="Group_98" data-name="Group 98">
          <g id="Group_50" data-name="Group 50" transform="translate(34.575 2.39)">
            <path id="Path_151" data-name="Path 151" d="M314.77,294.1h-9.5c-12.806,0-23.174,19.34-23.174,43.211s10.367,43.211,23.174,43.211h9.5c10.89,0,19.689-19.34,19.689-43.211S325.659,294.1,314.77,294.1Z" transform="translate(-316.675 -296.191)" fill="url(#linear-gradient)"/>
            <ellipse id="Ellipse_23" data-name="Ellipse 23" cx="19.689" cy="43.211" rx="19.689" ry="43.211" transform="translate(-21.595 -2.091)" fill="#277276"/>
          </g>
          <g id="Group_92" data-name="Group 92" transform="translate(117.175 0.299)">
            <path id="Path_151-2" data-name="Path 151" d="M301.789,294.1h9.5c12.806,0,23.174,19.34,23.174,43.211s-10.367,43.211-23.174,43.211h-9.5c-10.89,0-19.689-19.34-19.689-43.211S290.9,294.1,301.789,294.1Z" transform="translate(-282.1 -294.1)" fill="url(#linear-gradient-2)"/>
            <ellipse id="Ellipse_23-2" data-name="Ellipse 23" cx="19.689" cy="43.211" rx="19.689" ry="43.211" transform="translate(0 0)" fill="#277276"/>
          </g>
        </g>
        <ellipse id="Ellipse_35" data-name="Ellipse 35" cx="19.689" cy="43.211" rx="19.689" ry="43.211" transform="translate(117.175 1)" fill="#5ab49d"/>
        <ellipse id="Ellipse_20" data-name="Ellipse 20" cx="16.901" cy="41.033" rx="16.901" ry="41.033" transform="translate(15.681 2.352)" fill="#341f05"/>
        <ellipse id="Ellipse_22" data-name="Ellipse 22" cx="16.901" cy="41.033" rx="16.901" ry="41.033" transform="translate(120.05 2.352)" fill="#341f05"/>
        <path id="Path_140" data-name="Path 140" d="M206.351,337.833c0-21.257,3.833-38.768,8.8-41.033H186.4c-9.322,0-16.9,18.382-16.9,41.033s7.579,40.946,16.9,40.946H215.15C210.185,376.6,206.351,359.09,206.351,337.833Z" transform="translate(-150.421 -294.448)" fill="url(#linear-gradient-3)"/>
        <path id="Path_141" data-name="Path 141" d="M231.489,337.833c0-18.643-2.962-34.412-6.97-39.465a4.1,4.1,0,0,0-3.136-1.568H220.6c-4.966,2.265-8.8,19.776-8.8,41.033s3.833,38.768,8.8,40.946h1.481a1.83,1.83,0,0,0,1.307-.436C228,374.858,231.489,358.045,231.489,337.833Z" transform="translate(-155.87 -294.448)" fill="url(#linear-gradient-4)"/>
        <path id="Path_142" data-name="Path 142" d="M276.712,337.833c0-21.257-3.833-38.768-8.712-41.033h28.662c9.409,0,16.9,18.382,16.9,41.033s-7.492,40.946-16.9,40.946H268C272.879,376.6,276.712,359.09,276.712,337.833Z" transform="translate(-163.109 -294.448)" fill="url(#linear-gradient-5)"/>
        <path id="Path_143" data-name="Path 143" d="M255.4,337.833c0-18.643,2.962-34.412,7.057-39.465a3.833,3.833,0,0,1,3.049-1.568h.871c4.879,2.265,8.712,19.776,8.712,41.033s-3.833,38.768-8.712,40.946h-1.568a1.829,1.829,0,0,1-1.307-.436C258.885,374.858,255.4,358.045,255.4,337.833Z" transform="translate(-161.486 -294.448)" fill="url(#linear-gradient-6)"/>
        <path id="Path_144" data-name="Path 144" d="M255.2,296.5H227.144c-5.488,0-9.844,18.556-9.844,41.381s4.356,41.294,9.844,41.294H255.2c5.488,0,9.844-18.556,9.844-41.294S260.685,296.5,255.2,296.5Z" transform="translate(-156.578 -294.409)" fill="url(#linear-gradient-7)"/>
        <g id="ADA-C">
          <circle id="Ellipse_28" data-name="Ellipse 28" cx="21" cy="21" r="21" transform="translate(63 18.966)" fill="#99ffc7"/>
          <g id="Layer_1-2" transform="translate(64.285 21.466)">
            <path id="Path_275" data-name="Path 275" d="M102.762,150.688a2.736,2.736,0,0,0,2.578,2.881h.162a2.735,2.735,0,1,0-2.74-2.881Z" transform="translate(-91.628 -132.058)" fill="#0033ad"/>
            <path id="Path_276" data-name="Path 276" d="M.924,165.484a.884.884,0,1,0,.834.931.877.877,0,0,0-.834-.931Z" transform="translate(0.008 -147.558)" fill="#0033ad"/>
            <path id="Path_277" data-name="Path 277" d="M90.624,11.613a.886.886,0,1,0-.8-1.581.886.886,0,0,0,.8,1.581Z" transform="translate(-79.662 -8.861)" fill="#0033ad"/>
            <path id="Path_278" data-name="Path 278" d="M110.544,48.85a1.363,1.363,0,1,0-1.83-.606A1.366,1.366,0,0,0,110.544,48.85Z" transform="translate(-96.81 -41.257)" fill="#0033ad"/>
            <path id="Path_279" data-name="Path 279" d="M36.388,83.787a1.126,1.126,0,1,0-.325-1.56h0A1.121,1.121,0,0,0,36.388,83.787Z" transform="translate(-31.99 -72.868)" fill="#0033ad"/>
            <path id="Path_280" data-name="Path 280" d="M44.021,160.981a1.367,1.367,0,1,0,1.289,1.44h0A1.367,1.367,0,0,0,44.021,160.981Z" transform="translate(-37.966 -143.543)" fill="#0033ad"/>
            <path id="Path_281" data-name="Path 281" d="M36.9,244.7a1.129,1.129,0,1,0,1.516.5h0a1.133,1.133,0,0,0-1.516-.5Z" transform="translate(-32.352 -218.092)" fill="#0033ad"/>
            <path id="Path_282" data-name="Path 282" d="M84.992,110.612a1.6,1.6,0,1,0-.466-2.22,1.594,1.594,0,0,0,.466,2.22Z" transform="translate(-75.136 -96.001)" fill="#0033ad"/>
            <path id="Path_283" data-name="Path 283" d="M241.39,48.447a1.368,1.368,0,1,0-.39-1.9h0a1.353,1.353,0,0,0,.39,1.9Z" transform="translate(-214.692 -40.962)" fill="#0033ad"/>
            <path id="Path_284" data-name="Path 284" d="M269.025,11.182a.885.885,0,1,0-.26-1.235.912.912,0,0,0,.26,1.235Z" transform="translate(-239.533 -8.517)" fill="#0033ad"/>
            <path id="Path_285" data-name="Path 285" d="M224.643,147.862a2.733,2.733,0,1,0-.3,5.458h.152a2.731,2.731,0,0,0,.152-5.458Z" transform="translate(-197.74 -131.843)" fill="#0033ad"/>
            <path id="Path_286" data-name="Path 286" d="M132.672,100.354a2.737,2.737,0,1,0,1.213-3.682,2.741,2.741,0,0,0-1.213,3.682Z" transform="translate(-118.039 -85.938)" fill="#0033ad"/>
            <path id="Path_287" data-name="Path 287" d="M319.47,83.288a1.126,1.126,0,1,0-1.527-.5,1.145,1.145,0,0,0,1.527.5Z" transform="translate(-283.404 -72.37)" fill="#0033ad"/>
            <path id="Path_288" data-name="Path 288" d="M261.7,107.424a1.606,1.606,0,1,0,2.155.715A1.606,1.606,0,0,0,261.7,107.424Z" transform="translate(-232.565 -95.639)" fill="#0033ad"/>
            <path id="Path_289" data-name="Path 289" d="M177.748,2.24a1.141,1.141,0,0,0,1.191-1.061,1.129,1.129,0,0,0-2.253-.141,1.144,1.144,0,0,0,1.061,1.2Z" transform="translate(-157.549 0.015)" fill="#0033ad"/>
            <path id="Path_290" data-name="Path 290" d="M173.9,59.681a1.605,1.605,0,1,0-1.516-1.69,1.595,1.595,0,0,0,1.516,1.69Z" transform="translate(-153.711 -50.355)" fill="#0033ad"/>
            <path id="Path_291" data-name="Path 291" d="M86.84,212.655a1.606,1.606,0,1,0-2.155-.715A1.606,1.606,0,0,0,86.84,212.655Z" transform="translate(-75.359 -186.91)" fill="#0033ad"/>
            <path id="Path_292" data-name="Path 292" d="M192.329,97.635a2.734,2.734,0,1,0,2.285-1.235A2.727,2.727,0,0,0,192.329,97.635Z" transform="translate(-171.1 -85.958)" fill="#0033ad"/>
            <path id="Path_293" data-name="Path 293" d="M197.256,200.985a2.734,2.734,0,1,0-1.213,3.671h0a2.721,2.721,0,0,0,1.224-3.65C197.267,201,197.267,201,197.256,200.985Z" transform="translate(-171.274 -177.872)" fill="#0033ad"/>
            <path id="Path_294" data-name="Path 294" d="M263.546,209.426a1.6,1.6,0,1,0,.466,2.22,1.594,1.594,0,0,0-.466-2.22Z" transform="translate(-232.788 -186.508)" fill="#0033ad"/>
            <path id="Path_295" data-name="Path 295" d="M309.91,161.822a1.367,1.367,0,1,0-1.44,1.289h0A1.375,1.375,0,0,0,309.91,161.822Z" transform="translate(-273.91 -143.008)" fill="#0033ad"/>
            <path id="Path_296" data-name="Path 296" d="M359.624,164.684a.884.884,0,1,0,.834.931A.891.891,0,0,0,359.624,164.684Z" transform="translate(-319.844 -146.845)" fill="#0033ad"/>
            <path id="Path_297" data-name="Path 297" d="M320.062,244.2a1.126,1.126,0,1,0,.325,1.56,1.121,1.121,0,0,0-.325-1.56Z" transform="translate(-283.845 -217.591)" fill="#0033ad"/>
            <path id="Path_298" data-name="Path 298" d="M91.322,320.7a.883.883,0,1,0,.249,1.224h0A.87.87,0,0,0,91.322,320.7Z" transform="translate(-80.21 -285.835)" fill="#0033ad"/>
            <path id="Path_299" data-name="Path 299" d="M269.822,320.3a.886.886,0,1,0,.8,1.581.886.886,0,0,0-.8-1.581Z" transform="translate(-240.168 -285.518)" fill="#0033ad"/>
            <path id="Path_300" data-name="Path 300" d="M137.57,203.819a2.738,2.738,0,1,0-3.791.791,2.747,2.747,0,0,0,3.791-.791Z" transform="translate(-118.183 -177.966)" fill="#0033ad"/>
            <path id="Path_301" data-name="Path 301" d="M111.057,275.562a1.368,1.368,0,1,0,.39,1.9h0A1.355,1.355,0,0,0,111.057,275.562Z" transform="translate(-97.14 -245.517)" fill="#0033ad"/>
            <path id="Path_302" data-name="Path 302" d="M177.569,325.687a1.128,1.128,0,1,0,1.061,1.2,1.141,1.141,0,0,0-1.061-1.2Z" transform="translate(-157.273 -290.411)" fill="#0033ad"/>
            <path id="Path_303" data-name="Path 303" d="M173.565,260.375a1.605,1.605,0,1,0,1.516,1.689,1.595,1.595,0,0,0-1.516-1.689Z" transform="translate(-153.257 -232.172)" fill="#0033ad"/>
            <path id="Path_304" data-name="Path 304" d="M242.052,275.174a1.368,1.368,0,1,0,1.852.606,1.368,1.368,0,0,0-1.852-.606Z" transform="translate(-215.17 -245.238)" fill="#0033ad"/>
          </g>
        </g>
        <g id="ADA-L">
          <circle id="Ellipse_27" data-name="Ellipse 27" cx="18" cy="18" r="18" transform="translate(20 21.966)" fill="#99ffc7"/>
          <g id="Layer_1-2-2" data-name="Layer_1-2" transform="translate(21.187 25.995)">
            <path id="Path_275-2" data-name="Path 275" d="M102.761,150.063a2.075,2.075,0,0,0,1.955,2.185h.123a2.075,2.075,0,1,0-2.079-2.185Z" transform="translate(-94.315 -135.93)" fill="#0033ad"/>
            <path id="Path_276-2" data-name="Path 276" d="M.7,165.484a.671.671,0,1,0,.633.707.666.666,0,0,0-.633-.707Z" transform="translate(0.008 -151.885)" fill="#0033ad"/>
            <path id="Path_277-2" data-name="Path 277" d="M90.313,11.209a.672.672,0,1,0-.608-1.2.672.672,0,0,0,.608,1.2Z" transform="translate(-81.998 -9.121)" fill="#0033ad"/>
            <path id="Path_278-2" data-name="Path 278" d="M110.067,48.227a1.034,1.034,0,1,0-1.388-.46A1.037,1.037,0,0,0,110.067,48.227Z" transform="translate(-99.649 -42.467)" fill="#0033ad"/>
            <path id="Path_279-2" data-name="Path 279" d="M36.264,83.288a.855.855,0,1,0-.246-1.183h0A.85.85,0,0,0,36.264,83.288Z" transform="translate(-32.928 -75.005)" fill="#0033ad"/>
            <path id="Path_280-2" data-name="Path 280" d="M43.673,160.981a1.037,1.037,0,1,0,.978,1.093h0A1.037,1.037,0,0,0,43.673,160.981Z" transform="translate(-39.08 -147.752)" fill="#0033ad"/>
            <path id="Path_281-2" data-name="Path 281" d="M36.752,244.674a.856.856,0,1,0,1.15.378h0a.859.859,0,0,0-1.15-.378Z" transform="translate(-33.301 -224.486)" fill="#0033ad"/>
            <path id="Path_282-2" data-name="Path 282" d="M84.816,109.9a1.217,1.217,0,1,0-.353-1.684,1.209,1.209,0,0,0,.353,1.684Z" transform="translate(-77.339 -98.816)" fill="#0033ad"/>
            <path id="Path_283-2" data-name="Path 283" d="M241.24,47.842a1.038,1.038,0,1,0-.3-1.438h0a1.027,1.027,0,0,0,.3,1.438Z" transform="translate(-220.987 -42.163)" fill="#0033ad"/>
            <path id="Path_284-2" data-name="Path 284" d="M268.929,10.789a.671.671,0,1,0-.2-.937.692.692,0,0,0,.2.937Z" transform="translate(-246.556 -8.767)" fill="#0033ad"/>
            <path id="Path_285-2" data-name="Path 285" d="M223.947,147.861a2.074,2.074,0,1,0-.23,4.141h.115a2.072,2.072,0,0,0,.115-4.141Z" transform="translate(-203.538 -135.709)" fill="#0033ad"/>
            <path id="Path_286-2" data-name="Path 286" d="M132.6,99.394a2.076,2.076,0,1,0,.92-2.793,2.079,2.079,0,0,0-.92,2.793Z" transform="translate(-121.5 -88.458)" fill="#0033ad"/>
            <path id="Path_287-2" data-name="Path 287" d="M319.073,82.775a.854.854,0,1,0-1.158-.378.869.869,0,0,0,1.158.378Z" transform="translate(-291.713 -74.492)" fill="#0033ad"/>
            <path id="Path_288-2" data-name="Path 288" d="M261.486,107.384a1.218,1.218,0,1,0,1.635.542A1.218,1.218,0,0,0,261.486,107.384Z" transform="translate(-239.384 -98.443)" fill="#0033ad"/>
            <path id="Path_289-2" data-name="Path 289" d="M177.492,1.7a.866.866,0,0,0,.9-.805.856.856,0,0,0-1.709-.107.868.868,0,0,0,.805.912Z" transform="translate(-162.169 0.015)" fill="#0033ad"/>
            <path id="Path_290-2" data-name="Path 290" d="M173.533,58.906a1.218,1.218,0,1,0-1.15-1.282,1.21,1.21,0,0,0,1.15,1.282Z" transform="translate(-158.218 -51.831)" fill="#0033ad"/>
            <path id="Path_291-2" data-name="Path 291" d="M86.278,211.92a1.218,1.218,0,1,0-1.635-.542A1.218,1.218,0,0,0,86.278,211.92Z" transform="translate(-77.569 -192.39)" fill="#0033ad"/>
            <path id="Path_292-2" data-name="Path 292" d="M192.221,97.337a2.074,2.074,0,1,0,1.734-.937A2.069,2.069,0,0,0,192.221,97.337Z" transform="translate(-176.117 -88.479)" fill="#0033ad"/>
            <path id="Path_293-2" data-name="Path 293" d="M196.006,200.621a2.074,2.074,0,1,0-.92,2.785h0a2.064,2.064,0,0,0,.928-2.769C196.014,200.629,196.014,200.629,196.006,200.621Z" transform="translate(-176.296 -183.087)" fill="#0033ad"/>
            <path id="Path_294-2" data-name="Path 294" d="M262.947,209.363a1.217,1.217,0,1,0,.353,1.684,1.209,1.209,0,0,0-.353-1.684Z" transform="translate(-239.613 -191.977)" fill="#0033ad"/>
            <path id="Path_295-2" data-name="Path 295" d="M309.251,161.473a1.037,1.037,0,1,0-1.093.978h0A1.043,1.043,0,0,0,309.251,161.473Z" transform="translate(-281.941 -147.201)" fill="#0033ad"/>
            <path id="Path_296-2" data-name="Path 296" d="M359.4,164.684a.671.671,0,1,0,.633.707A.676.676,0,0,0,359.4,164.684Z" transform="translate(-329.221 -151.151)" fill="#0033ad"/>
            <path id="Path_297-2" data-name="Path 297" d="M319.641,244.158a.855.855,0,1,0,.246,1.183.85.85,0,0,0-.246-1.183Z" transform="translate(-292.167 -223.971)" fill="#0033ad"/>
            <path id="Path_298-2" data-name="Path 298" d="M90.992,320.663a.67.67,0,1,0,.189.928h0A.66.66,0,0,0,90.992,320.663Z" transform="translate(-82.562 -294.215)" fill="#0033ad"/>
            <path id="Path_299-2" data-name="Path 299" d="M269.705,320.272a.672.672,0,1,0,.608,1.2.672.672,0,0,0-.608-1.2Z" transform="translate(-247.21 -293.889)" fill="#0033ad"/>
            <path id="Path_300-2" data-name="Path 300" d="M136.356,202.8a2.077,2.077,0,1,0-2.876.6,2.084,2.084,0,0,0,2.876-.6Z" transform="translate(-121.649 -183.184)" fill="#0033ad"/>
            <path id="Path_301-2" data-name="Path 301" d="M110.546,275.508a1.038,1.038,0,1,0,.3,1.438h0A1.028,1.028,0,0,0,110.546,275.508Z" transform="translate(-99.988 -252.716)" fill="#0033ad"/>
            <path id="Path_302-2" data-name="Path 302" d="M177.281,325.687a.856.856,0,1,0,.805.912.866.866,0,0,0-.805-.912Z" transform="translate(-161.884 -298.926)" fill="#0033ad"/>
            <path id="Path_303-2" data-name="Path 303" d="M173.156,260.374a1.218,1.218,0,1,0,1.15,1.282,1.21,1.21,0,0,0-1.15-1.282Z" transform="translate(-157.751 -238.979)" fill="#0033ad"/>
            <path id="Path_304-2" data-name="Path 304" d="M241.871,275.139a1.038,1.038,0,1,0,1.4.46,1.038,1.038,0,0,0-1.4-.46Z" transform="translate(-221.479 -252.429)" fill="#0033ad"/>
          </g>
        </g>
        <g id="ADA-R">
          <circle id="Ellipse_29" data-name="Ellipse 29" cx="18" cy="18" r="18" transform="translate(113 21.966)" fill="#99ffc7"/>
          <g id="Layer_1-2-3" data-name="Layer_1-2" transform="translate(117.187 25.995)">
            <path id="Path_275-3" data-name="Path 275" d="M102.761,150.063a2.075,2.075,0,0,0,1.955,2.185h.123a2.075,2.075,0,1,0-2.079-2.185Z" transform="translate(-94.315 -135.93)" fill="#0033ad"/>
            <path id="Path_276-3" data-name="Path 276" d="M.7,165.484a.671.671,0,1,0,.633.707.666.666,0,0,0-.633-.707Z" transform="translate(0.008 -151.885)" fill="#0033ad"/>
            <path id="Path_277-3" data-name="Path 277" d="M90.313,11.209a.672.672,0,1,0-.608-1.2.672.672,0,0,0,.608,1.2Z" transform="translate(-81.998 -9.121)" fill="#0033ad"/>
            <path id="Path_278-3" data-name="Path 278" d="M110.067,48.227a1.034,1.034,0,1,0-1.388-.46A1.037,1.037,0,0,0,110.067,48.227Z" transform="translate(-99.649 -42.467)" fill="#0033ad"/>
            <path id="Path_279-3" data-name="Path 279" d="M36.264,83.288a.855.855,0,1,0-.246-1.183h0A.85.85,0,0,0,36.264,83.288Z" transform="translate(-32.928 -75.005)" fill="#0033ad"/>
            <path id="Path_280-3" data-name="Path 280" d="M43.673,160.981a1.037,1.037,0,1,0,.978,1.093h0A1.037,1.037,0,0,0,43.673,160.981Z" transform="translate(-39.08 -147.752)" fill="#0033ad"/>
            <path id="Path_281-3" data-name="Path 281" d="M36.752,244.674a.856.856,0,1,0,1.15.378h0a.859.859,0,0,0-1.15-.378Z" transform="translate(-33.301 -224.486)" fill="#0033ad"/>
            <path id="Path_282-3" data-name="Path 282" d="M84.816,109.9a1.217,1.217,0,1,0-.353-1.684,1.209,1.209,0,0,0,.353,1.684Z" transform="translate(-77.339 -98.816)" fill="#0033ad"/>
            <path id="Path_283-3" data-name="Path 283" d="M241.24,47.842a1.038,1.038,0,1,0-.3-1.438h0a1.027,1.027,0,0,0,.3,1.438Z" transform="translate(-220.987 -42.163)" fill="#0033ad"/>
            <path id="Path_284-3" data-name="Path 284" d="M268.929,10.789a.671.671,0,1,0-.2-.937.692.692,0,0,0,.2.937Z" transform="translate(-246.556 -8.767)" fill="#0033ad"/>
            <path id="Path_285-3" data-name="Path 285" d="M223.947,147.861a2.074,2.074,0,1,0-.23,4.141h.115a2.072,2.072,0,0,0,.115-4.141Z" transform="translate(-203.538 -135.709)" fill="#0033ad"/>
            <path id="Path_286-3" data-name="Path 286" d="M132.6,99.394a2.076,2.076,0,1,0,.92-2.793,2.079,2.079,0,0,0-.92,2.793Z" transform="translate(-121.5 -88.458)" fill="#0033ad"/>
            <path id="Path_287-3" data-name="Path 287" d="M319.073,82.775a.854.854,0,1,0-1.158-.378.869.869,0,0,0,1.158.378Z" transform="translate(-291.713 -74.492)" fill="#0033ad"/>
            <path id="Path_288-3" data-name="Path 288" d="M261.486,107.384a1.218,1.218,0,1,0,1.635.542A1.218,1.218,0,0,0,261.486,107.384Z" transform="translate(-239.384 -98.443)" fill="#0033ad"/>
            <path id="Path_289-3" data-name="Path 289" d="M177.492,1.7a.866.866,0,0,0,.9-.805.856.856,0,0,0-1.709-.107.868.868,0,0,0,.805.912Z" transform="translate(-162.169 0.015)" fill="#0033ad"/>
            <path id="Path_290-3" data-name="Path 290" d="M173.533,58.906a1.218,1.218,0,1,0-1.15-1.282,1.21,1.21,0,0,0,1.15,1.282Z" transform="translate(-158.218 -51.831)" fill="#0033ad"/>
            <path id="Path_291-3" data-name="Path 291" d="M86.278,211.92a1.218,1.218,0,1,0-1.635-.542A1.218,1.218,0,0,0,86.278,211.92Z" transform="translate(-77.569 -192.39)" fill="#0033ad"/>
            <path id="Path_292-3" data-name="Path 292" d="M192.221,97.337a2.074,2.074,0,1,0,1.734-.937A2.069,2.069,0,0,0,192.221,97.337Z" transform="translate(-176.117 -88.479)" fill="#0033ad"/>
            <path id="Path_293-3" data-name="Path 293" d="M196.006,200.621a2.074,2.074,0,1,0-.92,2.785h0a2.064,2.064,0,0,0,.928-2.769C196.014,200.629,196.014,200.629,196.006,200.621Z" transform="translate(-176.296 -183.087)" fill="#0033ad"/>
            <path id="Path_294-3" data-name="Path 294" d="M262.947,209.363a1.217,1.217,0,1,0,.353,1.684,1.209,1.209,0,0,0-.353-1.684Z" transform="translate(-239.613 -191.977)" fill="#0033ad"/>
            <path id="Path_295-3" data-name="Path 295" d="M309.251,161.473a1.037,1.037,0,1,0-1.093.978h0A1.043,1.043,0,0,0,309.251,161.473Z" transform="translate(-281.941 -147.201)" fill="#0033ad"/>
            <path id="Path_296-3" data-name="Path 296" d="M359.4,164.684a.671.671,0,1,0,.633.707A.676.676,0,0,0,359.4,164.684Z" transform="translate(-329.221 -151.151)" fill="#0033ad"/>
            <path id="Path_297-3" data-name="Path 297" d="M319.641,244.158a.855.855,0,1,0,.246,1.183.85.85,0,0,0-.246-1.183Z" transform="translate(-292.167 -223.971)" fill="#0033ad"/>
            <path id="Path_298-3" data-name="Path 298" d="M90.992,320.663a.67.67,0,1,0,.189.928h0A.66.66,0,0,0,90.992,320.663Z" transform="translate(-82.562 -294.215)" fill="#0033ad"/>
            <path id="Path_299-3" data-name="Path 299" d="M269.705,320.272a.672.672,0,1,0,.608,1.2.672.672,0,0,0-.608-1.2Z" transform="translate(-247.21 -293.889)" fill="#0033ad"/>
            <path id="Path_300-3" data-name="Path 300" d="M136.356,202.8a2.077,2.077,0,1,0-2.876.6,2.084,2.084,0,0,0,2.876-.6Z" transform="translate(-121.649 -183.184)" fill="#0033ad"/>
            <path id="Path_301-3" data-name="Path 301" d="M110.546,275.508a1.038,1.038,0,1,0,.3,1.438h0A1.028,1.028,0,0,0,110.546,275.508Z" transform="translate(-99.988 -252.716)" fill="#0033ad"/>
            <path id="Path_302-3" data-name="Path 302" d="M177.281,325.687a.856.856,0,1,0,.805.912.866.866,0,0,0-.805-.912Z" transform="translate(-161.884 -298.926)" fill="#0033ad"/>
            <path id="Path_303-3" data-name="Path 303" d="M173.156,260.374a1.218,1.218,0,1,0,1.15,1.282,1.21,1.21,0,0,0-1.15-1.282Z" transform="translate(-157.751 -238.979)" fill="#0033ad"/>
            <path id="Path_304-3" data-name="Path 304" d="M241.871,275.139a1.038,1.038,0,1,0,1.4.46,1.038,1.038,0,0,0-1.4-.46Z" transform="translate(-221.479 -252.429)" fill="#0033ad"/>
          </g>
        </g>
      </g>
    </g>
  </g>
</svg>
