<svg xmlns="http://www.w3.org/2000/svg" xmlns:xlink="http://www.w3.org/1999/xlink" width="195" height="108" viewBox="0 0 195 108">
  <defs>
    <linearGradient id="linear-gradient" x1="0.007" y1="0.11" x2="0.007" y2="0.91" gradientUnits="objectBoundingBox">
      <stop offset="0" stop-color="#86d6db"/>
      <stop offset="0.08" stop-color="#60b7bc"/>
      <stop offset="0.15" stop-color="#86dbe0"/>
      <stop offset="0.2" stop-color="#68c1c6"/>
      <stop offset="0.31" stop-color="#83d8dd"/>
      <stop offset="0.34" stop-color="#81d7dc"/>
      <stop offset="0.39" stop-color="#81ccd1"/>
      <stop offset="0.45" stop-color="#7ad3d8"/>
      <stop offset="0.51" stop-color="#7dd4d9"/>
      <stop offset="0.52" stop-color="#81d8dd"/>
      <stop offset="0.56" stop-color="#70d4da"/>
      <stop offset="0.6" stop-color="#65b8bd"/>
      <stop offset="0.63" stop-color="#54acb1"/>
      <stop offset="0.67" stop-color="#4edce4"/>
      <stop offset="0.7" stop-color="#8af1f7"/>
      <stop offset="0.72" stop-color="#9af9ff"/>
      <stop offset="0.76" stop-color="#6ad2d8"/>
      <stop offset="0.86" stop-color="#36c8d1"/>
      <stop offset="0.88" stop-color="#2bc4cd"/>
      <stop offset="0.93" stop-color="#28a3aa"/>
      <stop offset="0.98" stop-color="#8ef6fc"/>
      <stop offset="1" stop-color="#2c9298"/>
    </linearGradient>
    <linearGradient id="linear-gradient-2" x1="0.993" y1="0.11" x2="0.993" y2="0.91" xlink:href="#linear-gradient"/>
    <linearGradient id="linear-gradient-3" x1="0.499" y1="0.067" x2="0.499" y2="1.044" gradientUnits="objectBoundingBox">
      <stop offset="0" stop-color="#fff"/>
      <stop offset="0.02" stop-color="#f4f4f4"/>
      <stop offset="0.09" stop-color="#c8c8c8"/>
      <stop offset="0.13" stop-color="#b7b7b7"/>
      <stop offset="0.25" stop-color="#fff"/>
      <stop offset="0.55" stop-color="#fff"/>
      <stop offset="0.62" stop-color="#d5d5d5"/>
      <stop offset="0.66" stop-color="#c4c4c4"/>
      <stop offset="0.7" stop-color="#adadad"/>
      <stop offset="0.78" stop-color="#818181"/>
      <stop offset="0.83" stop-color="#707070"/>
      <stop offset="0.87" stop-color="#4e4e4e"/>
      <stop offset="0.9" stop-color="#3d3d3d"/>
      <stop offset="1" stop-color="#454545"/>
    </linearGradient>
    <linearGradient id="linear-gradient-4" x1="0.483" y1="0.5" x2="-0.867" y2="0.505" gradientUnits="objectBoundingBox">
      <stop offset="0.07" stop-color="#161617"/>
      <stop offset="0.18" stop-color="#222123"/>
      <stop offset="0.41" stop-color="#313133"/>
      <stop offset="0.66" stop-color="#3b3a3d"/>
      <stop offset="0.98" stop-color="#3e3d40"/>
    </linearGradient>
    <linearGradient id="linear-gradient-5" x1="0.5" y1="0.096" x2="0.5" y2="1.012" xlink:href="#linear-gradient-3"/>
    <linearGradient id="linear-gradient-6" x1="1.965" y1="0.508" x2="0.538" y2="0.5" gradientUnits="objectBoundingBox">
      <stop offset="0.02" stop-color="#3e3d40"/>
      <stop offset="0.34" stop-color="#3b3a3d"/>
      <stop offset="0.59" stop-color="#313133"/>
      <stop offset="0.82" stop-color="#222123"/>
      <stop offset="0.93" stop-color="#161617"/>
    </linearGradient>
    <linearGradient id="linear-gradient-7" x1="0.5" y1="0.058" x2="0.5" y2="1.012" xlink:href="#linear-gradient-3"/>
  </defs>
  <g id="MB" transform="translate(13 14.034)">
    <g id="_2348906-01" data-name="2348906-01" transform="translate(-147.6 -294.1)">
      <g id="Objects" transform="translate(147.6 294.1)">
        <g id="Group_93" data-name="Group 93">
          <g id="Group_50" data-name="Group 50" transform="translate(34.575 2.39)">
            <path id="Path_151" data-name="Path 151" d="M314.77,294.1h-9.5c-12.806,0-23.174,19.34-23.174,43.211s10.367,43.211,23.174,43.211h9.5c10.89,0,19.689-19.34,19.689-43.211S325.659,294.1,314.77,294.1Z" transform="translate(-316.675 -296.191)" fill="url(#linear-gradient)"/>
            <ellipse id="Ellipse_23" data-name="Ellipse 23" cx="19.689" cy="43.211" rx="19.689" ry="43.211" transform="translate(-21.595 -2.091)" fill="#277276"/>
          </g>
          <g id="Group_92" data-name="Group 92" transform="translate(117.175 0.299)">
            <path id="Path_151-2" data-name="Path 151" d="M301.789,294.1h9.5c12.806,0,23.174,19.34,23.174,43.211s-10.367,43.211-23.174,43.211h-9.5c-10.89,0-19.689-19.34-19.689-43.211S290.9,294.1,301.789,294.1Z" transform="translate(-282.1 -294.1)" fill="url(#linear-gradient-2)"/>
            <ellipse id="Ellipse_23-2" data-name="Ellipse 23" cx="19.689" cy="43.211" rx="19.689" ry="43.211" transform="translate(0 0)" fill="#277276"/>
          </g>
        </g>
        <ellipse id="Ellipse_21" data-name="Ellipse 21" cx="19.689" cy="43.211" rx="19.689" ry="43.211" transform="translate(117.175)" fill="#277479"/>
        <ellipse id="Ellipse_20" data-name="Ellipse 20" cx="16.901" cy="41.033" rx="16.901" ry="41.033" transform="translate(15.681 2.352)" fill="#341f05"/>
        <ellipse id="Ellipse_22" data-name="Ellipse 22" cx="16.901" cy="41.033" rx="16.901" ry="41.033" transform="translate(120.05 2.352)" fill="#341f05"/>
        <path id="Path_140" data-name="Path 140" d="M206.351,337.833c0-21.257,3.833-38.768,8.8-41.033H186.4c-9.322,0-16.9,18.382-16.9,41.033s7.579,40.946,16.9,40.946H215.15C210.185,376.6,206.351,359.09,206.351,337.833Z" transform="translate(-150.421 -294.448)" fill="url(#linear-gradient-3)"/>
        <path id="Path_141" data-name="Path 141" d="M231.489,337.833c0-18.643-2.962-34.412-6.97-39.465a4.1,4.1,0,0,0-3.136-1.568H220.6c-4.966,2.265-8.8,19.776-8.8,41.033s3.833,38.768,8.8,40.946h1.481a1.83,1.83,0,0,0,1.307-.436C228,374.858,231.489,358.045,231.489,337.833Z" transform="translate(-155.87 -294.448)" fill="url(#linear-gradient-4)"/>
        <path id="Path_142" data-name="Path 142" d="M276.712,337.833c0-21.257-3.833-38.768-8.712-41.033h28.662c9.409,0,16.9,18.382,16.9,41.033s-7.492,40.946-16.9,40.946H268C272.879,376.6,276.712,359.09,276.712,337.833Z" transform="translate(-163.109 -294.448)" fill="url(#linear-gradient-5)"/>
        <path id="Path_143" data-name="Path 143" d="M255.4,337.833c0-18.643,2.962-34.412,7.057-39.465a3.833,3.833,0,0,1,3.049-1.568h.871c4.879,2.265,8.712,19.776,8.712,41.033s-3.833,38.768-8.712,40.946h-1.568a1.829,1.829,0,0,1-1.307-.436C258.885,374.858,255.4,358.045,255.4,337.833Z" transform="translate(-161.486 -294.448)" fill="url(#linear-gradient-6)"/>
        <path id="Path_144" data-name="Path 144" d="M255.2,296.5H227.144c-5.488,0-9.844,18.556-9.844,41.381s4.356,41.294,9.844,41.294H255.2c5.488,0,9.844-18.556,9.844-41.294S260.685,296.5,255.2,296.5Z" transform="translate(-156.578 -294.409)" fill="url(#linear-gradient-7)"/>
        <g id="MB-L">
          <circle id="Ellipse_27" data-name="Ellipse 27" cx="18" cy="18" r="18" transform="translate(20 21.966)" fill="#99ffc7"/>
          <g id="Group_73" data-name="Group 73" transform="translate(-389.488 -1605.018)">
            <path id="Path-Copy" d="M26.044,57.035a1.453,1.453,0,0,1-1.153-.573l-.021-.027-.94-1.329-1.171,1-.054.331a.436.436,0,0,0,.094.352l2.786,3.347a.805.805,0,0,0,1.239,0l2.792-3.347a.436.436,0,0,0,.094-.352l-.056-.35-1.36-1.16-1.075,1.507A1.445,1.445,0,0,1,26.044,57.035Z" transform="translate(400.417 1599.776)" fill="#99ffc7"/>
            <path id="Path-Copy-2" d="M35.98,47.829l2.5,2.137a.617.617,0,0,0,.406.151.537.537,0,0,0,.411-.18l2.945-5.793-3.007-.9Z" transform="translate(393.354 1605.99)" fill="#99ffc7"/>
            <path id="Path-Copy-3" d="M14.272,44.059l-.457-.643-2.724.807,2.934,5.807a.551.551,0,0,0,.414.18.618.618,0,0,0,.4-.151l2.3-1.946Z" transform="translate(406.59 1605.895)" fill="#99ffc7"/>
            <path id="Path-Copy-4" d="M42.852,18.7a1.378,1.378,0,0,1,.067.143l4.415.807a.608.608,0,0,0,.118,0c.371,0,.57-.361.269-.716L42.594,12.61a.3.3,0,0,0-.113-.051s-2.125-.339-3.678-.579Z" transform="translate(391.852 1622.611)" fill="#99ffc7"/>
            <path id="Path-Copy-5" d="M10.981,12.07l-3.31.538a.269.269,0,0,0-.113.057L2.423,18.991c-.269.336-.086.716.285.716a.569.569,0,0,0,.113,0l4.044-.748a1.043,1.043,0,0,1,.094-.21Z" transform="translate(411.267 1622.565)" fill="#99ffc7"/>
            <path id="Path-Copy-6" d="M25.619,28.921a1.049,1.049,0,0,1-.3.269L22.6,30.805,18,33.523a1.073,1.073,0,0,1-1.094,0L12.23,30.754,9.592,29.193a1.166,1.166,0,0,1-.255-.218l-2.808.511.333,5.866a.586.586,0,0,0,.57.4.651.651,0,0,0,.188-.027l3.109-.939L9.256,32.7a1.076,1.076,0,0,1,.876-1.7,1.092,1.092,0,0,1,.537.151l1.561.912,5.215,3.092,5.14-3.041,1.634-.966A1.076,1.076,0,0,1,25.64,32.7l-1.416,2,3.391,1.023a.666.666,0,0,0,.191.027.589.589,0,0,0,.57-.4l.333-5.866Z" transform="translate(409.016 1613.603)" fill="#99ffc7"/>
            <path id="Path" d="M28.837,35.662l-7.182,4.246a.284.284,0,0,1-.142.046.268.268,0,0,1-.137-.038L14.2,35.662l2.585,3.652,4.433,6.254a.36.36,0,0,0,.3.148.368.368,0,0,0,.3-.153L23.066,43.8Z" transform="translate(404.934 1610.019)" fill="#99ffc7"/>
            <path id="Path-2" data-name="Path" d="M14.21,14.106h0l7.306,4.338h0l7.322-4.335-7-11.633a.368.368,0,0,0-.618-.019Z" transform="translate(404.931 1627.762)" fill="#99ffc7"/>
            <path id="Path-3" data-name="Path" d="M37.137,35.662l-7.182,4.246a.284.284,0,0,1-.142.046s0,5.65.005,5.761a.368.368,0,0,0,.3-.153Z" transform="translate(396.634 1610.019)" fill="#02813b" opacity="0.5"/>
            <path id="Path-4" data-name="Path" d="M29.758,18.444l7.322-4.335-7-11.633a.368.368,0,0,0-.3-.178Q29.652,2.295,29.758,18.444Z" transform="translate(396.688 1627.762)" fill="#02813b" opacity="0.5"/>
            <path id="Shape" d="M27.914,11.891,22.777,5.562,22.7,5.471,22.61,5.4a1.378,1.378,0,0,0-.519-.256H22c-2.531-.4-3.858-.608-4.568-.716L15.2.7A1.429,1.429,0,0,0,13.959,0a1.445,1.445,0,0,0-1.188.624l-.038.057L10.466,4.459c-.766.116-2.042.318-4.2.654H6.178a1.378,1.378,0,0,0-.519.256l-.094.075-.075.091L.352,11.894h0A1.544,1.544,0,0,0,.146,13.53a1.467,1.467,0,0,0,1.343.821,1.766,1.766,0,0,0,.312-.03l.191-.035L2.3,20.034v.132l.04.126a1.65,1.65,0,0,0,1.6,1.152h.169l3.042,6,.059.118.086.1a1.611,1.611,0,0,0,1.225.552,1.712,1.712,0,0,0,1.1-.406h0a1.559,1.559,0,0,0,.269.479l2.786,3.345a1.879,1.879,0,0,0,2.888,0l2.792-3.374a1.513,1.513,0,0,0,.269-.49l.016.016a1.707,1.707,0,0,0,1.1.406,1.611,1.611,0,0,0,1.223-.552l.089-.1.059-.118,3.042-5.987h.169a1.655,1.655,0,0,0,1.612-1.152l.04-.126V20.02l.328-5.734.2.038a1.68,1.68,0,0,0,.312.027,1.475,1.475,0,0,0,1.343-.831,1.546,1.546,0,0,0-.244-1.629ZM13.674,1.235a.368.368,0,0,1,.618.019L21.28,12.887l-7.322,4.335h0L6.653,12.884h0ZM1.583,13.277a.541.541,0,0,1-.11,0c-.371,0-.551-.379-.285-.716L6.325,6.24a.268.268,0,0,1,.11-.051l3.31-.538L5.732,12.33a1.045,1.045,0,0,0-.094.21ZM8.929,26.971a.618.618,0,0,1-.4.151.551.551,0,0,1-.414-.18L5.178,21.148,7.9,20.34l.457.643,2.864,4.042ZM6.65,16.7l7.177,4.246a.268.268,0,0,0,.269,0L21.283,16.7l-5.771,8.137L14.262,26.6a.371.371,0,0,1-.3.153.36.36,0,0,1-.3-.148L9.235,20.348ZM17.623,27.224a.436.436,0,0,1-.094.352l-2.786,3.347a.8.8,0,0,1-1.239,0l-2.786-3.347a.436.436,0,0,1-.094-.352l.054-.331,1.171-1,.94,1.329.021.027a1.453,1.453,0,0,0,1.147.573,1.437,1.437,0,0,0,1.171-.605l1.072-1.5,1.36,1.16Zm2.531-.269a.537.537,0,0,1-.411.18.617.617,0,0,1-.406-.151L16.83,24.847l3.256-4.6,3.007.9Zm4.74-6.983a.591.591,0,0,1-.572.4.662.662,0,0,1-.188-.027l-3.391-1.022,1.416-2a1.076,1.076,0,0,0-1.421-1.55l-1.634.966L13.959,19.78l-5.216-3.1L7.2,15.769a1.092,1.092,0,0,0-.537-.151,1.076,1.076,0,0,0-.876,1.7L7.241,19.4l-3.109.939a.649.649,0,0,1-.188.027.586.586,0,0,1-.57-.4L3.038,14.1l2.81-.511a1.167,1.167,0,0,0,.255.218l2.639,1.561,4.678,2.769a1.073,1.073,0,0,0,1.094,0l4.586-2.71,2.724-1.615a1.048,1.048,0,0,0,.3-.269l3.1.565ZM26.8,13.288a.6.6,0,0,1-.118,0l-4.414-.807a1.384,1.384,0,0,0-.067-.143L18.153,5.611c1.55.234,3.678.579,3.678.579a.3.3,0,0,1,.113.057l5.137,6.332a.4.4,0,0,1-.279.71Z" transform="translate(412.488 1628.984)" fill="#02813b"/>
          </g>
        </g>
        <g id="MB-C">
          <circle id="Ellipse_28" data-name="Ellipse 28" cx="21" cy="21" r="21" transform="translate(63 18.966)" fill="#99ffc7"/>
          <g id="Group_74" data-name="Group 74" transform="translate(-348.784 -1612.209)">
            <path id="Path-Copy-2-2" data-name="Path-Copy" d="M27.533,57.973a2.1,2.1,0,0,1-1.666-.828l-.03-.039-1.358-1.921-1.692,1.445-.078.478a.63.63,0,0,0,.136.509l4.026,4.837a1.163,1.163,0,0,0,1.791,0L32.7,57.618a.63.63,0,0,0,.136-.509L32.75,56.6l-1.965-1.676L29.231,57.1A2.088,2.088,0,0,1,27.533,57.973Z" transform="translate(405.148 1611.225)" fill="#99ffc7"/>
            <path id="Path-Copy-2-3" data-name="Path-Copy-2" d="M35.98,49.87l3.613,3.088a.892.892,0,0,0,.587.218.776.776,0,0,0,.594-.26l4.256-8.372-4.346-1.3Z" transform="translate(400.853 1615.004)" fill="#99ffc7"/>
            <path id="Path-Copy-3-2" data-name="Path-Copy-3" d="M15.688,44.345l-.66-.929-3.937,1.166,4.24,8.392a.8.8,0,0,0,.6.26.893.893,0,0,0,.578-.218L19.824,50.2Z" transform="translate(408.901 1614.943)" fill="#99ffc7"/>
            <path id="Path-Copy-4-2" data-name="Path-Copy-4" d="M44.654,21.691a1.991,1.991,0,0,1,.1.207l6.38,1.166a.879.879,0,0,0,.171,0c.536,0,.824-.522.389-1.035L44.282,12.89a.433.433,0,0,0-.163-.074s-3.071-.49-5.315-.837Z" transform="translate(399.939 1625.107)" fill="#99ffc7"/>
            <path id="Path-Copy-5-2" data-name="Path-Copy-5" d="M14.848,12.07l-4.783.777a.389.389,0,0,0-.163.082L2.48,22.072c-.389.486-.124,1.035.412,1.035a.822.822,0,0,0,.163,0L8.9,22.026a1.507,1.507,0,0,1,.136-.3Z" transform="translate(411.745 1625.08)" fill="#99ffc7"/>
            <path id="Path-Copy-6-2" data-name="Path-Copy-6" d="M34.117,28.921a1.516,1.516,0,0,1-.434.389l-3.937,2.334-6.64,3.928a1.551,1.551,0,0,1-1.581,0l-6.758-4-3.812-2.256A1.685,1.685,0,0,1,10.587,29l-4.058.738.481,8.477a.847.847,0,0,0,.824.578.94.94,0,0,0,.272-.039L12.6,37.4,10.47,34.382a1.555,1.555,0,0,1,1.266-2.457,1.578,1.578,0,0,1,.776.218l2.256,1.318L22.3,37.93l7.428-4.395,2.361-1.4a1.555,1.555,0,0,1,2.054,2.243L32.1,37.273,37,38.751a.963.963,0,0,0,.276.039.851.851,0,0,0,.824-.578l.481-8.477Z" transform="translate(410.376 1619.63)" fill="#99ffc7"/>
            <path id="Path-5" data-name="Path" d="M35.353,35.662,24.974,41.8a.41.41,0,0,1-.205.066.387.387,0,0,1-.2-.055L14.2,35.662l3.736,5.278,6.406,9.038a.52.52,0,0,0,.434.214.532.532,0,0,0,.434-.221l1.8-2.548Z" transform="translate(407.892 1617.452)" fill="#99ffc7"/>
            <path id="Path-6" data-name="Path" d="M14.21,19.362h0l10.558,6.269h0L35.35,19.367,25.234,2.555a.532.532,0,0,0-.893-.027Z" transform="translate(407.892 1628.241)" fill="#99ffc7"/>
            <path id="Path-7" data-name="Path" d="M40.4,35.662,30.018,41.8a.41.41,0,0,1-.205.066s0,8.165.007,8.326a.532.532,0,0,0,.434-.221Z" transform="translate(402.848 1617.452)" fill="#02813b" opacity="0.5"/>
            <path id="Path-8" data-name="Path" d="M29.779,25.632l10.581-6.265L30.245,2.555a.532.532,0,0,0-.434-.257Q29.626,2.294,29.779,25.632Z" transform="translate(402.88 1628.241)" fill="#02813b" opacity="0.5"/>
            <path id="Shape-2" data-name="Shape" d="M40.34,17.184,32.916,8.038,32.8,7.906l-.13-.1a1.991,1.991,0,0,0-.75-.37h-.132c-3.658-.578-5.575-.879-6.6-1.035L21.966,1.012A2.065,2.065,0,0,0,20.173,0a2.088,2.088,0,0,0-1.717.9L18.4.984l-3.276,5.46c-1.107.168-2.951.46-6.07.945H8.928a1.991,1.991,0,0,0-.75.37l-.136.108L7.934,8,.509,17.189h0a2.231,2.231,0,0,0-.3,2.364,2.12,2.12,0,0,0,1.941,1.186A2.552,2.552,0,0,0,2.6,20.7l.276-.051.445,8.307v.191l.058.182A2.385,2.385,0,0,0,5.694,30.99h.244l4.4,8.671.085.171.124.145a2.328,2.328,0,0,0,1.77.8,2.474,2.474,0,0,0,1.59-.587h0a2.253,2.253,0,0,0,.389.692l4.026,4.834a2.715,2.715,0,0,0,4.174,0l4.035-4.876a2.187,2.187,0,0,0,.389-.708l.023.023a2.467,2.467,0,0,0,1.59.587,2.328,2.328,0,0,0,1.767-.8l.129-.145.085-.171,4.4-8.652h.244a2.392,2.392,0,0,0,2.33-1.665l.058-.182v-.2l.474-8.287.289.055a2.428,2.428,0,0,0,.451.039,2.132,2.132,0,0,0,1.941-1.2,2.234,2.234,0,0,0-.353-2.354ZM19.761,1.785a.532.532,0,0,1,.893.027l10.1,16.812L20.171,24.889h0L9.615,18.619h0ZM2.288,19.187a.782.782,0,0,1-.159,0c-.536,0-.8-.548-.412-1.035L9.141,9.018A.387.387,0,0,1,9.3,8.944l4.783-.777-5.8,9.652a1.51,1.51,0,0,0-.136.3ZM12.9,38.977a.893.893,0,0,1-.578.218.8.8,0,0,1-.6-.26L7.483,30.562l3.934-1.168.66.929,4.139,5.841ZM9.61,24.134,19.982,30.27a.387.387,0,0,0,.389,0l10.386-6.136-8.34,11.759-1.806,2.548a.536.536,0,0,1-.434.221.52.52,0,0,1-.434-.214l-6.4-9.042ZM25.468,39.343a.63.63,0,0,1-.136.509l-4.026,4.837a1.163,1.163,0,0,1-1.791,0l-4.026-4.837a.63.63,0,0,1-.136-.509l.078-.478,1.692-1.445,1.358,1.921.03.039a2.1,2.1,0,0,0,1.658.828,2.077,2.077,0,0,0,1.692-.874l1.549-2.172,1.965,1.676Zm3.658-.389a.776.776,0,0,1-.594.26A.892.892,0,0,1,27.945,39l-3.623-3.088,4.705-6.648,4.346,1.3Zm6.85-10.092a.854.854,0,0,1-.827.578.957.957,0,0,1-.272-.039l-4.9-1.477,2.046-2.89a1.555,1.555,0,0,0-2.054-2.24l-2.361,1.4-7.435,4.395L12.635,24.11l-2.23-1.321a1.578,1.578,0,0,0-.776-.218,1.555,1.555,0,0,0-1.266,2.457l2.1,3.009L5.971,29.393a.938.938,0,0,1-.272.039.847.847,0,0,1-.824-.578L4.39,20.377l4.061-.738a1.686,1.686,0,0,0,.369.315l3.814,2.256,6.76,4a1.551,1.551,0,0,0,1.581,0L27.6,22.294l3.937-2.334a1.515,1.515,0,0,0,.434-.389l4.48.817ZM38.73,19.2a.867.867,0,0,1-.171,0l-6.379-1.166a2,2,0,0,0-.1-.207l-5.85-9.722c2.24.338,5.315.837,5.315.837a.434.434,0,0,1,.163.082l7.424,9.151a.578.578,0,0,1-.4,1.026Z" transform="translate(412.488 1628.984)" fill="#02813b"/>
          </g>
        </g>
        <g id="MB-R">
          <circle id="Ellipse_29" data-name="Ellipse 29" cx="18" cy="18" r="18" transform="translate(113 21.966)" fill="#99ffc7"/>
          <g id="Group_75" data-name="Group 75" transform="translate(-293 -1604.461)">
            <path id="Path-Copy-3-3" data-name="Path-Copy" d="M25.929,56.962a1.4,1.4,0,0,1-1.113-.553l-.02-.026L23.888,55.1l-1.131.966-.052.32a.421.421,0,0,0,.091.34l2.69,3.232a.777.777,0,0,0,1.2,0l2.7-3.232a.421.421,0,0,0,.091-.34l-.054-.338L28.1,54.927l-1.038,1.455A1.4,1.4,0,0,1,25.929,56.962Z" transform="translate(400.05 1598.889)" fill="#99ffc7"/>
            <path id="Path-Copy-2-4" data-name="Path-Copy-2" d="M35.98,47.671l2.414,2.063a.6.6,0,0,0,.392.146.518.518,0,0,0,.4-.174l2.843-5.593-2.9-.869Z" transform="translate(392.773 1605.291)" fill="#99ffc7"/>
            <path id="Path-Copy-3-4" data-name="Path-Copy-3" d="M14.162,44.037l-.441-.621-2.63.779L13.924,49.8a.532.532,0,0,0,.4.174.6.6,0,0,0,.386-.146l2.216-1.879Z" transform="translate(406.411 1605.194)" fill="#99ffc7"/>
            <path id="Path-Copy-4-3" data-name="Path-Copy-4" d="M42.712,18.468a1.33,1.33,0,0,1,.065.138l4.263.779a.587.587,0,0,0,.114,0c.358,0,.55-.349.26-.691l-4.95-6.106a.29.29,0,0,0-.109-.049S40.3,12.212,38.8,11.98Z" transform="translate(391.225 1622.417)" fill="#99ffc7"/>
            <path id="Path-Copy-5-3" data-name="Path-Copy-5" d="M10.681,12.07l-3.2.519a.26.26,0,0,0-.109.055L2.419,18.752c-.26.324-.083.691.275.691a.549.549,0,0,0,.109,0l3.9-.722a1.007,1.007,0,0,1,.091-.2Z" transform="translate(411.23 1622.37)" fill="#99ffc7"/>
            <path id="Path-Copy-6-3" data-name="Path-Copy-6" d="M24.961,28.921a1.013,1.013,0,0,1-.29.26l-2.63,1.559L17.6,33.364a1.036,1.036,0,0,1-1.056,0l-4.515-2.673L9.486,29.184a1.126,1.126,0,0,1-.246-.21l-2.711.493.322,5.664a.566.566,0,0,0,.55.386.628.628,0,0,0,.182-.026l3-.907L9.162,32.57a1.039,1.039,0,0,1,.846-1.641,1.054,1.054,0,0,1,.518.146l1.507.881,5.035,2.985L22.031,32l1.578-.933a1.039,1.039,0,0,1,1.372,1.5L23.614,34.5l3.274.988a.643.643,0,0,0,.184.026.569.569,0,0,0,.55-.386l.322-5.664Z" transform="translate(408.91 1613.136)" fill="#99ffc7"/>
            <path id="Path-9" data-name="Path" d="M28.332,35.662l-6.934,4.1a.274.274,0,0,1-.137.044.259.259,0,0,1-.132-.037L14.2,35.662l2.5,3.526,4.28,6.038a.348.348,0,0,0,.29.143.355.355,0,0,0,.29-.148l1.2-1.7Z" transform="translate(404.704 1609.443)" fill="#99ffc7"/>
            <path id="Path-10" data-name="Path" d="M14.21,13.7h0l7.054,4.188h0L28.333,13.7,21.575,2.47a.355.355,0,0,0-.6-.018Z" transform="translate(404.701 1627.725)" fill="#99ffc7"/>
            <path id="Path-11" data-name="Path" d="M36.884,35.662l-6.934,4.1a.274.274,0,0,1-.137.044s0,5.455,0,5.562a.355.355,0,0,0,.29-.148Z" transform="translate(396.152 1609.443)" fill="#02813b" opacity="0.5"/>
            <path id="Path-12" data-name="Path" d="M29.756,17.887,36.826,13.7,30.067,2.47a.355.355,0,0,0-.29-.172Q29.654,2.3,29.756,17.887Z" transform="translate(396.208 1627.725)" fill="#02813b" opacity="0.5"/>
            <path id="Shape-3" data-name="Shape" d="M26.951,11.481,21.991,5.37l-.074-.088-.087-.069a1.33,1.33,0,0,0-.5-.247h-.088c-2.444-.386-3.725-.587-4.41-.691L14.676.676A1.38,1.38,0,0,0,13.478,0,1.4,1.4,0,0,0,12.33.6l-.037.055L10.1,4.305c-.74.112-1.972.307-4.055.631H5.965a1.33,1.33,0,0,0-.5.247l-.091.072L5.3,5.344.34,11.484h0a1.491,1.491,0,0,0-.2,1.58,1.416,1.416,0,0,0,1.3.793,1.705,1.705,0,0,0,.3-.029l.184-.034.3,5.55v.127l.039.122A1.593,1.593,0,0,0,3.8,20.7h.163L6.9,26.5l.057.114.083.1a1.555,1.555,0,0,0,1.183.533,1.653,1.653,0,0,0,1.062-.392h0a1.505,1.505,0,0,0,.26.462l2.69,3.23a1.814,1.814,0,0,0,2.788,0l2.7-3.258a1.461,1.461,0,0,0,.26-.473l.015.015a1.648,1.648,0,0,0,1.062.392,1.555,1.555,0,0,0,1.181-.533l.086-.1.057-.114,2.937-5.78h.163a1.6,1.6,0,0,0,1.556-1.112l.039-.122v-.13l.317-5.536.193.037a1.622,1.622,0,0,0,.3.026,1.424,1.424,0,0,0,1.3-.8,1.493,1.493,0,0,0-.236-1.573ZM13.2,1.192a.355.355,0,0,1,.6.018l6.747,11.232-7.069,4.185h0L6.424,12.44h0ZM1.528,12.819a.523.523,0,0,1-.106,0c-.358,0-.532-.366-.275-.691l4.96-6.1a.259.259,0,0,1,.106-.049l3.2-.519L5.534,11.9a1.009,1.009,0,0,0-.091.2ZM8.621,26.041a.6.6,0,0,1-.386.146.532.532,0,0,1-.4-.174L5,20.419l2.628-.78.441.621,2.765,3.9Zm-2.2-9.917,6.929,4.1a.259.259,0,0,0,.26,0l6.939-4.1L14.977,23.98l-1.207,1.7a.358.358,0,0,1-.29.148.348.348,0,0,1-.29-.143L8.916,19.646ZM17.015,26.285a.421.421,0,0,1-.091.34l-2.69,3.232a.777.777,0,0,1-1.2,0l-2.69-3.232a.421.421,0,0,1-.091-.34l.052-.32L11.44,25l.908,1.283.02.026a1.4,1.4,0,0,0,1.107.553,1.387,1.387,0,0,0,1.131-.584l1.035-1.451,1.313,1.12Zm2.444-.26a.518.518,0,0,1-.4.174.6.6,0,0,1-.392-.146L16.249,23.99l3.144-4.441,2.9.869Zm4.576-6.742a.571.571,0,0,1-.552.386.639.639,0,0,1-.182-.026l-3.274-.987,1.367-1.931a1.039,1.039,0,0,0-1.372-1.5l-1.578.933L13.478,19.1l-5.036-2.99-1.49-.882a1.054,1.054,0,0,0-.518-.146,1.039,1.039,0,0,0-.846,1.641l1.4,2.01-3,.907a.627.627,0,0,1-.182.026.566.566,0,0,1-.55-.386l-.324-5.664,2.713-.493a1.127,1.127,0,0,0,.246.21L8.44,14.838l4.517,2.673a1.036,1.036,0,0,0,1.056,0l4.428-2.617,2.63-1.559a1.012,1.012,0,0,0,.29-.26l2.993.546Zm1.84-6.453a.579.579,0,0,1-.114,0L21.5,12.05a1.336,1.336,0,0,0-.065-.138L17.527,5.417c1.5.226,3.551.559,3.551.559a.29.29,0,0,1,.109.055l4.96,6.114a.386.386,0,0,1-.269.686Z" transform="translate(412.488 1628.984)" fill="#02813b"/>
          </g>
        </g>
      </g>
    </g>
  </g>
</svg>
