<svg xmlns="http://www.w3.org/2000/svg" width="30" height="30" viewBox="0 0 30 30"><defs><style>.a{fill:#8ef6fc;}</style></defs><g transform="translate(-103 -545.267)"><path class="a" d="M26.182,3H9.818A6.827,6.827,0,0,0,3,9.819V26.18A6.827,6.827,0,0,0,9.818,33H26.182A6.827,6.827,0,0,0,33,26.181V9.818A6.826,6.826,0,0,0,26.182,3Z" transform="translate(100 542.267)"/><path d="M4.3,15.5c5.588-2.458,12.82-5.456,13.818-5.87,2.618-1.086,3.422-.878,3.021,1.527-.288,1.728-1.118,7.45-1.779,11.012-.393,2.112-1.273,2.362-2.658,1.449-.666-.44-4.028-2.663-4.758-3.185-.666-.476-1.585-1.048-.433-2.175.41-.4,3.1-2.967,5.191-4.965a.311.311,0,0,0-.387-.483c-2.822,1.871-6.735,4.469-7.233,4.807a2.9,2.9,0,0,1-2.772.373c-.98-.281-1.937-.617-2.31-.745C2.568,16.75,2.908,16.112,4.3,15.5Z" transform="translate(103.922 543.708)"/></g></svg>