<svg xmlns="http://www.w3.org/2000/svg" width="30" height="30" viewBox="0 0 30 30">
  <g id="Twitter" transform="translate(-45 -545.267)">
    <path id="twitter_squared" d="M26.182,3H9.818A6.827,6.827,0,0,0,3,9.819V26.18A6.827,6.827,0,0,0,9.818,33H26.182A6.827,6.827,0,0,0,33,26.181V9.818A6.826,6.826,0,0,0,26.182,3Z" transform="translate(42 542.267)" fill="#8ef6fc"/>
    <path id="twitter_squared-2" data-name="twitter_squared" d="M25.662,14.918c.007.162.011.325.011.49A10.736,10.736,0,0,1,9.136,24.48a7.622,7.622,0,0,0,5.591-1.567,3.785,3.785,0,0,1-3.528-2.63,3.766,3.766,0,0,0,.712.068,3.7,3.7,0,0,0,.994-.134A3.787,3.787,0,0,1,9.877,16.5v-.048a3.754,3.754,0,0,0,1.711.475,3.8,3.8,0,0,1-1.169-5.056A10.717,10.717,0,0,0,18.2,15.831a3.778,3.778,0,0,1,6.434-3.453,7.56,7.56,0,0,0,2.4-.918,3.8,3.8,0,0,1-1.662,2.095,7.576,7.576,0,0,0,2.17-.6A7.674,7.674,0,0,1,25.662,14.918Z" transform="translate(41.659 541.585)"/>
  </g>
</svg>
